<svg xmlns="http://www.w3.org/2000/svg" xmlns:xlink="http://www.w3.org/1999/xlink" width="6912" zoomAndPan="magnify" viewBox="0 0 5184 2592.000001" height="3456" preserveAspectRatio="xMidYMid meet" version="1.0"><defs><g/><clipPath id="a1d06e1679"><path d="M 1562.570312 266.074219 L 3621.429688 266.074219 L 3621.429688 2324.929688 L 1562.570312 2324.929688 Z M 1562.570312 266.074219 " clip-rule="nonzero"/></clipPath><clipPath id="f48fb96f03"><path d="M 1684.023438 266.074219 L 3499.972656 266.074219 C 3567.050781 266.074219 3621.425781 320.449219 3621.425781 387.527344 L 3621.425781 2203.476562 C 3621.425781 2270.550781 3567.050781 2324.929688 3499.972656 2324.929688 L 1684.023438 2324.929688 C 1616.949219 2324.929688 1562.570312 2270.550781 1562.570312 2203.476562 L 1562.570312 387.527344 C 1562.570312 320.449219 1616.949219 266.074219 1684.023438 266.074219 Z M 1684.023438 266.074219 " clip-rule="nonzero"/></clipPath><clipPath id="3e3cbe8a56"><path d="M 1617.242188 320.742188 L 3566.757812 320.742188 L 3566.757812 2270.257812 L 1617.242188 2270.257812 Z M 1617.242188 320.742188 " clip-rule="nonzero"/></clipPath><clipPath id="e4fc3eb491"><path d="M 1738.695312 320.742188 L 3445.304688 320.742188 C 3512.382812 320.742188 3566.757812 375.121094 3566.757812 442.195312 L 3566.757812 2148.804688 C 3566.757812 2215.882812 3512.382812 2270.257812 3445.304688 2270.257812 L 1738.695312 2270.257812 C 1671.617188 2270.257812 1617.242188 2215.882812 1617.242188 2148.804688 L 1617.242188 442.195312 C 1617.242188 375.121094 1671.617188 320.742188 1738.695312 320.742188 Z M 1738.695312 320.742188 " clip-rule="nonzero"/></clipPath><clipPath id="2ceba240ec"><path d="M 1710 2088 L 2620 2088 L 2620 2270.4375 L 1710 2270.4375 Z M 1710 2088 " clip-rule="nonzero"/></clipPath><clipPath id="6634e9e8bc"><path d="M 3091 1485.742188 L 3244 1485.742188 L 3244 1638 L 3091 1638 Z M 3091 1485.742188 " clip-rule="nonzero"/></clipPath></defs><g clip-path="url(#a1d06e1679)"><g clip-path="url(#f48fb96f03)"><path fill="#ffffff" d="M 1562.570312 266.074219 L 3621.425781 266.074219 L 3621.425781 2324.929688 L 1562.570312 2324.929688 Z M 1562.570312 266.074219 " fill-opacity="1" fill-rule="nonzero"/></g></g><g clip-path="url(#3e3cbe8a56)"><g clip-path="url(#e4fc3eb491)"><path fill="#ffca05" d="M 1617.242188 320.742188 L 3566.757812 320.742188 L 3566.757812 2270.257812 L 1617.242188 2270.257812 Z M 1617.242188 320.742188 " fill-opacity="1" fill-rule="nonzero"/></g></g><g clip-path="url(#2ceba240ec)"><path fill="#ffffff" d="M 2593.921875 2270.261719 L 1736.496094 2270.261719 C 1722.148438 2270.261719 1710.511719 2258.628906 1710.511719 2244.277344 C 1710.511719 2158.316406 1780.449219 2088.382812 1866.410156 2088.382812 L 2464.007812 2088.382812 C 2549.96875 2088.382812 2619.90625 2158.316406 2619.90625 2244.277344 C 2619.90625 2258.628906 2608.273438 2270.261719 2593.921875 2270.261719 Z M 1765.769531 2218.296875 L 2564.652344 2218.296875 C 2553.089844 2173.519531 2512.351562 2140.347656 2464.011719 2140.347656 L 1866.410156 2140.347656 C 1818.070312 2140.347656 1777.332031 2173.519531 1765.769531 2218.296875 Z M 1765.769531 2218.296875 " fill-opacity="1" fill-rule="nonzero"/></g><path fill="#ffffff" d="M 2553.933594 1464.160156 L 2517.1875 1427.414062 C 2507.042969 1417.265625 2507.042969 1400.816406 2517.1875 1390.667969 C 2527.34375 1380.523438 2543.789062 1380.527344 2553.9375 1390.667969 L 2590.679688 1427.414062 C 2600.828125 1437.5625 2600.828125 1454.011719 2590.679688 1464.160156 C 2580.527344 1474.308594 2564.085938 1474.304688 2553.933594 1464.160156 Z M 2553.933594 1464.160156 " fill-opacity="1" fill-rule="nonzero"/><path fill="#ffffff" d="M 2624.5 1329.269531 L 2572.535156 1329.269531 C 2558.1875 1329.269531 2546.554688 1317.636719 2546.554688 1303.285156 C 2546.554688 1288.9375 2558.1875 1277.304688 2572.535156 1277.304688 L 2624.5 1277.304688 C 2638.851562 1277.304688 2650.484375 1288.9375 2650.484375 1303.285156 C 2650.484375 1317.632812 2638.847656 1329.269531 2624.5 1329.269531 Z M 2624.5 1329.269531 " fill-opacity="1" fill-rule="nonzero"/><path fill="#ffffff" d="M 2438.214844 1532.371094 C 2423.867188 1532.371094 2412.230469 1520.742188 2412.230469 1506.390625 L 2412.230469 1454.425781 C 2412.230469 1440.078125 2423.867188 1428.441406 2438.214844 1428.441406 C 2452.5625 1428.441406 2464.195312 1440.078125 2464.195312 1454.425781 L 2464.195312 1506.390625 C 2464.195312 1520.738281 2452.5625 1532.371094 2438.214844 1532.371094 Z M 2438.214844 1532.371094 " fill-opacity="1" fill-rule="nonzero"/><path fill="#ffffff" d="M 2217.148438 2010.433594 L 2067.484375 2010.433594 C 2060.589844 2010.433594 2053.976562 2007.691406 2049.101562 2002.8125 L 1690.507812 1643.710938 C 1683.234375 1636.429688 1680.945312 1625.542969 1684.671875 1615.949219 C 1688.398438 1606.355469 1697.429688 1599.863281 1707.710938 1599.398438 C 1734.339844 1598.183594 1755.59375 1577.207031 1757.148438 1550.601562 C 1757.746094 1540.394531 1764.269531 1531.484375 1773.824219 1527.839844 C 1783.382812 1524.191406 1794.175781 1526.492188 1801.421875 1533.707031 L 2235.484375 1966.042969 C 2242.9375 1973.46875 2245.179688 1984.648438 2241.160156 1994.371094 C 2237.148438 2004.09375 2227.667969 2010.433594 2217.148438 2010.433594 Z M 2078.261719 1958.46875 L 2154.246094 1958.46875 L 1794.808594 1600.464844 C 1785.789062 1615.742188 1772.964844 1628.476562 1757.625 1637.386719 Z M 2078.261719 1958.46875 " fill-opacity="1" fill-rule="nonzero"/><path fill="#ffffff" d="M 2464.007812 2140.347656 L 1866.410156 2140.347656 C 1852.0625 2140.347656 1840.425781 2128.714844 1840.425781 2114.367188 L 1840.425781 2062.402344 C 1840.425781 2005.09375 1887.050781 1958.46875 1944.355469 1958.46875 L 2386.0625 1958.46875 C 2443.367188 1958.46875 2489.992188 2005.09375 2489.992188 2062.402344 L 2489.992188 2114.367188 C 2489.992188 2128.714844 2478.359375 2140.347656 2464.007812 2140.347656 Z M 1892.390625 2088.382812 L 2438.027344 2088.382812 L 2438.027344 2062.402344 C 2438.027344 2033.746094 2414.714844 2010.433594 2386.0625 2010.433594 L 1944.355469 2010.433594 C 1915.703125 2010.433594 1892.390625 2033.746094 1892.390625 2062.402344 Z M 1892.390625 2088.382812 " fill-opacity="1" fill-rule="nonzero"/><path fill="#ffffff" d="M 2334.097656 2010.433594 C 2319.75 2010.433594 2308.113281 1998.804688 2308.113281 1984.453125 L 2308.113281 1932.488281 C 2308.113281 1918.140625 2319.75 1906.503906 2334.097656 1906.503906 C 2348.445312 1906.503906 2360.078125 1918.140625 2360.078125 1932.488281 L 2360.078125 1984.453125 C 2360.078125 1998.804688 2348.445312 2010.433594 2334.097656 2010.433594 Z M 2334.097656 2010.433594 " fill-opacity="1" fill-rule="nonzero"/><path fill="#ffffff" d="M 1705.289062 1651.425781 C 1647.980469 1651.425781 1601.359375 1604.800781 1601.359375 1547.496094 C 1601.359375 1490.1875 1647.980469 1443.5625 1705.289062 1443.5625 C 1762.59375 1443.5625 1809.21875 1490.1875 1809.21875 1547.496094 C 1809.21875 1604.800781 1762.59375 1651.425781 1705.289062 1651.425781 Z M 1705.289062 1495.53125 C 1676.632812 1495.53125 1653.324219 1518.839844 1653.324219 1547.496094 C 1653.324219 1576.148438 1676.632812 1599.460938 1705.289062 1599.460938 C 1733.941406 1599.460938 1757.253906 1576.148438 1757.253906 1547.496094 C 1757.253906 1518.839844 1733.945312 1495.53125 1705.289062 1495.53125 Z M 1705.289062 1495.53125 " fill-opacity="1" fill-rule="nonzero"/><path fill="#ffffff" d="M 1783.097656 1569.039062 C 1769.339844 1569.039062 1757.9375 1558.28125 1757.164062 1544.515625 C 1755.679688 1518.085938 1734.628906 1497.066406 1708.203125 1495.621094 C 1697.980469 1495.058594 1689.042969 1488.546875 1685.371094 1478.988281 C 1681.699219 1469.429688 1683.988281 1458.609375 1691.207031 1451.347656 L 2084.753906 1055.824219 C 2091.769531 1048.769531 2102.195312 1046.339844 2111.613281 1049.578125 C 2121.027344 1052.8125 2127.761719 1061.132812 2128.964844 1071.011719 C 2130.894531 1086.839844 2138.339844 1101.378906 2151.195312 1112.78125 C 2157.375 1118.445312 2168.394531 1126.027344 2180.355469 1131.757812 C 2196.464844 1139.46875 2200.183594 1160.832031 2187.554688 1173.523438 L 1801.515625 1561.386719 C 1796.550781 1566.375 1789.886719 1569.039062 1783.097656 1569.039062 Z M 1758.019531 1457.871094 C 1773.15625 1466.773438 1785.820312 1479.402344 1794.761719 1494.511719 L 2127.398438 1160.292969 C 2112.804688 1149.488281 2101.351562 1137.578125 2092.285156 1121.925781 Z M 1758.019531 1457.871094 " fill-opacity="1" fill-rule="nonzero"/><path fill="#ffffff" d="M 2294.082031 1358.679688 C 2283.0625 1348.730469 2282.589844 1331.554688 2293.121094 1321.019531 L 2447.542969 1166.597656 C 2457.921875 1156.21875 2475.128906 1156.402344 2485.203125 1167.5625 C 2533.511719 1221.089844 2531.421875 1302.949219 2480.449219 1353.921875 C 2429.636719 1404.730469 2347.789062 1407.148438 2294.082031 1358.679688 Z M 2352.644531 1334.984375 C 2382.980469 1347.367188 2419.617188 1341.261719 2443.703125 1317.175781 C 2467.789062 1293.09375 2473.878906 1256.460938 2461.511719 1226.121094 Z M 2352.644531 1334.984375 " fill-opacity="1" fill-rule="nonzero"/><path fill="#ffffff" d="M 2194.527344 1191.058594 C 2165.953125 1185.6875 2132.386719 1167.707031 2111.003906 1146.324219 C 2064.953125 1100.265625 2064.941406 1025.722656 2111.003906 979.664062 C 2157.0625 933.609375 2231.601562 933.601562 2277.664062 979.664062 C 2295.605469 997.605469 2317.765625 1031.902344 2324.007812 1064.800781 C 2326.226562 1076.5 2320.214844 1088.210938 2309.414062 1093.21875 C 2272.8125 1110.199219 2241.773438 1139.183594 2222.523438 1177.253906 C 2217.238281 1187.6875 2205.746094 1193.183594 2194.527344 1191.058594 Z M 2147.75 1016.410156 C 2122.003906 1042.148438 2121.996094 1083.824219 2147.75 1109.574219 C 2157.574219 1119.402344 2172.558594 1128.8125 2186.9375 1134.699219 C 2207.03125 1102.6875 2234.613281 1075.867188 2267.28125 1056.691406 C 2260.644531 1041.167969 2250.078125 1025.570312 2240.914062 1016.410156 C 2215.167969 990.660156 2173.5 990.660156 2147.75 1016.410156 Z M 2147.75 1016.410156 " fill-opacity="1" fill-rule="nonzero"/><path fill="#ffffff" d="M 2219.882812 1431.003906 C 2127.109375 1338.230469 2127.121094 1186.117188 2219.882812 1093.359375 C 2312.660156 1000.585938 2464.765625 1000.605469 2557.523438 1093.359375 C 2567.671875 1103.507812 2567.671875 1119.957031 2557.523438 1130.105469 L 2256.628906 1431.003906 C 2246.476562 1441.152344 2230.03125 1441.152344 2219.882812 1431.003906 Z M 2256.628906 1130.105469 C 2189.113281 1197.625 2185.851562 1303.316406 2239.539062 1374.605469 L 2501.132812 1113.007812 C 2427.886719 1057.726562 2323.117188 1063.613281 2256.628906 1130.105469 Z M 2256.628906 1130.105469 " fill-opacity="1" fill-rule="nonzero"/><g clip-path="url(#6634e9e8bc)"><path fill="#ffffff" d="M 3243.402344 1561.703125 C 3243.402344 1562.945312 3243.371094 1564.1875 3243.308594 1565.429688 C 3243.25 1566.667969 3243.15625 1567.90625 3243.035156 1569.144531 C 3242.914062 1570.378906 3242.761719 1571.609375 3242.578125 1572.839844 C 3242.398438 1574.070312 3242.183594 1575.292969 3241.941406 1576.511719 C 3241.699219 1577.726562 3241.429688 1578.941406 3241.125 1580.144531 C 3240.824219 1581.347656 3240.492188 1582.546875 3240.132812 1583.734375 C 3239.773438 1584.921875 3239.382812 1586.101562 3238.964844 1587.273438 C 3238.546875 1588.441406 3238.097656 1589.597656 3237.625 1590.746094 C 3237.148438 1591.894531 3236.644531 1593.03125 3236.113281 1594.152344 C 3235.582031 1595.273438 3235.023438 1596.382812 3234.4375 1597.480469 C 3233.855469 1598.574219 3233.242188 1599.65625 3232.601562 1600.722656 C 3231.964844 1601.785156 3231.300781 1602.835938 3230.609375 1603.867188 C 3229.921875 1604.902344 3229.207031 1605.914062 3228.464844 1606.914062 C 3227.726562 1607.910156 3226.960938 1608.890625 3226.171875 1609.851562 C 3225.386719 1610.808594 3224.574219 1611.75 3223.742188 1612.671875 C 3222.90625 1613.589844 3222.050781 1614.488281 3221.171875 1615.367188 C 3220.292969 1616.246094 3219.394531 1617.101562 3218.472656 1617.9375 C 3217.554688 1618.769531 3216.613281 1619.582031 3215.652344 1620.371094 C 3214.695312 1621.15625 3213.714844 1621.921875 3212.71875 1622.660156 C 3211.71875 1623.402344 3210.703125 1624.117188 3209.671875 1624.808594 C 3208.640625 1625.496094 3207.589844 1626.160156 3206.523438 1626.800781 C 3205.460938 1627.4375 3204.378906 1628.050781 3203.285156 1628.636719 C 3202.1875 1629.222656 3201.078125 1629.78125 3199.957031 1630.308594 C 3198.832031 1630.839844 3197.699219 1631.34375 3196.550781 1631.820312 C 3195.402344 1632.296875 3194.246094 1632.742188 3193.074219 1633.160156 C 3191.90625 1633.578125 3190.726562 1633.96875 3189.539062 1634.328125 C 3188.351562 1634.691406 3187.152344 1635.019531 3185.949219 1635.324219 C 3184.742188 1635.625 3183.53125 1635.894531 3182.3125 1636.136719 C 3181.09375 1636.382812 3179.871094 1636.59375 3178.644531 1636.777344 C 3177.414062 1636.957031 3176.183594 1637.109375 3174.945312 1637.230469 C 3173.710938 1637.351562 3172.472656 1637.445312 3171.230469 1637.503906 C 3169.992188 1637.566406 3168.75 1637.597656 3167.507812 1637.597656 C 3166.265625 1637.597656 3165.023438 1637.566406 3163.785156 1637.503906 C 3162.542969 1637.445312 3161.304688 1637.351562 3160.070312 1637.230469 C 3158.832031 1637.109375 3157.601562 1636.957031 3156.371094 1636.777344 C 3155.144531 1636.59375 3153.921875 1636.382812 3152.703125 1636.136719 C 3151.484375 1635.894531 3150.273438 1635.625 3149.066406 1635.324219 C 3147.863281 1635.019531 3146.664062 1634.691406 3145.476562 1634.328125 C 3144.289062 1633.96875 3143.109375 1633.578125 3141.941406 1633.160156 C 3140.769531 1632.742188 3139.613281 1632.296875 3138.464844 1631.820312 C 3137.316406 1631.34375 3136.183594 1630.839844 3135.058594 1630.308594 C 3133.9375 1629.78125 3132.828125 1629.222656 3131.730469 1628.636719 C 3130.636719 1628.050781 3129.554688 1627.4375 3128.492188 1626.800781 C 3127.425781 1626.160156 3126.375 1625.496094 3125.34375 1624.808594 C 3124.3125 1624.117188 3123.296875 1623.402344 3122.296875 1622.660156 C 3121.300781 1621.921875 3120.320312 1621.15625 3119.363281 1620.371094 C 3118.402344 1619.582031 3117.460938 1618.769531 3116.542969 1617.9375 C 3115.621094 1617.101562 3114.722656 1616.246094 3113.84375 1615.367188 C 3112.964844 1614.488281 3112.109375 1613.589844 3111.273438 1612.671875 C 3110.441406 1611.75 3109.628906 1610.808594 3108.84375 1609.851562 C 3108.054688 1608.890625 3107.289062 1607.910156 3106.550781 1606.914062 C 3105.808594 1605.914062 3105.09375 1604.902344 3104.40625 1603.867188 C 3103.714844 1602.835938 3103.050781 1601.785156 3102.414062 1600.722656 C 3101.773438 1599.65625 3101.160156 1598.574219 3100.578125 1597.480469 C 3099.992188 1596.382812 3099.433594 1595.273438 3098.902344 1594.152344 C 3098.371094 1593.03125 3097.867188 1591.894531 3097.390625 1590.746094 C 3096.917969 1589.597656 3096.46875 1588.441406 3096.050781 1587.273438 C 3095.632812 1586.101562 3095.242188 1584.921875 3094.882812 1583.734375 C 3094.523438 1582.546875 3094.191406 1581.347656 3093.890625 1580.144531 C 3093.585938 1578.941406 3093.316406 1577.726562 3093.074219 1576.511719 C 3092.832031 1575.292969 3092.617188 1574.070312 3092.4375 1572.839844 C 3092.253906 1571.609375 3092.101562 1570.378906 3091.980469 1569.144531 C 3091.859375 1567.90625 3091.765625 1566.667969 3091.707031 1565.429688 C 3091.644531 1564.1875 3091.613281 1562.945312 3091.613281 1561.703125 C 3091.613281 1560.460938 3091.644531 1559.222656 3091.707031 1557.980469 C 3091.765625 1556.738281 3091.859375 1555.5 3091.980469 1554.265625 C 3092.101562 1553.027344 3092.253906 1551.796875 3092.4375 1550.570312 C 3092.617188 1549.339844 3092.832031 1548.117188 3093.074219 1546.898438 C 3093.316406 1545.679688 3093.585938 1544.46875 3093.890625 1543.265625 C 3094.191406 1542.058594 3094.523438 1540.863281 3094.882812 1539.671875 C 3095.242188 1538.484375 3095.632812 1537.304688 3096.050781 1536.136719 C 3096.46875 1534.96875 3096.917969 1533.808594 3097.390625 1532.660156 C 3097.867188 1531.515625 3098.371094 1530.378906 3098.902344 1529.253906 C 3099.433594 1528.132812 3099.992188 1527.023438 3100.578125 1525.929688 C 3101.160156 1524.832031 3101.773438 1523.753906 3102.414062 1522.6875 C 3103.050781 1521.621094 3103.714844 1520.574219 3104.40625 1519.539062 C 3105.09375 1518.507812 3105.808594 1517.492188 3106.550781 1516.496094 C 3107.289062 1515.496094 3108.054688 1514.519531 3108.84375 1513.558594 C 3109.628906 1512.597656 3110.441406 1511.65625 3111.273438 1510.738281 C 3112.109375 1509.816406 3112.964844 1508.917969 3113.84375 1508.039062 C 3114.722656 1507.160156 3115.621094 1506.304688 3116.542969 1505.472656 C 3117.460938 1504.636719 3118.402344 1503.828125 3119.363281 1503.039062 C 3120.320312 1502.25 3121.300781 1501.488281 3122.296875 1500.746094 C 3123.296875 1500.007812 3124.3125 1499.292969 3125.34375 1498.601562 C 3126.375 1497.910156 3127.425781 1497.246094 3128.492188 1496.609375 C 3129.554688 1495.96875 3130.636719 1495.359375 3131.730469 1494.773438 C 3132.828125 1494.1875 3133.9375 1493.628906 3135.058594 1493.097656 C 3136.183594 1492.566406 3137.316406 1492.0625 3138.464844 1491.589844 C 3139.613281 1491.113281 3140.769531 1490.667969 3141.941406 1490.246094 C 3143.109375 1489.828125 3144.289062 1489.441406 3145.476562 1489.078125 C 3146.664062 1488.71875 3147.863281 1488.386719 3149.066406 1488.085938 C 3150.273438 1487.785156 3151.484375 1487.511719 3152.703125 1487.269531 C 3153.921875 1487.027344 3155.144531 1486.816406 3156.371094 1486.632812 C 3157.601562 1486.449219 3158.832031 1486.296875 3160.070312 1486.175781 C 3161.304688 1486.054688 3162.542969 1485.964844 3163.785156 1485.902344 C 3165.023438 1485.84375 3166.265625 1485.8125 3167.507812 1485.8125 C 3168.75 1485.8125 3169.992188 1485.84375 3171.230469 1485.902344 C 3172.472656 1485.964844 3173.710938 1486.054688 3174.945312 1486.175781 C 3176.183594 1486.296875 3177.414062 1486.449219 3178.644531 1486.632812 C 3179.871094 1486.816406 3181.09375 1487.027344 3182.3125 1487.269531 C 3183.53125 1487.511719 3184.742188 1487.785156 3185.949219 1488.085938 C 3187.152344 1488.386719 3188.351562 1488.71875 3189.539062 1489.078125 C 3190.726562 1489.441406 3191.90625 1489.828125 3193.074219 1490.246094 C 3194.246094 1490.667969 3195.402344 1491.113281 3196.550781 1491.589844 C 3197.699219 1492.0625 3198.832031 1492.566406 3199.957031 1493.097656 C 3201.078125 1493.628906 3202.1875 1494.1875 3203.285156 1494.773438 C 3204.378906 1495.359375 3205.460938 1495.96875 3206.523438 1496.609375 C 3207.589844 1497.246094 3208.640625 1497.910156 3209.671875 1498.601562 C 3210.703125 1499.292969 3211.71875 1500.007812 3212.71875 1500.746094 C 3213.714844 1501.488281 3214.695312 1502.25 3215.652344 1503.039062 C 3216.613281 1503.828125 3217.554688 1504.636719 3218.472656 1505.472656 C 3219.394531 1506.304688 3220.292969 1507.160156 3221.171875 1508.039062 C 3222.050781 1508.917969 3222.90625 1509.816406 3223.742188 1510.738281 C 3224.574219 1511.65625 3225.386719 1512.597656 3226.171875 1513.558594 C 3226.960938 1514.519531 3227.726562 1515.496094 3228.464844 1516.496094 C 3229.207031 1517.492188 3229.921875 1518.507812 3230.609375 1519.539062 C 3231.300781 1520.574219 3231.964844 1521.621094 3232.601562 1522.6875 C 3233.242188 1523.753906 3233.855469 1524.832031 3234.4375 1525.929688 C 3235.023438 1527.023438 3235.582031 1528.132812 3236.113281 1529.253906 C 3236.644531 1530.378906 3237.148438 1531.515625 3237.625 1532.660156 C 3238.097656 1533.808594 3238.546875 1534.96875 3238.964844 1536.136719 C 3239.382812 1537.304688 3239.773438 1538.484375 3240.132812 1539.671875 C 3240.492188 1540.863281 3240.824219 1542.058594 3241.125 1543.265625 C 3241.429688 1544.46875 3241.699219 1545.679688 3241.941406 1546.898438 C 3242.183594 1548.117188 3242.398438 1549.339844 3242.578125 1550.566406 C 3242.761719 1551.796875 3242.914062 1553.027344 3243.035156 1554.265625 C 3243.15625 1555.5 3243.25 1556.738281 3243.308594 1557.980469 C 3243.371094 1559.222656 3243.402344 1560.460938 3243.402344 1561.703125 Z M 3243.402344 1561.703125 " fill-opacity="1" fill-rule="nonzero"/></g><path fill="#ffffff" d="M 3119.4375 1954.523438 L 3095.257812 2091.609375 C 3094.28125 2097.136719 3091.914062 2102.324219 3088.378906 2106.679688 L 3006.59375 2207.457031 C 2991.222656 2226.394531 2992.410156 2254.753906 3010.882812 2270.6875 C 3029.992188 2287.171875 3058.800781 2284.503906 3074.59375 2265.046875 L 3172.492188 2143.289062 C 3175.976562 2138.957031 3178.308594 2133.8125 3179.273438 2128.335938 L 3185.089844 2095.363281 Z M 3119.4375 1954.523438 " fill-opacity="1" fill-rule="nonzero"/><path fill="#ffffff" d="M 3354.890625 1865.921875 L 3251.980469 1828.46875 L 3251.980469 1888.375 C 3251.980469 1890.609375 3251.847656 1892.824219 3251.652344 1895.027344 L 3334.710938 1925.296875 C 3351.933594 1931.566406 3371.085938 1921.796875 3375.804688 1903.617188 C 3379.917969 1887.769531 3370.273438 1871.523438 3354.890625 1865.921875 Z M 3354.890625 1865.921875 " fill-opacity="1" fill-rule="nonzero"/><path fill="#ffffff" d="M 3311.875 2229.109375 L 3285.90625 2083.003906 C 3285.402344 2080.175781 3284.53125 2077.425781 3283.316406 2074.824219 L 3219.859375 1938.851562 C 3234.238281 1926.742188 3243.402344 1908.628906 3243.402344 1888.375 L 3243.402344 1723.324219 C 3243.402344 1686.894531 3213.835938 1657.394531 3177.40625 1657.394531 L 3157.609375 1657.394531 C 3121.113281 1657.394531 3091.613281 1686.894531 3091.613281 1723.324219 L 3091.613281 1734.65625 L 3117.519531 1690.703125 C 3124.683594 1678.589844 3137.867188 1671.070312 3151.945312 1671.070312 C 3159.058594 1671.070312 3166.074219 1672.992188 3172.226562 1676.625 C 3191.175781 1687.816406 3197.503906 1712.34375 3186.332031 1731.300781 L 3132.992188 1821.570312 C 3131.5 1824.105469 3130.480469 1826.859375 3129.972656 1829.753906 L 3111.347656 1935.363281 C 3115.34375 1939.289062 3119.828125 1942.71875 3124.714844 1945.539062 L 3197.933594 2102.605469 C 3199.148438 2105.214844 3200.019531 2107.972656 3200.519531 2110.8125 L 3224.132812 2244.589844 C 3228.417969 2268.820312 3251.53125 2284.984375 3275.757812 2280.703125 C 3299.972656 2276.421875 3316.140625 2253.328125 3311.875 2229.109375 Z M 3311.875 2229.109375 " fill-opacity="1" fill-rule="nonzero"/><path fill="#ffffff" d="M 3167.863281 1684.011719 C 3152.953125 1675.207031 3133.726562 1680.152344 3124.914062 1695.058594 L 3065.539062 1795.800781 C 3063.527344 1799.214844 3062.144531 1802.964844 3061.460938 1806.867188 L 3036.46875 1949.585938 C 3033.285156 1967.636719 3046.230469 1984.800781 3064.953125 1986.289062 C 3081.273438 1987.589844 3095.601562 1975.269531 3098.441406 1959.148438 L 3121.519531 1828.265625 C 3122.207031 1824.363281 3123.59375 1820.621094 3125.609375 1817.207031 L 3178.941406 1726.949219 C 3187.730469 1712.03125 3182.773438 1692.816406 3167.863281 1684.011719 Z M 3167.863281 1684.011719 " fill-opacity="1" fill-rule="nonzero"/><g fill="#ffffff" fill-opacity="1"><g transform="translate(1918.074369, 751.358729)"><g><path d="M 149.1875 -12.171875 C 154 -12.171875 156.40625 -10.285156 156.40625 -6.515625 C 156.40625 -4.816406 155.367188 -3.304688 153.296875 -1.984375 C 151.222656 -0.660156 147.632812 0 142.53125 0 L 22.640625 0 L 22.640625 -200.296875 C 59.828125 -200.296875 97.007812 -200.296875 134.1875 -200.296875 L 145.796875 -200.71875 C 152.867188 -200.71875 156.40625 -198.640625 156.40625 -194.484375 C 156.40625 -192.878906 155.816406 -191.390625 154.640625 -190.015625 C 153.460938 -188.648438 152.117188 -187.96875 150.609375 -187.96875 C 148.148438 -187.96875 145.554688 -188.253906 142.828125 -188.828125 C 138.765625 -189.671875 133.195312 -190.09375 126.125 -190.09375 L 94.84375 -190.09375 L 94.84375 -146.921875 L 120.59375 -146.921875 C 120.59375 -146.921875 126.398438 -147.160156 138.015625 -147.640625 C 140.085938 -147.640625 141.851562 -147.140625 143.3125 -146.140625 C 144.78125 -145.148438 145.515625 -143.757812 145.515625 -141.96875 C 145.515625 -138.007812 142.867188 -136.03125 137.578125 -136.03125 L 131.5 -136.171875 C 128.382812 -136.453125 125.789062 -136.59375 123.71875 -136.59375 L 94.84375 -136.59375 L 94.84375 -10.328125 L 126.125 -10.328125 C 133.101562 -10.328125 138.054688 -10.613281 140.984375 -11.1875 C 144.472656 -11.84375 147.207031 -12.171875 149.1875 -12.171875 Z M 149.1875 -12.171875 "/></g></g><g transform="translate(2087.361601, 751.358729)"><g><path d="M 25.046875 -10.1875 C 21.742188 -12.070312 18.890625 -14.050781 16.484375 -16.125 C 14.078125 -18.207031 12.875 -20.429688 12.875 -22.796875 C 12.875 -27.316406 14.8125 -29.578125 18.6875 -29.578125 C 21.226562 -29.578125 24.054688 -28.160156 27.171875 -25.328125 C 30.285156 -22.503906 33.773438 -20.03125 37.640625 -17.90625 C 41.515625 -15.78125 45.71875 -13.960938 50.25 -12.453125 C 59.59375 -9.335938 68.226562 -7.78125 76.15625 -7.78125 C 84.082031 -7.78125 90.191406 -8.300781 94.484375 -9.34375 C 98.773438 -10.382812 102.382812 -11.800781 105.3125 -13.59375 C 111.539062 -17.457031 114.65625 -22.410156 114.65625 -28.453125 C 114.65625 -34.015625 111.960938 -39.628906 106.578125 -45.296875 C 102.054688 -50.109375 95.640625 -55.863281 87.328125 -62.5625 L 63.125 -81.53125 C 38.875 -100.21875 24.578125 -117.296875 20.234375 -132.765625 C 18.734375 -138.148438 17.984375 -144.144531 17.984375 -150.75 C 17.984375 -157.351562 19.46875 -163.863281 22.4375 -170.28125 C 25.40625 -176.695312 29.816406 -182.3125 35.671875 -187.125 C 48.222656 -197.601562 65.300781 -202.84375 86.90625 -202.84375 C 97.945312 -202.84375 107.851562 -201.210938 116.625 -197.953125 C 125.40625 -194.703125 131.398438 -191.800781 134.609375 -189.25 C 137.816406 -186.695312 139.421875 -184.382812 139.421875 -182.3125 C 139.421875 -177.96875 137.628906 -175.796875 134.046875 -175.796875 C 131.972656 -175.796875 129.753906 -176.832031 127.390625 -178.90625 C 125.035156 -180.988281 122.414062 -182.804688 119.53125 -184.359375 C 116.65625 -185.921875 113.378906 -187.316406 109.703125 -188.546875 C 101.773438 -191.179688 93.988281 -192.5 86.34375 -192.5 C 72.28125 -192.5 65.25 -187.878906 65.25 -178.640625 C 65.25 -174.765625 66.523438 -171.175781 69.078125 -167.875 C 73.609375 -162.113281 82.453125 -153.878906 95.609375 -143.171875 C 108.773438 -132.460938 119.34375 -123.097656 127.3125 -115.078125 C 135.289062 -107.054688 141.359375 -99.835938 145.515625 -93.421875 C 152.117188 -83.328125 155.421875 -72.828125 155.421875 -61.921875 C 155.421875 -51.023438 153.507812 -41.78125 149.6875 -34.1875 C 145.863281 -26.59375 140.507812 -20.054688 133.625 -14.578125 C 119.09375 -3.066406 101.066406 2.6875 79.546875 2.6875 C 58.035156 2.6875 39.867188 -1.601562 25.046875 -10.1875 Z M 25.046875 -10.1875 "/></g></g><g transform="translate(2255.799565, 751.358729)"><g><path d="M 149.1875 -12.171875 C 154 -12.171875 156.40625 -10.285156 156.40625 -6.515625 C 156.40625 -4.816406 155.367188 -3.304688 153.296875 -1.984375 C 151.222656 -0.660156 147.632812 0 142.53125 0 L 22.640625 0 L 22.640625 -200.296875 C 59.828125 -200.296875 97.007812 -200.296875 134.1875 -200.296875 L 145.796875 -200.71875 C 152.867188 -200.71875 156.40625 -198.640625 156.40625 -194.484375 C 156.40625 -192.878906 155.816406 -191.390625 154.640625 -190.015625 C 153.460938 -188.648438 152.117188 -187.96875 150.609375 -187.96875 C 148.148438 -187.96875 145.554688 -188.253906 142.828125 -188.828125 C 138.765625 -189.671875 133.195312 -190.09375 126.125 -190.09375 L 94.84375 -190.09375 L 94.84375 -146.921875 L 120.59375 -146.921875 C 120.59375 -146.921875 126.398438 -147.160156 138.015625 -147.640625 C 140.085938 -147.640625 141.851562 -147.140625 143.3125 -146.140625 C 144.78125 -145.148438 145.515625 -143.757812 145.515625 -141.96875 C 145.515625 -138.007812 142.867188 -136.03125 137.578125 -136.03125 L 131.5 -136.171875 C 128.382812 -136.453125 125.789062 -136.59375 123.71875 -136.59375 L 94.84375 -136.59375 L 94.84375 -10.328125 L 126.125 -10.328125 C 133.101562 -10.328125 138.054688 -10.613281 140.984375 -11.1875 C 144.472656 -11.84375 147.207031 -12.171875 149.1875 -12.171875 Z M 149.1875 -12.171875 "/></g></g><g transform="translate(2425.086797, 751.358729)"><g><path d="M 46 -25.546875 C 36.65625 -34.648438 29.222656 -45.691406 23.703125 -58.671875 C 18.179688 -71.648438 15.421875 -85.804688 15.421875 -101.140625 C 15.421875 -116.472656 18.039062 -130.25 23.28125 -142.46875 C 28.519531 -154.6875 35.765625 -165.28125 45.015625 -174.25 C 64.828125 -193.3125 89.691406 -202.84375 119.609375 -202.84375 C 149.335938 -202.84375 173.679688 -193.453125 192.640625 -174.671875 C 211.890625 -155.609375 221.515625 -130.882812 221.515625 -100.5 C 221.515625 -70.207031 211.65625 -45.296875 191.9375 -25.765625 C 179.570312 -13.679688 164.378906 -5.328125 146.359375 -0.703125 C 137.390625 1.554688 126.984375 2.6875 115.140625 2.6875 C 103.304688 2.6875 91.160156 0.257812 78.703125 -4.59375 C 66.242188 -9.457031 55.34375 -16.441406 46 -25.546875 Z M 119.46875 -192.5 C 114.28125 -192.5 109.421875 -192.125 104.890625 -191.375 L 104.890625 -8.78125 C 109.222656 -8.019531 114.082031 -7.640625 119.46875 -7.640625 C 144.664062 -7.640625 165.894531 -16.039062 183.15625 -32.84375 C 201.1875 -50.300781 210.203125 -72.851562 210.203125 -100.5 C 210.203125 -126.820312 201.753906 -148.710938 184.859375 -166.171875 C 167.773438 -183.722656 145.976562 -192.5 119.46875 -192.5 Z M 119.46875 -192.5 "/></g></g><g transform="translate(2661.890756, 751.358729)"><g/></g><g transform="translate(2726.435052, 751.358729)"><g><path d="M 146.359375 -12.875 C 151.359375 -12.875 153.859375 -10.753906 153.859375 -6.515625 C 153.859375 -4.816406 152.84375 -3.304688 150.8125 -1.984375 C 148.789062 -0.660156 145.179688 0 139.984375 0 L 25.046875 0 L 25.046875 -200.296875 L 97.25 -200.296875 L 97.25 -9.34375 L 123.71875 -9.34375 C 129.65625 -9.34375 134.769531 -9.929688 139.0625 -11.109375 C 143.363281 -12.285156 145.796875 -12.875 146.359375 -12.875 Z M 146.359375 -12.875 "/></g></g><g transform="translate(2882.275555, 751.358729)"><g><path d="M 149.1875 -12.171875 C 154 -12.171875 156.40625 -10.285156 156.40625 -6.515625 C 156.40625 -4.816406 155.367188 -3.304688 153.296875 -1.984375 C 151.222656 -0.660156 147.632812 0 142.53125 0 L 22.640625 0 L 22.640625 -200.296875 C 59.828125 -200.296875 97.007812 -200.296875 134.1875 -200.296875 L 145.796875 -200.71875 C 152.867188 -200.71875 156.40625 -198.640625 156.40625 -194.484375 C 156.40625 -192.878906 155.816406 -191.390625 154.640625 -190.015625 C 153.460938 -188.648438 152.117188 -187.96875 150.609375 -187.96875 C 148.148438 -187.96875 145.554688 -188.253906 142.828125 -188.828125 C 138.765625 -189.671875 133.195312 -190.09375 126.125 -190.09375 L 94.84375 -190.09375 L 94.84375 -146.921875 L 120.59375 -146.921875 C 120.59375 -146.921875 126.398438 -147.160156 138.015625 -147.640625 C 140.085938 -147.640625 141.851562 -147.140625 143.3125 -146.140625 C 144.78125 -145.148438 145.515625 -143.757812 145.515625 -141.96875 C 145.515625 -138.007812 142.867188 -136.03125 137.578125 -136.03125 L 131.5 -136.171875 C 128.382812 -136.453125 125.789062 -136.59375 123.71875 -136.59375 L 94.84375 -136.59375 L 94.84375 -10.328125 L 126.125 -10.328125 C 133.101562 -10.328125 138.054688 -10.613281 140.984375 -11.1875 C 144.472656 -11.84375 147.207031 -12.171875 149.1875 -12.171875 Z M 149.1875 -12.171875 "/></g></g><g transform="translate(3051.562787, 751.358729)"><g><path d="M 25.046875 -200.296875 L 83.9375 -200.296875 C 111.394531 -200.296875 131.539062 -198.359375 144.375 -194.484375 C 159 -189.953125 170.296875 -184.144531 178.265625 -177.0625 C 186.242188 -169.988281 192.5 -162.679688 197.03125 -155.140625 C 206.28125 -139.753906 210.90625 -122.296875 210.90625 -102.765625 C 210.90625 -72.003906 199.863281 -47.09375 177.78125 -28.03125 C 162.113281 -14.34375 143.664062 -5.894531 122.4375 -2.6875 C 110.644531 -0.894531 94.128906 0 72.890625 0 L 25.046875 0 Z M 97.25 -11.75 C 98.757812 -11.65625 100.125 -11.609375 101.34375 -11.609375 L 104.609375 -11.609375 C 130.179688 -11.609375 152.023438 -19.582031 170.140625 -35.53125 C 189.296875 -52.320312 198.875 -74.640625 198.875 -102.484375 C 198.875 -120.035156 194.675781 -135.84375 186.28125 -149.90625 C 174.101562 -170.375 154.851562 -182.78125 128.53125 -187.125 C 119.9375 -188.539062 109.507812 -189.34375 97.25 -189.53125 Z M 97.25 -11.75 "/></g></g></g></svg>