<svg xmlns="http://www.w3.org/2000/svg" xmlns:xlink="http://www.w3.org/1999/xlink" width="6912" zoomAndPan="magnify" viewBox="0 0 5184 2592.000001" height="3456" preserveAspectRatio="xMidYMid meet" version="1.0"><defs><g/><clipPath id="5ceb59eca0"><path d="M 1617.242188 320.742188 L 3566.757812 320.742188 L 3566.757812 2270.257812 L 1617.242188 2270.257812 Z M 1617.242188 320.742188 " clip-rule="nonzero"/></clipPath><clipPath id="7d406bc120"><path d="M 1738.695312 320.742188 L 3445.304688 320.742188 C 3512.382812 320.742188 3566.757812 375.121094 3566.757812 442.195312 L 3566.757812 2148.804688 C 3566.757812 2215.882812 3512.382812 2270.257812 3445.304688 2270.257812 L 1738.695312 2270.257812 C 1671.617188 2270.257812 1617.242188 2215.882812 1617.242188 2148.804688 L 1617.242188 442.195312 C 1617.242188 375.121094 1671.617188 320.742188 1738.695312 320.742188 Z M 1738.695312 320.742188 " clip-rule="nonzero"/></clipPath><clipPath id="504612b0ff"><path d="M 2880 1781 L 3790 1781 L 3790 1963.957031 L 2880 1963.957031 Z M 2880 1781 " clip-rule="nonzero"/></clipPath></defs><g clip-path="url(#5ceb59eca0)"><g clip-path="url(#7d406bc120)"><path fill="#ffca05" d="M 1617.242188 320.742188 L 3566.757812 320.742188 L 3566.757812 2270.257812 L 1617.242188 2270.257812 Z M 1617.242188 320.742188 " fill-opacity="1" fill-rule="nonzero"/></g></g><g clip-path="url(#504612b0ff)"><path fill="#ffffff" d="M 3763.851562 1963.78125 L 2906.425781 1963.78125 C 2892.078125 1963.78125 2880.441406 1952.148438 2880.441406 1937.800781 C 2880.441406 1851.839844 2950.378906 1781.902344 3036.339844 1781.902344 L 3633.9375 1781.902344 C 3719.898438 1781.902344 3789.835938 1851.839844 3789.835938 1937.800781 C 3789.835938 1952.148438 3778.203125 1963.78125 3763.851562 1963.78125 Z M 2935.699219 1911.816406 L 3734.582031 1911.816406 C 3723.019531 1867.039062 3682.28125 1833.867188 3633.941406 1833.867188 L 3036.339844 1833.867188 C 2988 1833.867188 2947.261719 1867.039062 2935.699219 1911.816406 Z M 2935.699219 1911.816406 " fill-opacity="1" fill-rule="nonzero"/></g><path fill="#ffffff" d="M 3723.863281 1157.679688 L 3687.117188 1120.933594 C 3676.972656 1110.785156 3676.972656 1094.335938 3687.117188 1084.1875 C 3697.273438 1074.042969 3713.71875 1074.046875 3723.863281 1084.1875 L 3760.609375 1120.933594 C 3770.757812 1131.082031 3770.757812 1147.53125 3760.609375 1157.679688 C 3750.457031 1167.828125 3734.015625 1167.824219 3723.863281 1157.679688 Z M 3723.863281 1157.679688 " fill-opacity="1" fill-rule="nonzero"/><path fill="#ffffff" d="M 3794.429688 1022.789062 L 3742.464844 1022.789062 C 3728.117188 1022.789062 3716.484375 1011.15625 3716.484375 996.808594 C 3716.484375 982.460938 3728.117188 970.824219 3742.464844 970.824219 L 3794.429688 970.824219 C 3808.78125 970.824219 3820.414062 982.460938 3820.414062 996.808594 C 3820.414062 1011.15625 3808.777344 1022.789062 3794.429688 1022.789062 Z M 3794.429688 1022.789062 " fill-opacity="1" fill-rule="nonzero"/><path fill="#ffffff" d="M 3608.144531 1225.894531 C 3593.796875 1225.894531 3582.160156 1214.261719 3582.160156 1199.910156 L 3582.160156 1147.945312 C 3582.160156 1133.597656 3593.796875 1121.960938 3608.144531 1121.960938 C 3622.492188 1121.960938 3634.125 1133.597656 3634.125 1147.945312 L 3634.125 1199.910156 C 3634.125 1214.257812 3622.492188 1225.894531 3608.144531 1225.894531 Z M 3608.144531 1225.894531 " fill-opacity="1" fill-rule="nonzero"/><path fill="#ffffff" d="M 3387.078125 1703.957031 L 3237.414062 1703.957031 C 3230.519531 1703.957031 3223.90625 1701.210938 3219.03125 1696.332031 L 2860.4375 1337.230469 C 2853.164062 1329.949219 2850.875 1319.0625 2854.601562 1309.46875 C 2858.328125 1299.875 2867.359375 1293.382812 2877.640625 1292.917969 C 2904.269531 1291.703125 2925.523438 1270.726562 2927.078125 1244.121094 C 2927.675781 1233.914062 2934.199219 1225.003906 2943.753906 1221.363281 C 2953.3125 1217.710938 2964.105469 1220.011719 2971.351562 1227.230469 L 3405.414062 1659.5625 C 3412.867188 1666.988281 3415.109375 1678.171875 3411.089844 1687.890625 C 3407.078125 1697.617188 3397.597656 1703.957031 3387.078125 1703.957031 Z M 3248.191406 1651.992188 L 3324.175781 1651.992188 L 2964.738281 1293.984375 C 2955.71875 1309.265625 2942.894531 1321.996094 2927.554688 1330.90625 Z M 3248.191406 1651.992188 " fill-opacity="1" fill-rule="nonzero"/><path fill="#ffffff" d="M 3633.9375 1833.867188 L 3036.339844 1833.867188 C 3021.992188 1833.867188 3010.355469 1822.238281 3010.355469 1807.886719 L 3010.355469 1755.921875 C 3010.355469 1698.613281 3056.980469 1651.992188 3114.285156 1651.992188 L 3555.992188 1651.992188 C 3613.296875 1651.992188 3659.921875 1698.613281 3659.921875 1755.921875 L 3659.921875 1807.886719 C 3659.921875 1822.238281 3648.289062 1833.867188 3633.9375 1833.867188 Z M 3062.320312 1781.902344 L 3607.957031 1781.902344 L 3607.957031 1755.921875 C 3607.957031 1727.265625 3584.644531 1703.957031 3555.992188 1703.957031 L 3114.285156 1703.957031 C 3085.632812 1703.957031 3062.320312 1727.265625 3062.320312 1755.921875 Z M 3062.320312 1781.902344 " fill-opacity="1" fill-rule="nonzero"/><path fill="#ffffff" d="M 3504.027344 1703.957031 C 3489.679688 1703.957031 3478.042969 1692.324219 3478.042969 1677.972656 L 3478.042969 1626.007812 C 3478.042969 1611.660156 3489.679688 1600.023438 3504.027344 1600.023438 C 3518.375 1600.023438 3530.007812 1611.660156 3530.007812 1626.007812 L 3530.007812 1677.972656 C 3530.007812 1692.324219 3518.375 1703.957031 3504.027344 1703.957031 Z M 3504.027344 1703.957031 " fill-opacity="1" fill-rule="nonzero"/><path fill="#ffffff" d="M 2875.21875 1344.945312 C 2817.910156 1344.945312 2771.285156 1298.324219 2771.285156 1241.015625 C 2771.285156 1183.707031 2817.910156 1137.085938 2875.21875 1137.085938 C 2932.523438 1137.085938 2979.148438 1183.707031 2979.148438 1241.015625 C 2979.148438 1298.324219 2932.523438 1344.945312 2875.21875 1344.945312 Z M 2875.21875 1189.050781 C 2846.5625 1189.050781 2823.253906 1212.363281 2823.253906 1241.015625 C 2823.253906 1269.667969 2846.5625 1292.980469 2875.21875 1292.980469 C 2903.871094 1292.980469 2927.183594 1269.667969 2927.183594 1241.015625 C 2927.183594 1212.363281 2903.875 1189.050781 2875.21875 1189.050781 Z M 2875.21875 1189.050781 " fill-opacity="1" fill-rule="nonzero"/><path fill="#ffffff" d="M 2953.027344 1262.558594 C 2939.265625 1262.558594 2927.867188 1251.804688 2927.09375 1238.035156 C 2925.609375 1211.609375 2904.558594 1190.589844 2878.132812 1189.140625 C 2867.910156 1188.578125 2858.96875 1182.066406 2855.300781 1172.507812 C 2851.628906 1162.949219 2853.917969 1152.128906 2861.136719 1144.871094 L 3254.683594 749.34375 C 3261.699219 742.289062 3272.125 739.863281 3281.542969 743.101562 C 3290.957031 746.332031 3297.691406 754.652344 3298.894531 764.53125 C 3300.824219 780.363281 3308.265625 794.902344 3321.125 806.300781 C 3327.304688 811.964844 3338.324219 819.546875 3350.285156 825.277344 C 3366.394531 832.988281 3370.113281 854.351562 3357.484375 867.042969 L 2971.445312 1254.910156 C 2966.480469 1259.898438 2959.816406 1262.558594 2953.027344 1262.558594 Z M 2927.949219 1151.394531 C 2943.085938 1160.296875 2955.75 1172.921875 2964.691406 1188.03125 L 3297.328125 853.8125 C 3282.734375 843.011719 3271.28125 831.101562 3262.214844 815.445312 Z M 2927.949219 1151.394531 " fill-opacity="1" fill-rule="nonzero"/><path fill="#ffffff" d="M 3464.011719 1052.203125 C 3452.992188 1042.25 3452.519531 1025.074219 3463.046875 1014.539062 L 3617.472656 860.117188 C 3627.851562 849.738281 3645.058594 849.921875 3655.132812 861.082031 C 3703.441406 914.609375 3701.351562 996.46875 3650.378906 1047.441406 C 3599.566406 1098.25 3517.71875 1100.667969 3464.011719 1052.203125 Z M 3522.574219 1028.507812 C 3552.910156 1040.886719 3589.546875 1034.78125 3613.632812 1010.699219 C 3637.71875 986.613281 3643.808594 949.980469 3631.441406 919.640625 Z M 3522.574219 1028.507812 " fill-opacity="1" fill-rule="nonzero"/><path fill="#ffffff" d="M 3364.457031 884.582031 C 3335.882812 879.207031 3302.316406 861.226562 3280.933594 839.84375 C 3234.882812 793.785156 3234.871094 719.246094 3280.933594 673.183594 C 3326.992188 627.128906 3401.53125 627.125 3447.59375 673.183594 C 3465.535156 691.125 3487.691406 725.421875 3493.9375 758.324219 C 3496.15625 770.019531 3490.144531 781.730469 3479.34375 786.738281 C 3442.742188 803.71875 3411.703125 832.707031 3392.453125 870.773438 C 3387.167969 881.207031 3375.675781 886.703125 3364.457031 884.582031 Z M 3317.679688 709.929688 C 3291.933594 735.667969 3291.925781 777.34375 3317.679688 803.097656 C 3327.503906 812.921875 3342.488281 822.332031 3356.867188 828.21875 C 3376.960938 796.207031 3404.542969 769.390625 3437.210938 750.214844 C 3430.574219 734.6875 3420.007812 719.089844 3410.84375 709.929688 C 3385.097656 684.179688 3343.429688 684.179688 3317.679688 709.929688 Z M 3317.679688 709.929688 " fill-opacity="1" fill-rule="nonzero"/><path fill="#ffffff" d="M 3389.8125 1124.523438 C 3297.039062 1031.75 3297.050781 879.636719 3389.8125 786.878906 C 3482.589844 694.105469 3634.695312 694.125 3727.453125 786.878906 C 3737.597656 797.027344 3737.597656 813.480469 3727.453125 823.625 L 3426.558594 1124.523438 C 3416.40625 1134.671875 3399.960938 1134.671875 3389.8125 1124.523438 Z M 3426.558594 823.628906 C 3359.042969 891.144531 3355.78125 996.835938 3409.46875 1068.125 L 3671.0625 806.527344 C 3597.816406 751.246094 3493.046875 757.136719 3426.558594 823.628906 Z M 3426.558594 823.628906 " fill-opacity="1" fill-rule="nonzero"/><g fill="#ffffff" fill-opacity="1"><g transform="translate(938.818744, 1382.841539)"><g><path d="M 149.1875 -12.171875 C 154 -12.171875 156.40625 -10.285156 156.40625 -6.515625 C 156.40625 -4.816406 155.367188 -3.304688 153.296875 -1.984375 C 151.222656 -0.660156 147.632812 0 142.53125 0 L 22.640625 0 L 22.640625 -200.296875 C 59.828125 -200.296875 97.007812 -200.296875 134.1875 -200.296875 L 145.796875 -200.71875 C 152.867188 -200.71875 156.40625 -198.640625 156.40625 -194.484375 C 156.40625 -192.878906 155.816406 -191.390625 154.640625 -190.015625 C 153.460938 -188.648438 152.117188 -187.96875 150.609375 -187.96875 C 148.148438 -187.96875 145.554688 -188.253906 142.828125 -188.828125 C 138.765625 -189.671875 133.195312 -190.09375 126.125 -190.09375 L 94.84375 -190.09375 L 94.84375 -146.921875 L 120.59375 -146.921875 C 120.59375 -146.921875 126.398438 -147.160156 138.015625 -147.640625 C 140.085938 -147.640625 141.851562 -147.140625 143.3125 -146.140625 C 144.78125 -145.148438 145.515625 -143.757812 145.515625 -141.96875 C 145.515625 -138.007812 142.867188 -136.03125 137.578125 -136.03125 L 131.5 -136.171875 C 128.382812 -136.453125 125.789062 -136.59375 123.71875 -136.59375 L 94.84375 -136.59375 L 94.84375 -10.328125 L 126.125 -10.328125 C 133.101562 -10.328125 138.054688 -10.613281 140.984375 -11.1875 C 144.472656 -11.84375 147.207031 -12.171875 149.1875 -12.171875 Z M 149.1875 -12.171875 "/></g></g><g transform="translate(1108.105976, 1382.841539)"><g><path d="M 25.046875 -10.1875 C 21.742188 -12.070312 18.890625 -14.050781 16.484375 -16.125 C 14.078125 -18.207031 12.875 -20.429688 12.875 -22.796875 C 12.875 -27.316406 14.8125 -29.578125 18.6875 -29.578125 C 21.226562 -29.578125 24.054688 -28.160156 27.171875 -25.328125 C 30.285156 -22.503906 33.773438 -20.03125 37.640625 -17.90625 C 41.515625 -15.78125 45.71875 -13.960938 50.25 -12.453125 C 59.59375 -9.335938 68.226562 -7.78125 76.15625 -7.78125 C 84.082031 -7.78125 90.191406 -8.300781 94.484375 -9.34375 C 98.773438 -10.382812 102.382812 -11.800781 105.3125 -13.59375 C 111.539062 -17.457031 114.65625 -22.410156 114.65625 -28.453125 C 114.65625 -34.015625 111.960938 -39.628906 106.578125 -45.296875 C 102.054688 -50.109375 95.640625 -55.863281 87.328125 -62.5625 L 63.125 -81.53125 C 38.875 -100.21875 24.578125 -117.296875 20.234375 -132.765625 C 18.734375 -138.148438 17.984375 -144.144531 17.984375 -150.75 C 17.984375 -157.351562 19.46875 -163.863281 22.4375 -170.28125 C 25.40625 -176.695312 29.816406 -182.3125 35.671875 -187.125 C 48.222656 -197.601562 65.300781 -202.84375 86.90625 -202.84375 C 97.945312 -202.84375 107.851562 -201.210938 116.625 -197.953125 C 125.40625 -194.703125 131.398438 -191.800781 134.609375 -189.25 C 137.816406 -186.695312 139.421875 -184.382812 139.421875 -182.3125 C 139.421875 -177.96875 137.628906 -175.796875 134.046875 -175.796875 C 131.972656 -175.796875 129.753906 -176.832031 127.390625 -178.90625 C 125.035156 -180.988281 122.414062 -182.804688 119.53125 -184.359375 C 116.65625 -185.921875 113.378906 -187.316406 109.703125 -188.546875 C 101.773438 -191.179688 93.988281 -192.5 86.34375 -192.5 C 72.28125 -192.5 65.25 -187.878906 65.25 -178.640625 C 65.25 -174.765625 66.523438 -171.175781 69.078125 -167.875 C 73.609375 -162.113281 82.453125 -153.878906 95.609375 -143.171875 C 108.773438 -132.460938 119.34375 -123.097656 127.3125 -115.078125 C 135.289062 -107.054688 141.359375 -99.835938 145.515625 -93.421875 C 152.117188 -83.328125 155.421875 -72.828125 155.421875 -61.921875 C 155.421875 -51.023438 153.507812 -41.78125 149.6875 -34.1875 C 145.863281 -26.59375 140.507812 -20.054688 133.625 -14.578125 C 119.09375 -3.066406 101.066406 2.6875 79.546875 2.6875 C 58.035156 2.6875 39.867188 -1.601562 25.046875 -10.1875 Z M 25.046875 -10.1875 "/></g></g><g transform="translate(1276.54394, 1382.841539)"><g><path d="M 149.1875 -12.171875 C 154 -12.171875 156.40625 -10.285156 156.40625 -6.515625 C 156.40625 -4.816406 155.367188 -3.304688 153.296875 -1.984375 C 151.222656 -0.660156 147.632812 0 142.53125 0 L 22.640625 0 L 22.640625 -200.296875 C 59.828125 -200.296875 97.007812 -200.296875 134.1875 -200.296875 L 145.796875 -200.71875 C 152.867188 -200.71875 156.40625 -198.640625 156.40625 -194.484375 C 156.40625 -192.878906 155.816406 -191.390625 154.640625 -190.015625 C 153.460938 -188.648438 152.117188 -187.96875 150.609375 -187.96875 C 148.148438 -187.96875 145.554688 -188.253906 142.828125 -188.828125 C 138.765625 -189.671875 133.195312 -190.09375 126.125 -190.09375 L 94.84375 -190.09375 L 94.84375 -146.921875 L 120.59375 -146.921875 C 120.59375 -146.921875 126.398438 -147.160156 138.015625 -147.640625 C 140.085938 -147.640625 141.851562 -147.140625 143.3125 -146.140625 C 144.78125 -145.148438 145.515625 -143.757812 145.515625 -141.96875 C 145.515625 -138.007812 142.867188 -136.03125 137.578125 -136.03125 L 131.5 -136.171875 C 128.382812 -136.453125 125.789062 -136.59375 123.71875 -136.59375 L 94.84375 -136.59375 L 94.84375 -10.328125 L 126.125 -10.328125 C 133.101562 -10.328125 138.054688 -10.613281 140.984375 -11.1875 C 144.472656 -11.84375 147.207031 -12.171875 149.1875 -12.171875 Z M 149.1875 -12.171875 "/></g></g><g transform="translate(1445.831172, 1382.841539)"><g><path d="M 46 -25.546875 C 36.65625 -34.648438 29.222656 -45.691406 23.703125 -58.671875 C 18.179688 -71.648438 15.421875 -85.804688 15.421875 -101.140625 C 15.421875 -116.472656 18.039062 -130.25 23.28125 -142.46875 C 28.519531 -154.6875 35.765625 -165.28125 45.015625 -174.25 C 64.828125 -193.3125 89.691406 -202.84375 119.609375 -202.84375 C 149.335938 -202.84375 173.679688 -193.453125 192.640625 -174.671875 C 211.890625 -155.609375 221.515625 -130.882812 221.515625 -100.5 C 221.515625 -70.207031 211.65625 -45.296875 191.9375 -25.765625 C 179.570312 -13.679688 164.378906 -5.328125 146.359375 -0.703125 C 137.390625 1.554688 126.984375 2.6875 115.140625 2.6875 C 103.304688 2.6875 91.160156 0.257812 78.703125 -4.59375 C 66.242188 -9.457031 55.34375 -16.441406 46 -25.546875 Z M 119.46875 -192.5 C 114.28125 -192.5 109.421875 -192.125 104.890625 -191.375 L 104.890625 -8.78125 C 109.222656 -8.019531 114.082031 -7.640625 119.46875 -7.640625 C 144.664062 -7.640625 165.894531 -16.039062 183.15625 -32.84375 C 201.1875 -50.300781 210.203125 -72.851562 210.203125 -100.5 C 210.203125 -126.820312 201.753906 -148.710938 184.859375 -166.171875 C 167.773438 -183.722656 145.976562 -192.5 119.46875 -192.5 Z M 119.46875 -192.5 "/></g></g><g transform="translate(1682.635132, 1382.841539)"><g/></g><g transform="translate(1747.179427, 1382.841539)"><g><path d="M 146.359375 -12.875 C 151.359375 -12.875 153.859375 -10.753906 153.859375 -6.515625 C 153.859375 -4.816406 152.84375 -3.304688 150.8125 -1.984375 C 148.789062 -0.660156 145.179688 0 139.984375 0 L 25.046875 0 L 25.046875 -200.296875 L 97.25 -200.296875 L 97.25 -9.34375 L 123.71875 -9.34375 C 129.65625 -9.34375 134.769531 -9.929688 139.0625 -11.109375 C 143.363281 -12.285156 145.796875 -12.875 146.359375 -12.875 Z M 146.359375 -12.875 "/></g></g><g transform="translate(1903.019931, 1382.841539)"><g><path d="M 149.1875 -12.171875 C 154 -12.171875 156.40625 -10.285156 156.40625 -6.515625 C 156.40625 -4.816406 155.367188 -3.304688 153.296875 -1.984375 C 151.222656 -0.660156 147.632812 0 142.53125 0 L 22.640625 0 L 22.640625 -200.296875 C 59.828125 -200.296875 97.007812 -200.296875 134.1875 -200.296875 L 145.796875 -200.71875 C 152.867188 -200.71875 156.40625 -198.640625 156.40625 -194.484375 C 156.40625 -192.878906 155.816406 -191.390625 154.640625 -190.015625 C 153.460938 -188.648438 152.117188 -187.96875 150.609375 -187.96875 C 148.148438 -187.96875 145.554688 -188.253906 142.828125 -188.828125 C 138.765625 -189.671875 133.195312 -190.09375 126.125 -190.09375 L 94.84375 -190.09375 L 94.84375 -146.921875 L 120.59375 -146.921875 C 120.59375 -146.921875 126.398438 -147.160156 138.015625 -147.640625 C 140.085938 -147.640625 141.851562 -147.140625 143.3125 -146.140625 C 144.78125 -145.148438 145.515625 -143.757812 145.515625 -141.96875 C 145.515625 -138.007812 142.867188 -136.03125 137.578125 -136.03125 L 131.5 -136.171875 C 128.382812 -136.453125 125.789062 -136.59375 123.71875 -136.59375 L 94.84375 -136.59375 L 94.84375 -10.328125 L 126.125 -10.328125 C 133.101562 -10.328125 138.054688 -10.613281 140.984375 -11.1875 C 144.472656 -11.84375 147.207031 -12.171875 149.1875 -12.171875 Z M 149.1875 -12.171875 "/></g></g><g transform="translate(2072.307163, 1382.841539)"><g><path d="M 25.046875 -200.296875 L 83.9375 -200.296875 C 111.394531 -200.296875 131.539062 -198.359375 144.375 -194.484375 C 159 -189.953125 170.296875 -184.144531 178.265625 -177.0625 C 186.242188 -169.988281 192.5 -162.679688 197.03125 -155.140625 C 206.28125 -139.753906 210.90625 -122.296875 210.90625 -102.765625 C 210.90625 -72.003906 199.863281 -47.09375 177.78125 -28.03125 C 162.113281 -14.34375 143.664062 -5.894531 122.4375 -2.6875 C 110.644531 -0.894531 94.128906 0 72.890625 0 L 25.046875 0 Z M 97.25 -11.75 C 98.757812 -11.65625 100.125 -11.609375 101.34375 -11.609375 L 104.609375 -11.609375 C 130.179688 -11.609375 152.023438 -19.582031 170.140625 -35.53125 C 189.296875 -52.320312 198.875 -74.640625 198.875 -102.484375 C 198.875 -120.035156 194.675781 -135.84375 186.28125 -149.90625 C 174.101562 -170.375 154.851562 -182.78125 128.53125 -187.125 C 119.9375 -188.539062 109.507812 -189.34375 97.25 -189.53125 Z M 97.25 -11.75 "/></g></g></g></svg>