<svg xmlns="http://www.w3.org/2000/svg" xmlns:xlink="http://www.w3.org/1999/xlink" width="6912" zoomAndPan="magnify" viewBox="0 0 5184 2592.000001" height="3456" preserveAspectRatio="xMidYMid meet" version="1.0"><defs><g/><clipPath id="8e0b9bec9b"><path d="M 1617.242188 320.742188 L 3566.757812 320.742188 L 3566.757812 2270.257812 L 1617.242188 2270.257812 Z M 1617.242188 320.742188 " clip-rule="nonzero"/></clipPath><clipPath id="9cf844bb2b"><path d="M 1738.695312 320.742188 L 3445.304688 320.742188 C 3512.382812 320.742188 3566.757812 375.121094 3566.757812 442.195312 L 3566.757812 2148.804688 C 3566.757812 2215.882812 3512.382812 2270.257812 3445.304688 2270.257812 L 1738.695312 2270.257812 C 1671.617188 2270.257812 1617.242188 2215.882812 1617.242188 2148.804688 L 1617.242188 442.195312 C 1617.242188 375.121094 1671.617188 320.742188 1738.695312 320.742188 Z M 1738.695312 320.742188 " clip-rule="nonzero"/></clipPath><clipPath id="8ab5513d68"><path d="M 1710 2088 L 2620 2088 L 2620 2270.4375 L 1710 2270.4375 Z M 1710 2088 " clip-rule="nonzero"/></clipPath><clipPath id="998c297144"><path d="M 3094 1490.648438 L 3247 1490.648438 L 3247 1643 L 3094 1643 Z M 3094 1490.648438 " clip-rule="nonzero"/></clipPath></defs><g clip-path="url(#8e0b9bec9b)"><g clip-path="url(#9cf844bb2b)"><path fill="#ffca05" d="M 1617.242188 320.742188 L 3566.757812 320.742188 L 3566.757812 2270.257812 L 1617.242188 2270.257812 Z M 1617.242188 320.742188 " fill-opacity="1" fill-rule="nonzero"/></g></g><g clip-path="url(#8ab5513d68)"><path fill="#ffffff" d="M 2593.921875 2270.261719 L 1736.496094 2270.261719 C 1722.148438 2270.261719 1710.511719 2258.628906 1710.511719 2244.277344 C 1710.511719 2158.316406 1780.449219 2088.382812 1866.410156 2088.382812 L 2464.007812 2088.382812 C 2549.96875 2088.382812 2619.90625 2158.316406 2619.90625 2244.277344 C 2619.90625 2258.628906 2608.273438 2270.261719 2593.921875 2270.261719 Z M 1765.769531 2218.296875 L 2564.652344 2218.296875 C 2553.089844 2173.519531 2512.351562 2140.347656 2464.011719 2140.347656 L 1866.410156 2140.347656 C 1818.070312 2140.347656 1777.332031 2173.519531 1765.769531 2218.296875 Z M 1765.769531 2218.296875 " fill-opacity="1" fill-rule="nonzero"/></g><path fill="#ffffff" d="M 2553.933594 1464.160156 L 2517.1875 1427.414062 C 2507.042969 1417.265625 2507.042969 1400.816406 2517.1875 1390.667969 C 2527.34375 1380.523438 2543.789062 1380.527344 2553.9375 1390.667969 L 2590.679688 1427.414062 C 2600.828125 1437.5625 2600.828125 1454.011719 2590.679688 1464.160156 C 2580.527344 1474.308594 2564.085938 1474.304688 2553.933594 1464.160156 Z M 2553.933594 1464.160156 " fill-opacity="1" fill-rule="nonzero"/><path fill="#ffffff" d="M 2624.5 1329.269531 L 2572.535156 1329.269531 C 2558.1875 1329.269531 2546.554688 1317.636719 2546.554688 1303.285156 C 2546.554688 1288.9375 2558.1875 1277.304688 2572.535156 1277.304688 L 2624.5 1277.304688 C 2638.851562 1277.304688 2650.484375 1288.9375 2650.484375 1303.285156 C 2650.484375 1317.632812 2638.847656 1329.269531 2624.5 1329.269531 Z M 2624.5 1329.269531 " fill-opacity="1" fill-rule="nonzero"/><path fill="#ffffff" d="M 2438.214844 1532.371094 C 2423.867188 1532.371094 2412.230469 1520.742188 2412.230469 1506.390625 L 2412.230469 1454.425781 C 2412.230469 1440.078125 2423.867188 1428.441406 2438.214844 1428.441406 C 2452.5625 1428.441406 2464.195312 1440.078125 2464.195312 1454.425781 L 2464.195312 1506.390625 C 2464.195312 1520.738281 2452.5625 1532.371094 2438.214844 1532.371094 Z M 2438.214844 1532.371094 " fill-opacity="1" fill-rule="nonzero"/><path fill="#ffffff" d="M 2217.148438 2010.433594 L 2067.484375 2010.433594 C 2060.589844 2010.433594 2053.976562 2007.691406 2049.101562 2002.8125 L 1690.507812 1643.710938 C 1683.234375 1636.429688 1680.945312 1625.542969 1684.671875 1615.949219 C 1688.398438 1606.355469 1697.429688 1599.863281 1707.710938 1599.398438 C 1734.339844 1598.183594 1755.59375 1577.207031 1757.148438 1550.601562 C 1757.746094 1540.394531 1764.269531 1531.484375 1773.824219 1527.839844 C 1783.382812 1524.191406 1794.175781 1526.492188 1801.421875 1533.707031 L 2235.484375 1966.042969 C 2242.9375 1973.46875 2245.179688 1984.648438 2241.160156 1994.371094 C 2237.148438 2004.09375 2227.667969 2010.433594 2217.148438 2010.433594 Z M 2078.261719 1958.46875 L 2154.246094 1958.46875 L 1794.808594 1600.464844 C 1785.789062 1615.742188 1772.964844 1628.476562 1757.625 1637.386719 Z M 2078.261719 1958.46875 " fill-opacity="1" fill-rule="nonzero"/><path fill="#ffffff" d="M 2464.007812 2140.347656 L 1866.410156 2140.347656 C 1852.0625 2140.347656 1840.425781 2128.714844 1840.425781 2114.367188 L 1840.425781 2062.402344 C 1840.425781 2005.09375 1887.050781 1958.46875 1944.355469 1958.46875 L 2386.0625 1958.46875 C 2443.367188 1958.46875 2489.992188 2005.09375 2489.992188 2062.402344 L 2489.992188 2114.367188 C 2489.992188 2128.714844 2478.359375 2140.347656 2464.007812 2140.347656 Z M 1892.390625 2088.382812 L 2438.027344 2088.382812 L 2438.027344 2062.402344 C 2438.027344 2033.746094 2414.714844 2010.433594 2386.0625 2010.433594 L 1944.355469 2010.433594 C 1915.703125 2010.433594 1892.390625 2033.746094 1892.390625 2062.402344 Z M 1892.390625 2088.382812 " fill-opacity="1" fill-rule="nonzero"/><path fill="#ffffff" d="M 2334.097656 2010.433594 C 2319.75 2010.433594 2308.113281 1998.804688 2308.113281 1984.453125 L 2308.113281 1932.488281 C 2308.113281 1918.140625 2319.75 1906.503906 2334.097656 1906.503906 C 2348.445312 1906.503906 2360.078125 1918.140625 2360.078125 1932.488281 L 2360.078125 1984.453125 C 2360.078125 1998.804688 2348.445312 2010.433594 2334.097656 2010.433594 Z M 2334.097656 2010.433594 " fill-opacity="1" fill-rule="nonzero"/><path fill="#ffffff" d="M 1705.289062 1651.425781 C 1647.980469 1651.425781 1601.359375 1604.800781 1601.359375 1547.496094 C 1601.359375 1490.1875 1647.980469 1443.5625 1705.289062 1443.5625 C 1762.59375 1443.5625 1809.21875 1490.1875 1809.21875 1547.496094 C 1809.21875 1604.800781 1762.59375 1651.425781 1705.289062 1651.425781 Z M 1705.289062 1495.53125 C 1676.632812 1495.53125 1653.324219 1518.839844 1653.324219 1547.496094 C 1653.324219 1576.148438 1676.632812 1599.460938 1705.289062 1599.460938 C 1733.941406 1599.460938 1757.253906 1576.148438 1757.253906 1547.496094 C 1757.253906 1518.839844 1733.945312 1495.53125 1705.289062 1495.53125 Z M 1705.289062 1495.53125 " fill-opacity="1" fill-rule="nonzero"/><path fill="#ffffff" d="M 1783.097656 1569.039062 C 1769.339844 1569.039062 1757.9375 1558.28125 1757.164062 1544.515625 C 1755.679688 1518.085938 1734.628906 1497.066406 1708.203125 1495.621094 C 1697.980469 1495.058594 1689.042969 1488.546875 1685.371094 1478.988281 C 1681.699219 1469.429688 1683.988281 1458.609375 1691.207031 1451.347656 L 2084.753906 1055.824219 C 2091.769531 1048.769531 2102.195312 1046.339844 2111.613281 1049.578125 C 2121.027344 1052.8125 2127.761719 1061.132812 2128.964844 1071.011719 C 2130.894531 1086.839844 2138.339844 1101.378906 2151.195312 1112.78125 C 2157.375 1118.445312 2168.394531 1126.027344 2180.355469 1131.757812 C 2196.464844 1139.46875 2200.183594 1160.832031 2187.554688 1173.523438 L 1801.515625 1561.386719 C 1796.550781 1566.375 1789.886719 1569.039062 1783.097656 1569.039062 Z M 1758.019531 1457.871094 C 1773.15625 1466.773438 1785.820312 1479.402344 1794.761719 1494.511719 L 2127.398438 1160.292969 C 2112.804688 1149.488281 2101.351562 1137.578125 2092.285156 1121.925781 Z M 1758.019531 1457.871094 " fill-opacity="1" fill-rule="nonzero"/><path fill="#ffffff" d="M 2294.082031 1358.679688 C 2283.0625 1348.730469 2282.589844 1331.554688 2293.121094 1321.019531 L 2447.542969 1166.597656 C 2457.921875 1156.21875 2475.128906 1156.402344 2485.203125 1167.5625 C 2533.511719 1221.089844 2531.421875 1302.949219 2480.449219 1353.921875 C 2429.636719 1404.730469 2347.789062 1407.148438 2294.082031 1358.679688 Z M 2352.644531 1334.984375 C 2382.980469 1347.367188 2419.617188 1341.261719 2443.703125 1317.175781 C 2467.789062 1293.09375 2473.878906 1256.460938 2461.511719 1226.121094 Z M 2352.644531 1334.984375 " fill-opacity="1" fill-rule="nonzero"/><path fill="#ffffff" d="M 2194.527344 1191.058594 C 2165.953125 1185.6875 2132.386719 1167.707031 2111.003906 1146.324219 C 2064.953125 1100.265625 2064.941406 1025.722656 2111.003906 979.664062 C 2157.0625 933.609375 2231.601562 933.601562 2277.664062 979.664062 C 2295.605469 997.605469 2317.765625 1031.902344 2324.007812 1064.800781 C 2326.226562 1076.5 2320.214844 1088.210938 2309.414062 1093.21875 C 2272.8125 1110.199219 2241.773438 1139.183594 2222.523438 1177.253906 C 2217.238281 1187.6875 2205.746094 1193.183594 2194.527344 1191.058594 Z M 2147.75 1016.410156 C 2122.003906 1042.148438 2121.996094 1083.824219 2147.75 1109.574219 C 2157.574219 1119.402344 2172.558594 1128.8125 2186.9375 1134.699219 C 2207.03125 1102.6875 2234.613281 1075.867188 2267.28125 1056.691406 C 2260.644531 1041.167969 2250.078125 1025.570312 2240.914062 1016.410156 C 2215.167969 990.660156 2173.5 990.660156 2147.75 1016.410156 Z M 2147.75 1016.410156 " fill-opacity="1" fill-rule="nonzero"/><path fill="#ffffff" d="M 2219.882812 1431.003906 C 2127.109375 1338.230469 2127.121094 1186.117188 2219.882812 1093.359375 C 2312.660156 1000.585938 2464.765625 1000.605469 2557.523438 1093.359375 C 2567.671875 1103.507812 2567.671875 1119.957031 2557.523438 1130.105469 L 2256.628906 1431.003906 C 2246.476562 1441.152344 2230.03125 1441.152344 2219.882812 1431.003906 Z M 2256.628906 1130.105469 C 2189.113281 1197.625 2185.851562 1303.316406 2239.539062 1374.605469 L 2501.132812 1113.007812 C 2427.886719 1057.726562 2323.117188 1063.613281 2256.628906 1130.105469 Z M 2256.628906 1130.105469 " fill-opacity="1" fill-rule="nonzero"/><g clip-path="url(#998c297144)"><path fill="#ffffff" d="M 3246.226562 1566.609375 C 3246.226562 1567.851562 3246.199219 1569.089844 3246.136719 1570.332031 C 3246.074219 1571.574219 3245.984375 1572.8125 3245.863281 1574.046875 C 3245.742188 1575.28125 3245.589844 1576.515625 3245.40625 1577.742188 C 3245.222656 1578.972656 3245.011719 1580.195312 3244.769531 1581.414062 C 3244.527344 1582.632812 3244.253906 1583.84375 3243.953125 1585.046875 C 3243.652344 1586.253906 3243.320312 1587.449219 3242.960938 1588.636719 C 3242.601562 1589.828125 3242.210938 1591.007812 3241.792969 1592.175781 C 3241.375 1593.34375 3240.925781 1594.503906 3240.449219 1595.652344 C 3239.976562 1596.796875 3239.472656 1597.933594 3238.941406 1599.054688 C 3238.410156 1600.179688 3237.851562 1601.289062 3237.265625 1602.382812 C 3236.679688 1603.480469 3236.070312 1604.558594 3235.429688 1605.625 C 3234.792969 1606.691406 3234.128906 1607.738281 3233.4375 1608.773438 C 3232.746094 1609.804688 3232.03125 1610.820312 3231.292969 1611.816406 C 3230.554688 1612.816406 3229.789062 1613.792969 3229 1614.753906 C 3228.214844 1615.714844 3227.402344 1616.652344 3226.566406 1617.574219 C 3225.734375 1618.496094 3224.878906 1619.394531 3224 1620.273438 C 3223.121094 1621.152344 3222.222656 1622.007812 3221.300781 1622.839844 C 3220.382812 1623.675781 3219.441406 1624.484375 3218.480469 1625.273438 C 3217.519531 1626.0625 3216.542969 1626.824219 3215.542969 1627.566406 C 3214.546875 1628.304688 3213.53125 1629.019531 3212.5 1629.710938 C 3211.464844 1630.402344 3210.417969 1631.066406 3209.351562 1631.703125 C 3208.285156 1632.34375 3207.207031 1632.953125 3206.109375 1633.539062 C 3205.015625 1634.125 3203.90625 1634.683594 3202.785156 1635.214844 C 3201.660156 1635.746094 3200.527344 1636.25 3199.378906 1636.722656 C 3198.230469 1637.199219 3197.074219 1637.644531 3195.902344 1638.0625 C 3194.734375 1638.484375 3193.554688 1638.871094 3192.367188 1639.234375 C 3191.175781 1639.59375 3189.980469 1639.925781 3188.777344 1640.226562 C 3187.570312 1640.527344 3186.359375 1640.800781 3185.140625 1641.042969 C 3183.921875 1641.285156 3182.699219 1641.496094 3181.472656 1641.679688 C 3180.242188 1641.863281 3179.011719 1642.011719 3177.773438 1642.136719 C 3176.539062 1642.257812 3175.300781 1642.347656 3174.058594 1642.410156 C 3172.820312 1642.46875 3171.578125 1642.5 3170.335938 1642.5 C 3169.09375 1642.5 3167.851562 1642.46875 3166.613281 1642.410156 C 3165.371094 1642.347656 3164.132812 1642.257812 3162.898438 1642.136719 C 3161.660156 1642.011719 3160.429688 1641.863281 3159.199219 1641.679688 C 3157.972656 1641.496094 3156.746094 1641.285156 3155.53125 1641.042969 C 3154.3125 1640.800781 3153.101562 1640.527344 3151.894531 1640.226562 C 3150.691406 1639.925781 3149.492188 1639.59375 3148.304688 1639.234375 C 3147.117188 1638.871094 3145.9375 1638.484375 3144.769531 1638.0625 C 3143.597656 1637.644531 3142.441406 1637.199219 3141.292969 1636.722656 C 3140.144531 1636.25 3139.011719 1635.746094 3137.886719 1635.214844 C 3136.765625 1634.683594 3135.65625 1634.125 3134.558594 1633.539062 C 3133.464844 1632.953125 3132.382812 1632.34375 3131.320312 1631.703125 C 3130.253906 1631.066406 3129.203125 1630.402344 3128.171875 1629.710938 C 3127.140625 1629.019531 3126.125 1628.304688 3125.125 1627.566406 C 3124.128906 1626.824219 3123.148438 1626.0625 3122.191406 1625.273438 C 3121.230469 1624.484375 3120.289062 1623.675781 3119.367188 1622.839844 C 3118.449219 1622.007812 3117.550781 1621.152344 3116.671875 1620.273438 C 3115.792969 1619.394531 3114.9375 1618.496094 3114.101562 1617.574219 C 3113.269531 1616.652344 3112.457031 1615.714844 3111.667969 1614.753906 C 3110.882812 1613.792969 3110.117188 1612.816406 3109.378906 1611.816406 C 3108.636719 1610.820312 3107.921875 1609.804688 3107.234375 1608.773438 C 3106.542969 1607.738281 3105.878906 1606.691406 3105.238281 1605.625 C 3104.601562 1604.558594 3103.988281 1603.480469 3103.402344 1602.382812 C 3102.820312 1601.289062 3102.261719 1600.179688 3101.730469 1599.054688 C 3101.199219 1597.933594 3100.695312 1596.796875 3100.21875 1595.652344 C 3099.746094 1594.503906 3099.296875 1593.34375 3098.878906 1592.175781 C 3098.460938 1591.007812 3098.070312 1589.828125 3097.710938 1588.636719 C 3097.351562 1587.449219 3097.019531 1586.253906 3096.71875 1585.046875 C 3096.414062 1583.84375 3096.144531 1582.632812 3095.902344 1581.414062 C 3095.660156 1580.195312 3095.445312 1578.972656 3095.265625 1577.742188 C 3095.082031 1576.515625 3094.929688 1575.28125 3094.808594 1574.046875 C 3094.6875 1572.8125 3094.59375 1571.574219 3094.535156 1570.332031 C 3094.472656 1569.089844 3094.441406 1567.851562 3094.441406 1566.609375 C 3094.441406 1565.367188 3094.472656 1564.125 3094.535156 1562.882812 C 3094.59375 1561.644531 3094.6875 1560.40625 3094.808594 1559.167969 C 3094.929688 1557.933594 3095.082031 1556.699219 3095.265625 1555.472656 C 3095.445312 1554.242188 3095.660156 1553.019531 3095.902344 1551.800781 C 3096.144531 1550.582031 3096.414062 1549.371094 3096.71875 1548.167969 C 3097.019531 1546.960938 3097.351562 1545.765625 3097.710938 1544.578125 C 3098.070312 1543.390625 3098.460938 1542.210938 3098.878906 1541.039062 C 3099.296875 1539.871094 3099.746094 1538.710938 3100.21875 1537.566406 C 3100.695312 1536.417969 3101.199219 1535.28125 3101.730469 1534.160156 C 3102.261719 1533.035156 3102.820312 1531.929688 3103.402344 1530.832031 C 3103.988281 1529.738281 3104.601562 1528.65625 3105.238281 1527.589844 C 3105.878906 1526.527344 3106.542969 1525.476562 3107.234375 1524.445312 C 3107.921875 1523.410156 3108.636719 1522.394531 3109.378906 1521.398438 C 3110.117188 1520.402344 3110.882812 1519.421875 3111.667969 1518.460938 C 3112.457031 1517.503906 3113.269531 1516.5625 3114.101562 1515.640625 C 3114.9375 1514.722656 3115.792969 1513.820312 3116.671875 1512.945312 C 3117.550781 1512.066406 3118.449219 1511.210938 3119.367188 1510.375 C 3120.289062 1509.542969 3121.230469 1508.730469 3122.191406 1507.941406 C 3123.148438 1507.152344 3124.128906 1506.390625 3125.125 1505.648438 C 3126.125 1504.910156 3127.140625 1504.195312 3128.171875 1503.503906 C 3129.203125 1502.816406 3130.253906 1502.152344 3131.320312 1501.511719 C 3132.382812 1500.875 3133.464844 1500.261719 3134.558594 1499.675781 C 3135.65625 1499.089844 3136.765625 1498.53125 3137.886719 1498 C 3139.011719 1497.46875 3140.144531 1496.96875 3141.292969 1496.492188 C 3142.441406 1496.015625 3143.597656 1495.570312 3144.769531 1495.152344 C 3145.9375 1494.734375 3147.117188 1494.34375 3148.304688 1493.984375 C 3149.492188 1493.621094 3150.691406 1493.292969 3151.894531 1492.988281 C 3153.101562 1492.6875 3154.3125 1492.414062 3155.53125 1492.171875 C 3156.746094 1491.929688 3157.972656 1491.71875 3159.199219 1491.535156 C 3160.429688 1491.355469 3161.660156 1491.203125 3162.898438 1491.082031 C 3164.132812 1490.957031 3165.371094 1490.867188 3166.613281 1490.804688 C 3167.851562 1490.746094 3169.09375 1490.714844 3170.335938 1490.714844 C 3171.578125 1490.714844 3172.820312 1490.746094 3174.058594 1490.804688 C 3175.300781 1490.867188 3176.539062 1490.957031 3177.773438 1491.082031 C 3179.011719 1491.203125 3180.242188 1491.355469 3181.472656 1491.535156 C 3182.699219 1491.71875 3183.921875 1491.929688 3185.140625 1492.171875 C 3186.359375 1492.414062 3187.570312 1492.6875 3188.777344 1492.988281 C 3189.980469 1493.292969 3191.175781 1493.621094 3192.367188 1493.984375 C 3193.554688 1494.34375 3194.734375 1494.734375 3195.902344 1495.152344 C 3197.074219 1495.570312 3198.230469 1496.015625 3199.378906 1496.492188 C 3200.527344 1496.96875 3201.660156 1497.46875 3202.785156 1498 C 3203.90625 1498.53125 3205.015625 1499.089844 3206.109375 1499.675781 C 3207.207031 1500.261719 3208.285156 1500.875 3209.351562 1501.511719 C 3210.417969 1502.152344 3211.464844 1502.816406 3212.5 1503.503906 C 3213.53125 1504.195312 3214.546875 1504.910156 3215.542969 1505.648438 C 3216.542969 1506.390625 3217.519531 1507.152344 3218.480469 1507.941406 C 3219.441406 1508.730469 3220.382812 1509.542969 3221.300781 1510.375 C 3222.222656 1511.210938 3223.121094 1512.066406 3224 1512.945312 C 3224.878906 1513.820312 3225.734375 1514.722656 3226.566406 1515.640625 C 3227.402344 1516.5625 3228.214844 1517.503906 3229 1518.460938 C 3229.789062 1519.421875 3230.554688 1520.402344 3231.292969 1521.398438 C 3232.03125 1522.394531 3232.746094 1523.410156 3233.4375 1524.445312 C 3234.128906 1525.476562 3234.792969 1526.527344 3235.429688 1527.589844 C 3236.070312 1528.65625 3236.679688 1529.738281 3237.265625 1530.832031 C 3237.851562 1531.929688 3238.410156 1533.035156 3238.941406 1534.160156 C 3239.472656 1535.28125 3239.976562 1536.417969 3240.449219 1537.566406 C 3240.925781 1538.710938 3241.375 1539.871094 3241.792969 1541.039062 C 3242.210938 1542.210938 3242.601562 1543.390625 3242.960938 1544.578125 C 3243.320312 1545.765625 3243.652344 1546.960938 3243.953125 1548.167969 C 3244.253906 1549.371094 3244.527344 1550.582031 3244.769531 1551.800781 C 3245.011719 1553.019531 3245.222656 1554.242188 3245.40625 1555.472656 C 3245.589844 1556.699219 3245.742188 1557.933594 3245.863281 1559.167969 C 3245.984375 1560.40625 3246.074219 1561.644531 3246.136719 1562.882812 C 3246.199219 1564.125 3246.226562 1565.367188 3246.226562 1566.609375 Z M 3246.226562 1566.609375 " fill-opacity="1" fill-rule="nonzero"/></g><path fill="#ffffff" d="M 3122.265625 1959.425781 L 3098.085938 2096.515625 C 3097.109375 2102.042969 3094.742188 2107.226562 3091.207031 2111.585938 L 3009.417969 2212.359375 C 2994.050781 2231.300781 2995.238281 2259.660156 3013.707031 2275.589844 C 3032.820312 2292.078125 3061.628906 2289.410156 3077.417969 2269.949219 L 3175.320312 2148.195312 C 3178.804688 2143.859375 3181.136719 2138.71875 3182.101562 2133.242188 L 3187.917969 2100.265625 Z M 3122.265625 1959.425781 " fill-opacity="1" fill-rule="nonzero"/><path fill="#ffffff" d="M 3357.71875 1870.828125 L 3254.808594 1833.371094 L 3254.808594 1893.277344 C 3254.808594 1895.511719 3254.675781 1897.726562 3254.480469 1899.929688 L 3337.539062 1930.199219 C 3354.761719 1936.46875 3373.914062 1926.699219 3378.632812 1908.523438 C 3382.746094 1892.675781 3373.101562 1876.425781 3357.71875 1870.828125 Z M 3357.71875 1870.828125 " fill-opacity="1" fill-rule="nonzero"/><path fill="#ffffff" d="M 3314.703125 2234.011719 L 3288.730469 2087.90625 C 3288.230469 2085.078125 3287.359375 2082.332031 3286.144531 2079.726562 L 3222.6875 1943.757812 C 3237.066406 1931.648438 3246.226562 1913.535156 3246.226562 1893.277344 L 3246.226562 1728.226562 C 3246.226562 1691.796875 3216.664062 1662.300781 3180.234375 1662.300781 L 3160.4375 1662.300781 C 3123.941406 1662.300781 3094.441406 1691.796875 3094.441406 1728.226562 L 3094.441406 1739.558594 L 3120.347656 1695.605469 C 3127.511719 1683.492188 3140.695312 1675.976562 3154.773438 1675.976562 C 3161.886719 1675.976562 3168.902344 1677.894531 3175.054688 1681.527344 C 3194.003906 1692.71875 3200.328125 1717.246094 3189.160156 1736.203125 L 3135.820312 1826.476562 C 3134.324219 1829.007812 3133.308594 1831.761719 3132.796875 1834.65625 L 3114.175781 1940.269531 C 3118.171875 1944.191406 3122.65625 1947.625 3127.542969 1950.441406 L 3200.761719 2107.507812 C 3201.976562 2110.117188 3202.847656 2112.878906 3203.347656 2115.714844 L 3226.960938 2249.496094 C 3231.246094 2273.722656 3254.359375 2289.890625 3278.585938 2285.605469 C 3302.800781 2281.324219 3318.96875 2258.230469 3314.703125 2234.011719 Z M 3314.703125 2234.011719 " fill-opacity="1" fill-rule="nonzero"/><path fill="#ffffff" d="M 3170.691406 1688.917969 C 3155.78125 1680.109375 3136.554688 1685.058594 3127.742188 1699.964844 L 3068.367188 1800.707031 C 3066.351562 1804.121094 3064.972656 1807.867188 3064.289062 1811.769531 L 3039.296875 1954.488281 C 3036.113281 1972.539062 3049.058594 1989.703125 3067.78125 1991.195312 C 3084.101562 1992.492188 3098.425781 1980.171875 3101.269531 1964.050781 L 3124.347656 1833.171875 C 3125.035156 1829.269531 3126.421875 1825.523438 3128.4375 1822.113281 L 3181.769531 1731.851562 C 3190.558594 1716.9375 3185.601562 1697.71875 3170.691406 1688.917969 Z M 3170.691406 1688.917969 " fill-opacity="1" fill-rule="nonzero"/><g fill="#ffffff" fill-opacity="1"><g transform="translate(1918.074369, 751.358729)"><g><path d="M 149.1875 -12.171875 C 154 -12.171875 156.40625 -10.285156 156.40625 -6.515625 C 156.40625 -4.816406 155.367188 -3.304688 153.296875 -1.984375 C 151.222656 -0.660156 147.632812 0 142.53125 0 L 22.640625 0 L 22.640625 -200.296875 C 59.828125 -200.296875 97.007812 -200.296875 134.1875 -200.296875 L 145.796875 -200.71875 C 152.867188 -200.71875 156.40625 -198.640625 156.40625 -194.484375 C 156.40625 -192.878906 155.816406 -191.390625 154.640625 -190.015625 C 153.460938 -188.648438 152.117188 -187.96875 150.609375 -187.96875 C 148.148438 -187.96875 145.554688 -188.253906 142.828125 -188.828125 C 138.765625 -189.671875 133.195312 -190.09375 126.125 -190.09375 L 94.84375 -190.09375 L 94.84375 -146.921875 L 120.59375 -146.921875 C 120.59375 -146.921875 126.398438 -147.160156 138.015625 -147.640625 C 140.085938 -147.640625 141.851562 -147.140625 143.3125 -146.140625 C 144.78125 -145.148438 145.515625 -143.757812 145.515625 -141.96875 C 145.515625 -138.007812 142.867188 -136.03125 137.578125 -136.03125 L 131.5 -136.171875 C 128.382812 -136.453125 125.789062 -136.59375 123.71875 -136.59375 L 94.84375 -136.59375 L 94.84375 -10.328125 L 126.125 -10.328125 C 133.101562 -10.328125 138.054688 -10.613281 140.984375 -11.1875 C 144.472656 -11.84375 147.207031 -12.171875 149.1875 -12.171875 Z M 149.1875 -12.171875 "/></g></g><g transform="translate(2087.361601, 751.358729)"><g><path d="M 25.046875 -10.1875 C 21.742188 -12.070312 18.890625 -14.050781 16.484375 -16.125 C 14.078125 -18.207031 12.875 -20.429688 12.875 -22.796875 C 12.875 -27.316406 14.8125 -29.578125 18.6875 -29.578125 C 21.226562 -29.578125 24.054688 -28.160156 27.171875 -25.328125 C 30.285156 -22.503906 33.773438 -20.03125 37.640625 -17.90625 C 41.515625 -15.78125 45.71875 -13.960938 50.25 -12.453125 C 59.59375 -9.335938 68.226562 -7.78125 76.15625 -7.78125 C 84.082031 -7.78125 90.191406 -8.300781 94.484375 -9.34375 C 98.773438 -10.382812 102.382812 -11.800781 105.3125 -13.59375 C 111.539062 -17.457031 114.65625 -22.410156 114.65625 -28.453125 C 114.65625 -34.015625 111.960938 -39.628906 106.578125 -45.296875 C 102.054688 -50.109375 95.640625 -55.863281 87.328125 -62.5625 L 63.125 -81.53125 C 38.875 -100.21875 24.578125 -117.296875 20.234375 -132.765625 C 18.734375 -138.148438 17.984375 -144.144531 17.984375 -150.75 C 17.984375 -157.351562 19.46875 -163.863281 22.4375 -170.28125 C 25.40625 -176.695312 29.816406 -182.3125 35.671875 -187.125 C 48.222656 -197.601562 65.300781 -202.84375 86.90625 -202.84375 C 97.945312 -202.84375 107.851562 -201.210938 116.625 -197.953125 C 125.40625 -194.703125 131.398438 -191.800781 134.609375 -189.25 C 137.816406 -186.695312 139.421875 -184.382812 139.421875 -182.3125 C 139.421875 -177.96875 137.628906 -175.796875 134.046875 -175.796875 C 131.972656 -175.796875 129.753906 -176.832031 127.390625 -178.90625 C 125.035156 -180.988281 122.414062 -182.804688 119.53125 -184.359375 C 116.65625 -185.921875 113.378906 -187.316406 109.703125 -188.546875 C 101.773438 -191.179688 93.988281 -192.5 86.34375 -192.5 C 72.28125 -192.5 65.25 -187.878906 65.25 -178.640625 C 65.25 -174.765625 66.523438 -171.175781 69.078125 -167.875 C 73.609375 -162.113281 82.453125 -153.878906 95.609375 -143.171875 C 108.773438 -132.460938 119.34375 -123.097656 127.3125 -115.078125 C 135.289062 -107.054688 141.359375 -99.835938 145.515625 -93.421875 C 152.117188 -83.328125 155.421875 -72.828125 155.421875 -61.921875 C 155.421875 -51.023438 153.507812 -41.78125 149.6875 -34.1875 C 145.863281 -26.59375 140.507812 -20.054688 133.625 -14.578125 C 119.09375 -3.066406 101.066406 2.6875 79.546875 2.6875 C 58.035156 2.6875 39.867188 -1.601562 25.046875 -10.1875 Z M 25.046875 -10.1875 "/></g></g><g transform="translate(2255.799565, 751.358729)"><g><path d="M 149.1875 -12.171875 C 154 -12.171875 156.40625 -10.285156 156.40625 -6.515625 C 156.40625 -4.816406 155.367188 -3.304688 153.296875 -1.984375 C 151.222656 -0.660156 147.632812 0 142.53125 0 L 22.640625 0 L 22.640625 -200.296875 C 59.828125 -200.296875 97.007812 -200.296875 134.1875 -200.296875 L 145.796875 -200.71875 C 152.867188 -200.71875 156.40625 -198.640625 156.40625 -194.484375 C 156.40625 -192.878906 155.816406 -191.390625 154.640625 -190.015625 C 153.460938 -188.648438 152.117188 -187.96875 150.609375 -187.96875 C 148.148438 -187.96875 145.554688 -188.253906 142.828125 -188.828125 C 138.765625 -189.671875 133.195312 -190.09375 126.125 -190.09375 L 94.84375 -190.09375 L 94.84375 -146.921875 L 120.59375 -146.921875 C 120.59375 -146.921875 126.398438 -147.160156 138.015625 -147.640625 C 140.085938 -147.640625 141.851562 -147.140625 143.3125 -146.140625 C 144.78125 -145.148438 145.515625 -143.757812 145.515625 -141.96875 C 145.515625 -138.007812 142.867188 -136.03125 137.578125 -136.03125 L 131.5 -136.171875 C 128.382812 -136.453125 125.789062 -136.59375 123.71875 -136.59375 L 94.84375 -136.59375 L 94.84375 -10.328125 L 126.125 -10.328125 C 133.101562 -10.328125 138.054688 -10.613281 140.984375 -11.1875 C 144.472656 -11.84375 147.207031 -12.171875 149.1875 -12.171875 Z M 149.1875 -12.171875 "/></g></g><g transform="translate(2425.086797, 751.358729)"><g><path d="M 46 -25.546875 C 36.65625 -34.648438 29.222656 -45.691406 23.703125 -58.671875 C 18.179688 -71.648438 15.421875 -85.804688 15.421875 -101.140625 C 15.421875 -116.472656 18.039062 -130.25 23.28125 -142.46875 C 28.519531 -154.6875 35.765625 -165.28125 45.015625 -174.25 C 64.828125 -193.3125 89.691406 -202.84375 119.609375 -202.84375 C 149.335938 -202.84375 173.679688 -193.453125 192.640625 -174.671875 C 211.890625 -155.609375 221.515625 -130.882812 221.515625 -100.5 C 221.515625 -70.207031 211.65625 -45.296875 191.9375 -25.765625 C 179.570312 -13.679688 164.378906 -5.328125 146.359375 -0.703125 C 137.390625 1.554688 126.984375 2.6875 115.140625 2.6875 C 103.304688 2.6875 91.160156 0.257812 78.703125 -4.59375 C 66.242188 -9.457031 55.34375 -16.441406 46 -25.546875 Z M 119.46875 -192.5 C 114.28125 -192.5 109.421875 -192.125 104.890625 -191.375 L 104.890625 -8.78125 C 109.222656 -8.019531 114.082031 -7.640625 119.46875 -7.640625 C 144.664062 -7.640625 165.894531 -16.039062 183.15625 -32.84375 C 201.1875 -50.300781 210.203125 -72.851562 210.203125 -100.5 C 210.203125 -126.820312 201.753906 -148.710938 184.859375 -166.171875 C 167.773438 -183.722656 145.976562 -192.5 119.46875 -192.5 Z M 119.46875 -192.5 "/></g></g><g transform="translate(2661.890756, 751.358729)"><g/></g><g transform="translate(2726.435052, 751.358729)"><g><path d="M 146.359375 -12.875 C 151.359375 -12.875 153.859375 -10.753906 153.859375 -6.515625 C 153.859375 -4.816406 152.84375 -3.304688 150.8125 -1.984375 C 148.789062 -0.660156 145.179688 0 139.984375 0 L 25.046875 0 L 25.046875 -200.296875 L 97.25 -200.296875 L 97.25 -9.34375 L 123.71875 -9.34375 C 129.65625 -9.34375 134.769531 -9.929688 139.0625 -11.109375 C 143.363281 -12.285156 145.796875 -12.875 146.359375 -12.875 Z M 146.359375 -12.875 "/></g></g><g transform="translate(2882.275555, 751.358729)"><g><path d="M 149.1875 -12.171875 C 154 -12.171875 156.40625 -10.285156 156.40625 -6.515625 C 156.40625 -4.816406 155.367188 -3.304688 153.296875 -1.984375 C 151.222656 -0.660156 147.632812 0 142.53125 0 L 22.640625 0 L 22.640625 -200.296875 C 59.828125 -200.296875 97.007812 -200.296875 134.1875 -200.296875 L 145.796875 -200.71875 C 152.867188 -200.71875 156.40625 -198.640625 156.40625 -194.484375 C 156.40625 -192.878906 155.816406 -191.390625 154.640625 -190.015625 C 153.460938 -188.648438 152.117188 -187.96875 150.609375 -187.96875 C 148.148438 -187.96875 145.554688 -188.253906 142.828125 -188.828125 C 138.765625 -189.671875 133.195312 -190.09375 126.125 -190.09375 L 94.84375 -190.09375 L 94.84375 -146.921875 L 120.59375 -146.921875 C 120.59375 -146.921875 126.398438 -147.160156 138.015625 -147.640625 C 140.085938 -147.640625 141.851562 -147.140625 143.3125 -146.140625 C 144.78125 -145.148438 145.515625 -143.757812 145.515625 -141.96875 C 145.515625 -138.007812 142.867188 -136.03125 137.578125 -136.03125 L 131.5 -136.171875 C 128.382812 -136.453125 125.789062 -136.59375 123.71875 -136.59375 L 94.84375 -136.59375 L 94.84375 -10.328125 L 126.125 -10.328125 C 133.101562 -10.328125 138.054688 -10.613281 140.984375 -11.1875 C 144.472656 -11.84375 147.207031 -12.171875 149.1875 -12.171875 Z M 149.1875 -12.171875 "/></g></g><g transform="translate(3051.562787, 751.358729)"><g><path d="M 25.046875 -200.296875 L 83.9375 -200.296875 C 111.394531 -200.296875 131.539062 -198.359375 144.375 -194.484375 C 159 -189.953125 170.296875 -184.144531 178.265625 -177.0625 C 186.242188 -169.988281 192.5 -162.679688 197.03125 -155.140625 C 206.28125 -139.753906 210.90625 -122.296875 210.90625 -102.765625 C 210.90625 -72.003906 199.863281 -47.09375 177.78125 -28.03125 C 162.113281 -14.34375 143.664062 -5.894531 122.4375 -2.6875 C 110.644531 -0.894531 94.128906 0 72.890625 0 L 25.046875 0 Z M 97.25 -11.75 C 98.757812 -11.65625 100.125 -11.609375 101.34375 -11.609375 L 104.609375 -11.609375 C 130.179688 -11.609375 152.023438 -19.582031 170.140625 -35.53125 C 189.296875 -52.320312 198.875 -74.640625 198.875 -102.484375 C 198.875 -120.035156 194.675781 -135.84375 186.28125 -149.90625 C 174.101562 -170.375 154.851562 -182.78125 128.53125 -187.125 C 119.9375 -188.539062 109.507812 -189.34375 97.25 -189.53125 Z M 97.25 -11.75 "/></g></g></g></svg>