M48
;Layer_Color=9474304
;FILE_FORMAT=2:5
INCH,LZ
;TYPE=PLATED
T1F00S00C0.01500
T2F00S00C0.03200
T3F00S00C0.03543
T4F00S00C0.03937
T5F00S00C0.04000
T6F00S00C0.04331
T7F00S00C0.05906
T8F00S00C0.11811
T9F00S00C0.23622
%
T01
X01655Y0118
X0168Y01465
Y01505
X01485Y0149
X0148Y01545
X0141Y0179
X0214Y018
X0213Y0169
X0203Y0166
X0201039Y0158953
X0203Y0149
X0227Y01455
X0252Y0145
X0278Y01455
X0205Y0186
X0193Y02015
X01805Y0208
X01525Y0194
X0137Y0192
X01375Y01845
T02
X0069563Y01255
X0077437
X00935
X01035
X0106374Y0193
X00985
T03
X0135Y015
Y016
Y017
X0237Y0168
Y0178
X0262
Y0168
X0288
Y0178
Y0188
Y0198
X0262
Y0188
X0237Y0188
X0237Y0198
X016Y0204
Y0214
Y0224
T04
X02325Y02175
X02225
X02125
X02025
T05
X0213Y0099835
Y0127
X023111
Y0099835
X0086Y0193
X0066
T06
X0076Y01455
X0086
X0096
Y0173
X0086
X0076
T07
X01575Y00825
X01775
T08
X005Y007
X0283
X0285Y0239
X0049Y0241
T09
X0085Y0089
Y0229
M30
