M48
;Layer_Color=9474304
;FILE_FORMAT=2:5
INCH,LZ
T10F00S00C0.20000
%
G90
G05
T10
G00X0300988Y00477
M15
G01X0302896Y004829
G01X0304648Y0049248
G01X0306176Y0050535
G01X0307417Y00521
G01X0308322Y0053881
G01X0308856Y0055806
G01X0309Y00575
G01X0309Y0253
G01X03088Y0254988
G01X030821Y0256896
G01X0307252Y0258648
G01X0305965Y0260176
G01X03044Y0261417
G01X0302619Y0262322
G01X0300694Y0262855
G01X0299Y0263
G01X0035Y0263
G01X0033012Y02628
G01X0031104Y026221
G01X0029352Y0261252
G01X0027824Y0259965
G01X0026583Y02584
G01X0025678Y0256619
G01X0025145Y0254694
G01X0025Y0253
G01X0025Y00575
G01X00252Y0055512
G01X002579Y0053604
G01X0026748Y0051852
G01X0028035Y0050324
G01X00296Y0049083
G01X0031381Y0048178
G01X0033306Y0047645
G01X0035Y00475
G01X0299Y00475
G01X0300988Y00477
M16
M17
M30
