M48
;Layer_Color=9474304
;FILE_FORMAT=2:5
INCH,LZ
T10F00S00C0.20000
%
G90
G05
T10
G00X0356488Y00477
M15
G01X0358396Y004829
G01X0360148Y0049248
G01X0361676Y0050535
G01X0362917Y00521
G01X0363822Y0053881
G01X0364356Y0055806
G01X03645Y00575
G01X03645Y0276
G01X03643Y0277988
G01X036371Y0279896
G01X0362752Y0281648
G01X0361465Y0283176
G01X03599Y0284417
G01X0358119Y0285322
G01X0356194Y0285855
G01X03545Y0286
G01X0Y0286
G01X-0001988Y02858
G01X-0003896Y028521
G01X-0005648Y0284252
G01X-0007176Y0282965
G01X-0008417Y02814
G01X-0009322Y0279619
G01X-0009855Y0277694
G01X-001Y0276
G01X-001Y00575
G01X-00098Y0055512
G01X-000921Y0053604
G01X-0008252Y0051852
G01X-0006965Y0050324
G01X-00054Y0049083
G01X-0003619Y0048178
G01X-0001694Y0047645
G01X0Y00475
G01X03545Y00475
G01X0356488Y00477
M16
M17
M30
