M48
;Layer_Color=9474304
;FILE_FORMAT=2:5
INCH,LZ
;TYPE=PLATED
T1F00S00C0.01500
T2F00S00C0.03200
T3F00S00C0.03543
T4F00S00C0.03937
T5F00S00C0.04000
T6F00S00C0.04331
T7F00S00C0.05906
T8F00S00C0.11811
T9F00S00C0.23622
%
T01
X0145Y0165871
X0142899Y0169601
X01425Y018
X0177Y0174
X0205Y0173
X0203039Y0164539
X0195Y01575
X0165Y015
X0192Y0194
X0135Y0195
X013Y02
X0145Y0205
X0075Y0225
T02
X0068563Y01025
X0076437
X00925
X01025
X0105374Y017
X00975
T03
X0155Y01075
X0165
X0175
X0135Y015
Y016
Y017
X0315Y022134
X031Y023
X0305Y023866
X03Y0247321
X0185Y0265
X0175
X0165
X0155
X0045Y024866
X004Y024
X0035Y023134
X003Y0222679
T04
X02325Y02175
X02225
X02125
X02025
T05
X0065Y017
X0085
X023126Y0163287
Y0148898
Y0130787
X0258425
Y0148898
Y0163287
Y0181398
X023126
T06
X0075Y01225
X0085
X0095
Y015
X0085
X0075
T07
X01575Y00825
X01775
T08
X00125Y007
X03425
X034252Y0263779
X0011811
T09
X0035Y011
Y0155
M30
