G04*
G04 #@! TF.GenerationSoftware,Altium Limited,Altium Designer,19.1.5 (86)*
G04*
G04 Layer_Color=2752767*
%FSLAX25Y25*%
%MOIN*%
G70*
G01*
G75*
%ADD13C,0.01000*%
%ADD69C,0.00200*%
%ADD70C,0.00267*%
D13*
X35000Y253000D02*
X299000D01*
Y57500D02*
Y253000D01*
X35000Y57500D02*
X299000D01*
X35000D02*
Y253000D01*
D69*
X95200Y144700D02*
Y146300D01*
X96800D01*
Y144700D01*
X95200D01*
X85200D02*
Y146300D01*
X86800D01*
Y144700D01*
X85200D01*
X75200D02*
Y146300D01*
X76800D01*
Y144700D01*
X75200D01*
X135000Y149200D02*
X134200Y150800D01*
X135800D01*
X135000Y149200D01*
Y159200D02*
X134200Y160800D01*
X135800D01*
X135000Y159200D01*
Y169200D02*
X134200Y170800D01*
X135800D01*
X135000Y169200D01*
X85000Y88200D02*
X85400Y88600D01*
X85800D01*
X85400Y89000D01*
X85800Y89400D01*
X85400D01*
X85000Y89800D01*
X84600Y89400D01*
X84200D01*
X84600Y89000D01*
X84200Y88600D01*
X84600D01*
X85000Y88200D01*
X102700Y124700D02*
X103100Y125500D01*
X102700Y126300D01*
X103500Y125900D01*
X104300Y126300D01*
X103900Y125500D01*
X104300Y124700D01*
X103500Y125100D01*
X102700Y124700D01*
X92700D02*
X93100Y125500D01*
X92700Y126300D01*
X93500Y125900D01*
X94300Y126300D01*
X93900Y125500D01*
X94300Y124700D01*
X93500Y125100D01*
X92700Y124700D01*
X105574Y192200D02*
X105974Y193000D01*
X105574Y193800D01*
X106374Y193400D01*
X107174Y193800D01*
X106774Y193000D01*
X107174Y192200D01*
X106374Y192600D01*
X105574Y192200D01*
X97700D02*
X98100Y193000D01*
X97700Y193800D01*
X98500Y193400D01*
X99300Y193800D01*
X98900Y193000D01*
X99300Y192200D01*
X98500Y192600D01*
X97700Y192200D01*
X85600Y192600D02*
Y192200D01*
X86400D01*
Y192600D01*
X86800D01*
Y193400D01*
X86400D01*
Y193800D01*
X85600D01*
Y193400D01*
X85200D01*
Y192600D01*
X85600D01*
X65600D02*
Y192200D01*
X66400D01*
Y192600D01*
X66800D01*
Y193400D01*
X66400D01*
Y193800D01*
X65600D01*
Y193400D01*
X65200D01*
Y192600D01*
X65600D01*
X212600Y126600D02*
Y126200D01*
X213400D01*
Y126600D01*
X213800D01*
Y127400D01*
X213400D01*
Y127800D01*
X212600D01*
Y127400D01*
X212200D01*
Y126600D01*
X212600D01*
X230710D02*
Y126200D01*
X231510D01*
Y126600D01*
X231910D01*
Y127400D01*
X231510D01*
Y127800D01*
X230710D01*
Y127400D01*
X230310D01*
Y126600D01*
X230710D01*
Y99435D02*
Y99035D01*
X231510D01*
Y99435D01*
X231910D01*
Y100235D01*
X231510D01*
Y100635D01*
X230710D01*
Y100235D01*
X230310D01*
Y99435D01*
X230710D01*
X212600D02*
Y99035D01*
X213400D01*
Y99435D01*
X213800D01*
Y100235D01*
X213400D01*
Y100635D01*
X212600D01*
Y100235D01*
X212200D01*
Y99435D01*
X212600D01*
X156700Y81700D02*
X157100D01*
X157500Y82100D01*
X157900Y81700D01*
X158300D01*
Y82100D01*
X157900Y82500D01*
X158300Y82900D01*
Y83300D01*
X157900D01*
X157500Y82900D01*
X157100Y83300D01*
X156700D01*
Y82900D01*
X157100Y82500D01*
X156700Y82100D01*
Y81700D01*
X176700D02*
X177100D01*
X177500Y82100D01*
X177900Y81700D01*
X178300D01*
Y82100D01*
X177900Y82500D01*
X178300Y82900D01*
Y83300D01*
X177900D01*
X177500Y82900D01*
X177100Y83300D01*
X176700D01*
Y82900D01*
X177100Y82500D01*
X176700Y82100D01*
Y81700D01*
X237000Y167200D02*
X236200Y168800D01*
X237800D01*
X237000Y167200D01*
Y177200D02*
X236200Y178800D01*
X237800D01*
X237000Y177200D01*
X237000Y187200D02*
X236200Y188800D01*
X237800D01*
X237000Y187200D01*
X237000Y197200D02*
X236200Y198800D01*
X237800D01*
X237000Y197200D01*
X160000Y213200D02*
X159200Y214800D01*
X160800D01*
X160000Y213200D01*
Y203200D02*
X159200Y204800D01*
X160800D01*
X160000Y203200D01*
Y223200D02*
X159200Y224800D01*
X160800D01*
X160000Y223200D01*
X75200Y172200D02*
Y173800D01*
X76800D01*
Y172200D01*
X75200D01*
X85200D02*
Y173800D01*
X86800D01*
Y172200D01*
X85200D01*
X95200D02*
Y173800D01*
X96800D01*
Y172200D01*
X95200D01*
X85000Y228200D02*
X85400Y228600D01*
X85800D01*
X85400Y229000D01*
X85800Y229400D01*
X85400D01*
X85000Y229800D01*
X84600Y229400D01*
X84200D01*
X84600Y229000D01*
X84200Y228600D01*
X84600D01*
X85000Y228200D01*
X68763Y124700D02*
X69163Y125500D01*
X68763Y126300D01*
X69563Y125900D01*
X70363Y126300D01*
X69963Y125500D01*
X70363Y124700D01*
X69563Y125100D01*
X68763Y124700D01*
X76637D02*
X77037Y125500D01*
X76637Y126300D01*
X77437Y125900D01*
X78237Y126300D01*
X77837Y125500D01*
X78237Y124700D01*
X77437Y125100D01*
X76637Y124700D01*
X262000Y167200D02*
X261200Y168800D01*
X262800D01*
X262000Y167200D01*
Y177200D02*
X261200Y178800D01*
X262800D01*
X262000Y177200D01*
Y187200D02*
X261200Y188800D01*
X262800D01*
X262000Y187200D01*
Y197200D02*
X261200Y198800D01*
X262800D01*
X262000Y197200D01*
X288000Y167200D02*
X287200Y168800D01*
X288800D01*
X288000Y167200D01*
Y177200D02*
X287200Y178800D01*
X288800D01*
X288000Y177200D01*
Y187200D02*
X287200Y188800D01*
X288800D01*
X288000Y187200D01*
Y197200D02*
X287200Y198800D01*
X288800D01*
X288000Y197200D01*
X48200Y241000D02*
X49000Y241800D01*
X49800Y241000D01*
X49000Y240200D01*
X48200Y241000D01*
X49200Y70000D02*
X50000Y70800D01*
X50800Y70000D01*
X50000Y69200D01*
X49200Y70000D01*
X282200D02*
X283000Y70800D01*
X283800Y70000D01*
X283000Y69200D01*
X282200Y70000D01*
X284200Y239000D02*
X285000Y239800D01*
X285800Y239000D01*
X285000Y238200D01*
X284200Y239000D01*
X151700Y193200D02*
Y194800D01*
X153300D01*
Y193200D01*
X151700D01*
X152100Y193600D02*
Y194400D01*
X152900D01*
Y193600D01*
X152100D01*
X140200Y178200D02*
Y179800D01*
X141800D01*
Y178200D01*
X140200D01*
X140600Y178600D02*
Y179400D01*
X141400D01*
Y178600D01*
X140600D01*
X277200Y144700D02*
Y146300D01*
X278800D01*
Y144700D01*
X277200D01*
X277600Y145100D02*
Y145900D01*
X278400D01*
Y145100D01*
X277600D01*
X251200Y144200D02*
Y145800D01*
X252800D01*
Y144200D01*
X251200D01*
X251600Y144600D02*
Y145400D01*
X252400D01*
Y144600D01*
X251600D01*
X226200Y144700D02*
Y146300D01*
X227800D01*
Y144700D01*
X226200D01*
X226600Y145100D02*
Y145900D01*
X227400D01*
Y145100D01*
X226600D01*
X136700Y183700D02*
Y185300D01*
X138300D01*
Y183700D01*
X136700D01*
X137100Y184100D02*
Y184900D01*
X137900D01*
Y184100D01*
X137100D01*
X147700Y148200D02*
Y149800D01*
X149300D01*
Y148200D01*
X147700D01*
X148100Y148600D02*
Y149400D01*
X148900D01*
Y148600D01*
X148100D01*
X167200Y145700D02*
Y147300D01*
X168800D01*
Y145700D01*
X167200D01*
X167600Y146100D02*
Y146900D01*
X168400D01*
Y146100D01*
X167600D01*
X167200Y149700D02*
Y151300D01*
X168800D01*
Y149700D01*
X167200D01*
X167600Y150100D02*
Y150900D01*
X168400D01*
Y150100D01*
X167600D01*
X147200Y153700D02*
Y155300D01*
X148800D01*
Y153700D01*
X147200D01*
X147600Y154100D02*
Y154900D01*
X148400D01*
Y154100D01*
X147600D01*
X202200Y148200D02*
Y149800D01*
X203800D01*
Y148200D01*
X202200D01*
X202600Y148600D02*
Y149400D01*
X203400D01*
Y148600D01*
X202600D01*
X164700Y117200D02*
Y118800D01*
X166300D01*
Y117200D01*
X164700D01*
X165100Y117600D02*
Y118400D01*
X165900D01*
Y117600D01*
X165100D01*
X202200Y165200D02*
Y166800D01*
X203800D01*
Y165200D01*
X202200D01*
X202600Y165600D02*
Y166400D01*
X203400D01*
Y165600D01*
X202600D01*
X179700Y207200D02*
Y208800D01*
X181300D01*
Y207200D01*
X179700D01*
X180100Y207600D02*
Y208400D01*
X180900D01*
Y207600D01*
X180100D01*
X200239Y158153D02*
Y159753D01*
X201839D01*
Y158153D01*
X200239D01*
X200639Y158553D02*
Y159353D01*
X201439D01*
Y158553D01*
X200639D01*
X192200Y200700D02*
Y202300D01*
X193800D01*
Y200700D01*
X192200D01*
X192600Y201100D02*
Y201900D01*
X193400D01*
Y201100D01*
X192600D01*
X136200Y191200D02*
Y192800D01*
X137800D01*
Y191200D01*
X136200D01*
X136600Y191600D02*
Y192400D01*
X137400D01*
Y191600D01*
X136600D01*
X204200Y185200D02*
Y186800D01*
X205800D01*
Y185200D01*
X204200D01*
X204600Y185600D02*
Y186400D01*
X205400D01*
Y185600D01*
X204600D01*
X213200Y179200D02*
Y180800D01*
X214800D01*
Y179200D01*
X213200D01*
X213600Y179600D02*
Y180400D01*
X214400D01*
Y179600D01*
X213600D01*
X212200Y168200D02*
Y169800D01*
X213800D01*
Y168200D01*
X212200D01*
X212600Y168600D02*
Y169400D01*
X213400D01*
Y168600D01*
X212600D01*
D70*
X233300Y217500D02*
G03*
X233300Y217500I-800J0D01*
G01*
X223300D02*
G03*
X223300Y217500I-800J0D01*
G01*
X213300D02*
G03*
X213300Y217500I-800J0D01*
G01*
X203300D02*
G03*
X203300Y217500I-800J0D01*
G01*
M02*
