G04*
G04 #@! TF.GenerationSoftware,Altium Limited,Altium Designer,19.1.5 (86)*
G04*
G04 Layer_Color=8421504*
%FSLAX25Y25*%
%MOIN*%
G70*
G01*
G75*
%ADD13C,0.01000*%
%ADD14R,0.06000X0.06000*%
%ADD15R,0.05000X0.05000*%
%ADD16R,0.07087X0.05118*%
%ADD17R,0.03543X0.03543*%
%ADD18R,0.05906X0.05118*%
%ADD19R,0.05118X0.05906*%
%ADD20R,0.05000X0.05000*%
D13*
X35000Y253000D02*
X299000D01*
Y57500D02*
Y253000D01*
X35000Y57500D02*
X299000D01*
X35000D02*
Y253000D01*
D14*
X146500Y214000D02*
D03*
Y201000D02*
D03*
X130500Y216000D02*
D03*
Y203000D02*
D03*
D15*
X142500Y85000D02*
D03*
X134100D02*
D03*
D16*
X203000Y118709D02*
D03*
Y107291D02*
D03*
D17*
X146500Y232120D02*
D03*
Y224000D02*
D03*
X130500Y234120D02*
D03*
Y226000D02*
D03*
D18*
X203000Y135653D02*
D03*
Y142347D02*
D03*
D19*
X223346Y232500D02*
D03*
X216653D02*
D03*
D20*
X252000Y178000D02*
D03*
Y169600D02*
D03*
X278000Y177400D02*
D03*
Y169000D02*
D03*
X227000Y177400D02*
D03*
Y169000D02*
D03*
X252000Y159000D02*
D03*
Y150600D02*
D03*
X278000Y159400D02*
D03*
Y151000D02*
D03*
X227000Y159400D02*
D03*
Y151000D02*
D03*
M02*
