G04*
G04 #@! TF.GenerationSoftware,Altium Limited,Altium Designer,19.1.5 (86)*
G04*
G04 Layer_Physical_Order=4*
G04 Layer_Color=16711680*
%FSLAX25Y25*%
%MOIN*%
G70*
G01*
G75*
%ADD13C,0.01000*%
%ADD15R,0.05000X0.05000*%
%ADD19R,0.05118X0.05906*%
%ADD43C,0.01200*%
%ADD45C,0.06693*%
%ADD46R,0.06693X0.06693*%
%ADD47R,0.06299X0.09843*%
%ADD48O,0.06299X0.09843*%
%ADD49R,0.05906X0.05906*%
%ADD50C,0.05906*%
%ADD51C,0.35433*%
%ADD52C,0.06400*%
%ADD53C,0.07900*%
%ADD54C,0.12598*%
%ADD55R,0.12598X0.12598*%
%ADD56R,0.19685X0.19685*%
%ADD57R,0.19685X0.19685*%
%ADD58C,0.03000*%
%ADD59O,0.07087X0.01181*%
%ADD60O,0.01181X0.07087*%
%ADD61R,0.21654X0.07874*%
%ADD62R,0.05118X0.03937*%
%ADD63R,0.03937X0.05118*%
G36*
X299000Y57500D02*
X35000D01*
Y253000D01*
X299000D01*
Y57500D01*
D02*
G37*
%LPC*%
G36*
X59842Y251842D02*
X51000D01*
Y243000D01*
X59842D01*
Y251842D01*
D02*
G37*
G36*
X47000D02*
X38157D01*
Y243000D01*
X47000D01*
Y251842D01*
D02*
G37*
G36*
X295843Y249843D02*
X287000D01*
Y241000D01*
X295843D01*
Y249843D01*
D02*
G37*
G36*
X283000D02*
X274158D01*
Y241000D01*
X283000D01*
Y249843D01*
D02*
G37*
G36*
X59842Y239000D02*
X51000D01*
Y230157D01*
X59842D01*
Y239000D01*
D02*
G37*
G36*
X47000D02*
X38157D01*
Y230157D01*
X47000D01*
Y239000D01*
D02*
G37*
G36*
X295843Y237000D02*
X287000D01*
Y228157D01*
X295843D01*
Y237000D01*
D02*
G37*
G36*
X283000D02*
X274158D01*
Y228157D01*
X283000D01*
Y237000D01*
D02*
G37*
G36*
X163953Y227953D02*
X162000D01*
Y226000D01*
X163953D01*
Y227953D01*
D02*
G37*
G36*
X158000D02*
X156047D01*
Y226000D01*
X158000D01*
Y227953D01*
D02*
G37*
G36*
X163953Y222000D02*
X162000D01*
Y220047D01*
X163953D01*
Y222000D01*
D02*
G37*
G36*
X158000D02*
X156047D01*
Y220047D01*
X158000D01*
Y222000D01*
D02*
G37*
G36*
X236650Y223421D02*
X234500D01*
Y219500D01*
X236650D01*
Y223421D01*
D02*
G37*
G36*
X230500D02*
X228350D01*
Y219500D01*
X230500D01*
Y223421D01*
D02*
G37*
G36*
X202500Y223154D02*
X201495Y223022D01*
X200559Y222634D01*
X199754Y222017D01*
X199137Y221213D01*
X198749Y220277D01*
X198617Y219272D01*
Y215728D01*
X198749Y214723D01*
X198894Y214373D01*
X198920Y214245D01*
X198992Y214137D01*
X199137Y213787D01*
X199754Y212983D01*
X200559Y212366D01*
X201495Y211978D01*
X202500Y211845D01*
X203505Y211978D01*
X204441Y212366D01*
X205246Y212983D01*
X205863Y213787D01*
X206251Y214723D01*
X206383Y215728D01*
Y219272D01*
X206251Y220277D01*
X205863Y221213D01*
X205246Y222017D01*
X204441Y222634D01*
X203505Y223022D01*
X202500Y223154D01*
D02*
G37*
G36*
X236650Y215500D02*
X234500D01*
Y211579D01*
X236650D01*
Y215500D01*
D02*
G37*
G36*
X230500D02*
X228350D01*
Y211579D01*
X230500D01*
Y215500D01*
D02*
G37*
G36*
X85000Y247456D02*
X82591Y247298D01*
X80223Y246827D01*
X77937Y246051D01*
X75772Y244983D01*
X73765Y243642D01*
X71950Y242050D01*
X70358Y240235D01*
X69017Y238228D01*
X67949Y236063D01*
X67173Y233777D01*
X66702Y231409D01*
X66544Y229000D01*
X66702Y226591D01*
X67173Y224223D01*
X67949Y221937D01*
X69017Y219772D01*
X70358Y217765D01*
X71950Y215950D01*
X73765Y214358D01*
X75772Y213017D01*
X77937Y211949D01*
X80223Y211173D01*
X82591Y210702D01*
X85000Y210544D01*
X87409Y210702D01*
X89777Y211173D01*
X92063Y211949D01*
X94228Y213017D01*
X96235Y214358D01*
X98050Y215950D01*
X99642Y217765D01*
X100983Y219772D01*
X102051Y221937D01*
X102827Y224223D01*
X103298Y226591D01*
X103456Y229000D01*
X103298Y231409D01*
X102827Y233777D01*
X102051Y236063D01*
X100983Y238228D01*
X99642Y240235D01*
X98050Y242050D01*
X96235Y243642D01*
X94228Y244983D01*
X92063Y246051D01*
X89777Y246827D01*
X87409Y247298D01*
X85000Y247456D01*
D02*
G37*
G36*
X160000Y217684D02*
X159046Y217559D01*
X158158Y217191D01*
X157395Y216605D01*
X156809Y215842D01*
X156441Y214954D01*
X156316Y214000D01*
X156441Y213046D01*
X156809Y212158D01*
X157395Y211395D01*
X158158Y210809D01*
X159046Y210441D01*
X160000Y210316D01*
X160954Y210441D01*
X161842Y210809D01*
X162605Y211395D01*
X163191Y212158D01*
X163559Y213046D01*
X163684Y214000D01*
X163559Y214954D01*
X163191Y215842D01*
X162605Y216605D01*
X161842Y217191D01*
X160954Y217559D01*
X160000Y217684D01*
D02*
G37*
G36*
X88000Y197529D02*
Y195000D01*
X90529D01*
X90324Y195496D01*
X89530Y196530D01*
X88496Y197324D01*
X88000Y197529D01*
D02*
G37*
G36*
X96500Y196718D02*
X96382Y196669D01*
X95504Y195995D01*
X94831Y195118D01*
X94782Y195000D01*
X96500D01*
Y196718D01*
D02*
G37*
G36*
X84000Y197529D02*
X83504Y197324D01*
X82470Y196530D01*
X81676Y195496D01*
X81471Y195000D01*
X84000D01*
Y197529D01*
D02*
G37*
G36*
X106374Y196934D02*
X105356Y196800D01*
X104407Y196407D01*
X103593Y195782D01*
X102967Y194967D01*
X102870Y194732D01*
X102329D01*
X102169Y195118D01*
X101496Y195995D01*
X100618Y196669D01*
X100500Y196718D01*
Y193000D01*
Y189282D01*
X100618Y189331D01*
X101496Y190005D01*
X102169Y190882D01*
X102329Y191268D01*
X102870D01*
X102967Y191033D01*
X103593Y190218D01*
X104407Y189593D01*
X105356Y189200D01*
X106374Y189066D01*
X107392Y189200D01*
X108341Y189593D01*
X109155Y190218D01*
X109781Y191033D01*
X110174Y191982D01*
X110308Y193000D01*
X110174Y194018D01*
X109781Y194967D01*
X109155Y195782D01*
X108341Y196407D01*
X107392Y196800D01*
X106374Y196934D01*
D02*
G37*
G36*
X291653Y201653D02*
X284347D01*
Y194347D01*
X291653D01*
Y201653D01*
D02*
G37*
G36*
X265653D02*
X258347D01*
Y194347D01*
X265653D01*
Y201653D01*
D02*
G37*
G36*
X240653D02*
X233347D01*
Y194347D01*
X240653D01*
Y201653D01*
D02*
G37*
G36*
X96500Y191000D02*
X94782D01*
X94831Y190882D01*
X95504Y190005D01*
X96382Y189331D01*
X96500Y189282D01*
Y191000D01*
D02*
G37*
G36*
X90529D02*
X88000D01*
Y188471D01*
X88496Y188676D01*
X89530Y189470D01*
X90324Y190504D01*
X90529Y191000D01*
D02*
G37*
G36*
X84000D02*
X81471D01*
X81676Y190504D01*
X82470Y189470D01*
X83504Y188676D01*
X84000Y188471D01*
Y191000D01*
D02*
G37*
G36*
X66000Y197690D02*
X64786Y197530D01*
X63655Y197062D01*
X62684Y196316D01*
X61938Y195345D01*
X61470Y194214D01*
X61310Y193000D01*
X61470Y191786D01*
X61938Y190655D01*
X62684Y189684D01*
X63655Y188938D01*
X64786Y188470D01*
X66000Y188310D01*
X67214Y188470D01*
X68345Y188938D01*
X69316Y189684D01*
X70062Y190655D01*
X70530Y191786D01*
X70690Y193000D01*
X70530Y194214D01*
X70062Y195345D01*
X69316Y196316D01*
X68345Y197062D01*
X67214Y197530D01*
X66000Y197690D01*
D02*
G37*
G36*
X243000Y241325D02*
X184626D01*
X184119Y241225D01*
X183689Y240937D01*
X169047Y226295D01*
X168760Y225866D01*
X168659Y225358D01*
Y197076D01*
X168159Y196685D01*
X168016Y196713D01*
X167873Y196685D01*
X167373Y197076D01*
Y197953D01*
X167272Y198460D01*
X166984Y198890D01*
X163345Y202530D01*
X163559Y203046D01*
X163684Y204000D01*
X163559Y204954D01*
X163191Y205842D01*
X162605Y206605D01*
X161842Y207191D01*
X160954Y207559D01*
X160000Y207684D01*
X159046Y207559D01*
X158158Y207191D01*
X157395Y206605D01*
X156809Y205842D01*
X156441Y204954D01*
X156316Y204000D01*
X156441Y203046D01*
X156809Y202158D01*
X157395Y201395D01*
X158158Y200809D01*
X159046Y200441D01*
X160000Y200316D01*
X160954Y200441D01*
X161470Y200655D01*
X164603Y197522D01*
X164580Y197001D01*
X164185Y196692D01*
X164079Y196713D01*
X163575Y196613D01*
X163148Y196328D01*
X163041D01*
X162614Y196613D01*
X162110Y196713D01*
X161607Y196613D01*
X161521Y196556D01*
X161126Y196355D01*
X160731Y196556D01*
X160645Y196613D01*
X160142Y196713D01*
X159638Y196613D01*
X159553Y196556D01*
X159158Y196355D01*
X158762Y196556D01*
X158677Y196613D01*
X158173Y196713D01*
X157670Y196613D01*
X157243Y196328D01*
X156958Y195901D01*
X156857Y195398D01*
Y193770D01*
X155903D01*
X154736Y194937D01*
X154345Y195199D01*
X154086Y195586D01*
X153358Y196072D01*
X152500Y196243D01*
X151642Y196072D01*
X150914Y195586D01*
X150428Y194858D01*
X150257Y194000D01*
X150428Y193142D01*
X150914Y192414D01*
X151642Y191928D01*
X152500Y191757D01*
X153358Y191928D01*
X153741Y192183D01*
X154417Y191508D01*
X154847Y191220D01*
X155354Y191119D01*
X156857D01*
Y189492D01*
X156958Y188989D01*
X157077Y188810D01*
X157130Y188730D01*
X156770Y188370D01*
X156690Y188423D01*
X156511Y188542D01*
X156008Y188643D01*
X153104D01*
X153055Y188652D01*
X150670D01*
X147754Y191569D01*
X147324Y191856D01*
X147259Y191869D01*
Y194668D01*
X140741D01*
Y193325D01*
X138760D01*
X138586Y193586D01*
X137858Y194072D01*
X137000Y194243D01*
X136142Y194072D01*
X135414Y193586D01*
X134928Y192858D01*
X134757Y192000D01*
X134928Y191142D01*
X135414Y190414D01*
X136142Y189928D01*
X137000Y189757D01*
X137858Y189928D01*
X138586Y190414D01*
X138760Y190674D01*
X140741D01*
Y189331D01*
X145240D01*
X145369Y189306D01*
X146267D01*
X147152Y188421D01*
X146945Y187921D01*
X146039D01*
Y184953D01*
X142039D01*
Y187921D01*
X140480D01*
Y185723D01*
X139689D01*
X139500Y186007D01*
Y184500D01*
Y182993D01*
X139689Y183276D01*
X140480D01*
Y181984D01*
X144912D01*
X145103Y181522D01*
X143804Y180224D01*
X142828D01*
X142586Y180586D01*
X141858Y181072D01*
X141000Y181243D01*
X140142Y181072D01*
X139414Y180586D01*
X138928Y179858D01*
X138757Y179000D01*
X138928Y178142D01*
X139414Y177414D01*
X140142Y176928D01*
X141000Y176757D01*
X141858Y176928D01*
X142586Y177414D01*
X142828Y177777D01*
X144311D01*
X144779Y177870D01*
X145176Y178135D01*
X148308Y181266D01*
X148850Y181102D01*
X148887Y180918D01*
X148944Y180832D01*
X149145Y180437D01*
X148944Y180042D01*
X148887Y179956D01*
X148786Y179453D01*
X148887Y178949D01*
X149172Y178522D01*
Y178415D01*
X148887Y177988D01*
X148786Y177484D01*
X148887Y176981D01*
X148944Y176895D01*
X149145Y176500D01*
X148944Y176105D01*
X148887Y176019D01*
X148786Y175516D01*
X148887Y175012D01*
X148944Y174927D01*
X149145Y174531D01*
X148944Y174136D01*
X148887Y174051D01*
X148786Y173547D01*
X148887Y173044D01*
X149172Y172617D01*
Y172509D01*
X148887Y172082D01*
X148786Y171579D01*
X148887Y171075D01*
X148944Y170990D01*
X149145Y170595D01*
X148944Y170199D01*
X148887Y170114D01*
X148786Y169610D01*
X148887Y169107D01*
X149172Y168680D01*
Y168572D01*
X148887Y168145D01*
X148786Y167642D01*
X148817Y167489D01*
X148431Y166989D01*
X138804D01*
X137950Y167844D01*
X138191Y168158D01*
X138559Y169046D01*
X138684Y170000D01*
X138559Y170954D01*
X138191Y171842D01*
X137605Y172605D01*
X136842Y173191D01*
X135954Y173559D01*
X135000Y173684D01*
X134046Y173559D01*
X133158Y173191D01*
X132395Y172605D01*
X131809Y171842D01*
X131441Y170954D01*
X131316Y170000D01*
X131441Y169046D01*
X131809Y168158D01*
X132395Y167395D01*
X133158Y166809D01*
X134046Y166441D01*
X135000Y166316D01*
X135644Y166401D01*
X137318Y164726D01*
X137748Y164439D01*
X138255Y164338D01*
X150112D01*
X150159Y164348D01*
X153055D01*
X153104Y164357D01*
X156008D01*
X156511Y164458D01*
X156690Y164577D01*
X156770Y164630D01*
X157130Y164270D01*
X157077Y164190D01*
X156958Y164011D01*
X156857Y163508D01*
Y160604D01*
X156848Y160555D01*
Y159799D01*
X143307D01*
X142169Y160937D01*
X141739Y161225D01*
X141232Y161326D01*
X138405D01*
X138191Y161842D01*
X137605Y162605D01*
X136842Y163191D01*
X135954Y163559D01*
X135000Y163684D01*
X134046Y163559D01*
X133158Y163191D01*
X132395Y162605D01*
X131809Y161842D01*
X131441Y160954D01*
X131316Y160000D01*
X131441Y159046D01*
X131809Y158158D01*
X132395Y157395D01*
X133158Y156809D01*
X134046Y156441D01*
X135000Y156316D01*
X135954Y156441D01*
X136842Y156809D01*
X137605Y157395D01*
X138191Y158158D01*
X138405Y158675D01*
X140683D01*
X141821Y157537D01*
X142251Y157249D01*
X142758Y157148D01*
X147475D01*
X147524Y156648D01*
X147142Y156572D01*
X146414Y156086D01*
X145928Y155358D01*
X145757Y154500D01*
X145928Y153642D01*
X146414Y152914D01*
X147142Y152428D01*
X148000Y152257D01*
X148858Y152428D01*
X149586Y152914D01*
X149760Y153174D01*
X152175D01*
X152284Y152720D01*
X152284D01*
Y150326D01*
X150260D01*
X150086Y150586D01*
X149358Y151072D01*
X148500Y151243D01*
X147642Y151072D01*
X146914Y150586D01*
X146428Y149858D01*
X146257Y149000D01*
X146428Y148142D01*
X146914Y147414D01*
X147642Y146928D01*
X148500Y146757D01*
X149358Y146928D01*
X150086Y147414D01*
X150260Y147675D01*
X152284D01*
Y146202D01*
X157621D01*
Y150845D01*
X158051Y151275D01*
X158734D01*
X159031Y151030D01*
Y145941D01*
X160000D01*
Y149500D01*
X164000D01*
Y145770D01*
X164135Y145635D01*
X164532Y145370D01*
X165000Y145276D01*
X165811D01*
X166198Y144698D01*
X167025Y144145D01*
X168000Y143951D01*
X168461Y144043D01*
X168707Y143582D01*
X160951Y135826D01*
X159326D01*
Y139137D01*
X136272D01*
Y129863D01*
X149811D01*
Y121653D01*
X149241D01*
Y114347D01*
X155634D01*
Y114047D01*
X157193D01*
Y118000D01*
Y121953D01*
X155634D01*
Y121653D01*
X152462D01*
Y129863D01*
X159326D01*
Y133175D01*
X161500D01*
X162007Y133275D01*
X162437Y133563D01*
X171737Y142863D01*
X172025Y143293D01*
X172125Y143800D01*
Y151660D01*
X172025Y152167D01*
X171737Y152597D01*
X171469Y152865D01*
X171500Y153083D01*
X172030Y153260D01*
X173649Y151641D01*
Y137837D01*
X173674Y137709D01*
Y129863D01*
X177021D01*
Y121653D01*
X175213D01*
Y121953D01*
X173654D01*
Y118000D01*
Y114047D01*
X175213D01*
Y114347D01*
X181606D01*
Y121653D01*
X179672D01*
Y129863D01*
X196728D01*
Y139137D01*
X176300D01*
Y152190D01*
X176199Y152698D01*
X175911Y153128D01*
X173526Y155514D01*
X173547Y155914D01*
X173921Y156287D01*
X174425Y156387D01*
X174510Y156444D01*
X174906Y156645D01*
X175301Y156444D01*
X175386Y156387D01*
X175890Y156287D01*
X176393Y156387D01*
X176479Y156444D01*
X176874Y156645D01*
X177269Y156444D01*
X177355Y156387D01*
X177858Y156287D01*
X178362Y156387D01*
X178447Y156444D01*
X178842Y156645D01*
X179238Y156444D01*
X179323Y156387D01*
X179827Y156287D01*
X180330Y156387D01*
X180757Y156672D01*
X181042Y157099D01*
X181143Y157602D01*
Y163508D01*
X181042Y164011D01*
X180923Y164190D01*
X180870Y164270D01*
X181230Y164630D01*
X181310Y164577D01*
X181489Y164458D01*
X181992Y164357D01*
X184896D01*
X184945Y164348D01*
X187330D01*
X190716Y160962D01*
Y160369D01*
X190816Y159861D01*
X191104Y159431D01*
X191780Y158755D01*
Y156284D01*
X198298D01*
Y157627D01*
X199279D01*
X199453Y157367D01*
X200181Y156880D01*
X201039Y156710D01*
X201898Y156880D01*
X202625Y157367D01*
X203112Y158094D01*
X203282Y158953D01*
X203112Y159811D01*
X202625Y160539D01*
X201898Y161025D01*
X201039Y161196D01*
X200181Y161025D01*
X199453Y160539D01*
X199279Y160278D01*
X198298D01*
Y161621D01*
X193344D01*
X193265Y162018D01*
X192978Y162448D01*
X192857Y162570D01*
X193000Y162915D01*
Y166000D01*
Y168968D01*
X191441D01*
Y168692D01*
X189438D01*
X189299Y168869D01*
X189130Y169192D01*
X189214Y169610D01*
X189113Y170114D01*
X189056Y170199D01*
X188855Y170595D01*
X189056Y170990D01*
X189113Y171075D01*
X189204Y171532D01*
X189392Y171671D01*
X189676Y171819D01*
X189740Y171775D01*
X190247Y171675D01*
X191800D01*
Y169800D01*
X198200D01*
Y176159D01*
X199900D01*
Y175000D01*
X203400D01*
Y171000D01*
X199900D01*
Y169500D01*
X201777D01*
Y168189D01*
X201198Y167802D01*
X200811Y167224D01*
X198559D01*
Y168968D01*
X197000D01*
Y166000D01*
Y163031D01*
X198559D01*
Y164777D01*
X200811D01*
X201000Y164493D01*
Y166000D01*
X203000D01*
Y168000D01*
X204507D01*
X204223Y168189D01*
Y169500D01*
X206900D01*
Y174572D01*
X207362Y174764D01*
X211425Y170700D01*
X211414Y170586D01*
X210928Y169858D01*
X210757Y169000D01*
X210928Y168142D01*
X211414Y167414D01*
X212142Y166928D01*
X213000Y166757D01*
X213858Y166928D01*
X214586Y167414D01*
X215072Y168142D01*
X215243Y169000D01*
X215072Y169858D01*
X214828Y170223D01*
Y170497D01*
X214727Y171004D01*
X214440Y171434D01*
X208209Y177665D01*
X208401Y178127D01*
X212843D01*
X213142Y177928D01*
X214000Y177757D01*
X214858Y177928D01*
X215586Y178414D01*
X216072Y179142D01*
X216243Y180000D01*
X216072Y180858D01*
X215586Y181586D01*
X214858Y182072D01*
X214000Y182243D01*
X213142Y182072D01*
X212414Y181586D01*
X211928Y180858D01*
X211912Y180778D01*
X202306D01*
X202115Y181240D01*
X204693Y183818D01*
X205000Y183757D01*
X205858Y183928D01*
X206586Y184414D01*
X207072Y185142D01*
X207243Y186000D01*
X207072Y186858D01*
X206586Y187586D01*
X205858Y188072D01*
X205000Y188243D01*
X204142Y188072D01*
X203414Y187586D01*
X202928Y186858D01*
X202757Y186000D01*
X202818Y185693D01*
X199872Y182747D01*
X189576D01*
X189185Y183247D01*
X189214Y183390D01*
X189113Y183893D01*
X189056Y183979D01*
X188855Y184374D01*
X189056Y184769D01*
X189113Y184855D01*
X189214Y185358D01*
X189185Y185501D01*
X189576Y186001D01*
X191408D01*
X191915Y186102D01*
X192345Y186390D01*
X205675Y199719D01*
X207816D01*
X208323Y199820D01*
X208753Y200107D01*
X220879Y212233D01*
X221495Y211978D01*
X222500Y211845D01*
X223505Y211978D01*
X224441Y212366D01*
X225246Y212983D01*
X225863Y213787D01*
X226251Y214723D01*
X226383Y215728D01*
Y219272D01*
X226251Y220277D01*
X225863Y221213D01*
X225246Y222017D01*
X224441Y222634D01*
X223505Y223022D01*
X222500Y223154D01*
X221495Y223022D01*
X220559Y222634D01*
X219754Y222017D01*
X219137Y221213D01*
X218749Y220277D01*
X218617Y219272D01*
Y215728D01*
X218749Y214723D01*
X219005Y214107D01*
X207267Y202370D01*
X205126D01*
X204618Y202269D01*
X204188Y201982D01*
X190859Y188652D01*
X184945D01*
X184896Y188643D01*
X181992D01*
X181489Y188542D01*
X181310Y188423D01*
X181230Y188370D01*
X180870Y188730D01*
X180923Y188810D01*
X181042Y188989D01*
X181143Y189492D01*
Y192396D01*
X181152Y192445D01*
Y194063D01*
X181979D01*
X182486Y194164D01*
X182916Y194451D01*
X186706Y198241D01*
X190168D01*
Y200174D01*
X191240D01*
X191414Y199914D01*
X192142Y199428D01*
X193000Y199257D01*
X193858Y199428D01*
X194586Y199914D01*
X195072Y200642D01*
X195243Y201500D01*
X195072Y202358D01*
X194586Y203086D01*
X193858Y203572D01*
X193000Y203743D01*
X192142Y203572D01*
X191414Y203086D01*
X191240Y202825D01*
X190168D01*
Y204759D01*
X184832D01*
Y200115D01*
X183883Y199167D01*
X183421Y199358D01*
Y199461D01*
X180453D01*
Y203461D01*
X183421D01*
Y205020D01*
X181723D01*
Y205811D01*
X182007Y206000D01*
X178993D01*
X179277Y205811D01*
Y205020D01*
X177484D01*
X177215Y205408D01*
Y212841D01*
X188049Y223675D01*
X206223D01*
X209005Y220893D01*
X208750Y220277D01*
X208617Y219272D01*
Y215728D01*
X208750Y214723D01*
X209137Y213787D01*
X209754Y212983D01*
X210559Y212366D01*
X211495Y211978D01*
X212500Y211845D01*
X213505Y211978D01*
X214441Y212366D01*
X215246Y212983D01*
X215863Y213787D01*
X216250Y214723D01*
X216383Y215728D01*
Y219272D01*
X216250Y220277D01*
X215863Y221213D01*
X215246Y222017D01*
X214441Y222634D01*
X213505Y223022D01*
X212500Y223154D01*
X211495Y223022D01*
X210879Y222767D01*
X207709Y225937D01*
X207279Y226225D01*
X206772Y226325D01*
X187500D01*
X186993Y226225D01*
X186563Y225937D01*
X175709Y215083D01*
X175247Y215275D01*
Y219604D01*
X175326Y220000D01*
X175326Y220000D01*
Y223451D01*
X186549Y234675D01*
X240451D01*
X243674Y231451D01*
Y196549D01*
X238470Y191345D01*
X237953Y191559D01*
X237000Y191684D01*
X236046Y191559D01*
X235158Y191191D01*
X234395Y190605D01*
X233809Y189842D01*
X233441Y188953D01*
X233316Y188000D01*
X233441Y187046D01*
X233809Y186158D01*
X234395Y185395D01*
X235158Y184809D01*
X236046Y184441D01*
X237000Y184316D01*
X237953Y184441D01*
X238842Y184809D01*
X239605Y185395D01*
X240191Y186158D01*
X240559Y187046D01*
X240684Y188000D01*
X240559Y188953D01*
X240345Y189470D01*
X245937Y195063D01*
X246225Y195493D01*
X246325Y196000D01*
Y230834D01*
X246787Y231025D01*
X250118Y227695D01*
Y198557D01*
X250219Y198049D01*
X250506Y197619D01*
X258655Y189470D01*
X258441Y188954D01*
X258316Y188000D01*
X258441Y187046D01*
X258809Y186158D01*
X259395Y185395D01*
X260158Y184809D01*
X261046Y184441D01*
X262000Y184316D01*
X262954Y184441D01*
X263842Y184809D01*
X264605Y185395D01*
X265191Y186158D01*
X265559Y187046D01*
X265684Y188000D01*
X265559Y188954D01*
X265191Y189842D01*
X264605Y190605D01*
X263842Y191191D01*
X262954Y191559D01*
X262000Y191684D01*
X261046Y191559D01*
X260530Y191345D01*
X252769Y199106D01*
Y227650D01*
X253269Y227857D01*
X263724Y217401D01*
Y210950D01*
X263825Y210443D01*
X264113Y210013D01*
X284655Y189470D01*
X284441Y188954D01*
X284316Y188000D01*
X284441Y187046D01*
X284809Y186158D01*
X285395Y185395D01*
X286158Y184809D01*
X287046Y184441D01*
X288000Y184316D01*
X288954Y184441D01*
X289842Y184809D01*
X290605Y185395D01*
X291191Y186158D01*
X291559Y187046D01*
X291684Y188000D01*
X291559Y188954D01*
X291191Y189842D01*
X290605Y190605D01*
X289842Y191191D01*
X288954Y191559D01*
X288000Y191684D01*
X287046Y191559D01*
X286530Y191345D01*
X266375Y211499D01*
Y217950D01*
X266274Y218457D01*
X265987Y218887D01*
X243937Y240937D01*
X243507Y241225D01*
X243000Y241325D01*
D02*
G37*
G36*
X88000Y176876D02*
Y175000D01*
X89876D01*
X89797Y175192D01*
X89100Y176100D01*
X88192Y176797D01*
X88000Y176876D01*
D02*
G37*
G36*
X84000D02*
X83808Y176797D01*
X82900Y176100D01*
X82203Y175192D01*
X82124Y175000D01*
X84000D01*
Y176876D01*
D02*
G37*
G36*
X288000Y181684D02*
X287046Y181559D01*
X286158Y181191D01*
X285395Y180605D01*
X284809Y179842D01*
X284441Y178954D01*
X284316Y178000D01*
X284441Y177046D01*
X284809Y176158D01*
X285395Y175395D01*
X286158Y174809D01*
X287046Y174441D01*
X288000Y174316D01*
X288954Y174441D01*
X289842Y174809D01*
X290605Y175395D01*
X291191Y176158D01*
X291559Y177046D01*
X291684Y178000D01*
X291559Y178954D01*
X291191Y179842D01*
X290605Y180605D01*
X289842Y181191D01*
X288954Y181559D01*
X288000Y181684D01*
D02*
G37*
G36*
X262000D02*
X261046Y181559D01*
X260158Y181191D01*
X259395Y180605D01*
X258809Y179842D01*
X258441Y178954D01*
X258316Y178000D01*
X258441Y177046D01*
X258809Y176158D01*
X259395Y175395D01*
X260158Y174809D01*
X261046Y174441D01*
X262000Y174316D01*
X262954Y174441D01*
X263842Y174809D01*
X264605Y175395D01*
X265191Y176158D01*
X265559Y177046D01*
X265684Y178000D01*
X265559Y178954D01*
X265191Y179842D01*
X264605Y180605D01*
X263842Y181191D01*
X262954Y181559D01*
X262000Y181684D01*
D02*
G37*
G36*
X237000D02*
X236046Y181559D01*
X235158Y181191D01*
X234395Y180605D01*
X233809Y179842D01*
X233441Y178954D01*
X233316Y178000D01*
X233441Y177046D01*
X233809Y176158D01*
X234395Y175395D01*
X235158Y174809D01*
X236046Y174441D01*
X237000Y174316D01*
X237954Y174441D01*
X238842Y174809D01*
X239605Y175395D01*
X240191Y176158D01*
X240559Y177046D01*
X240684Y178000D01*
X240559Y178954D01*
X240191Y179842D01*
X239605Y180605D01*
X238842Y181191D01*
X237954Y181559D01*
X237000Y181684D01*
D02*
G37*
G36*
X290000Y171448D02*
Y170000D01*
X291448D01*
X290819Y170819D01*
X290000Y171448D01*
D02*
G37*
G36*
X264000D02*
Y170000D01*
X265448D01*
X264819Y170819D01*
X264000Y171448D01*
D02*
G37*
G36*
X239000D02*
Y170000D01*
X240448D01*
X239819Y170819D01*
X239000Y171448D01*
D02*
G37*
G36*
X286000D02*
X285181Y170819D01*
X284552Y170000D01*
X286000D01*
Y171448D01*
D02*
G37*
G36*
X260000D02*
X259181Y170819D01*
X258552Y170000D01*
X260000D01*
Y171448D01*
D02*
G37*
G36*
X235000D02*
X234181Y170819D01*
X233552Y170000D01*
X235000D01*
Y171448D01*
D02*
G37*
G36*
X89876Y171000D02*
X88000D01*
Y169124D01*
X88192Y169203D01*
X89100Y169900D01*
X89797Y170808D01*
X89876Y171000D01*
D02*
G37*
G36*
X84000D02*
X82124D01*
X82203Y170808D01*
X82900Y169900D01*
X83808Y169203D01*
X84000Y169124D01*
Y171000D01*
D02*
G37*
G36*
X100047Y177047D02*
X91953D01*
Y168954D01*
X100047D01*
Y177047D01*
D02*
G37*
G36*
X76000Y177081D02*
X74944Y176942D01*
X73959Y176535D01*
X73114Y175886D01*
X72465Y175041D01*
X72058Y174056D01*
X71919Y173000D01*
X72058Y171944D01*
X72465Y170959D01*
X73114Y170114D01*
X73959Y169465D01*
X74944Y169058D01*
X76000Y168919D01*
X77056Y169058D01*
X78041Y169465D01*
X78886Y170114D01*
X79535Y170959D01*
X79942Y171944D01*
X80081Y173000D01*
X79942Y174056D01*
X79535Y175041D01*
X78886Y175886D01*
X78041Y176535D01*
X77056Y176942D01*
X76000Y177081D01*
D02*
G37*
G36*
X291448Y166000D02*
X290000D01*
Y164552D01*
X290819Y165181D01*
X291448Y166000D01*
D02*
G37*
G36*
X265448D02*
X264000D01*
Y164552D01*
X264819Y165181D01*
X265448Y166000D01*
D02*
G37*
G36*
X240448D02*
X239000D01*
Y164552D01*
X239819Y165181D01*
X240448Y166000D01*
D02*
G37*
G36*
X260000D02*
X258552D01*
X259181Y165181D01*
X260000Y164552D01*
Y166000D01*
D02*
G37*
G36*
X235000D02*
X233552D01*
X234181Y165181D01*
X235000Y164552D01*
Y166000D01*
D02*
G37*
G36*
X286000D02*
X284552D01*
X285181Y165181D01*
X286000Y164552D01*
Y166000D01*
D02*
G37*
G36*
X138953Y153953D02*
X137000D01*
Y152000D01*
X138953D01*
Y153953D01*
D02*
G37*
G36*
X133000D02*
X131047D01*
Y152000D01*
X133000D01*
Y153953D01*
D02*
G37*
G36*
X88000Y149376D02*
Y147500D01*
X89876D01*
X89797Y147692D01*
X89100Y148600D01*
X88192Y149297D01*
X88000Y149376D01*
D02*
G37*
G36*
X84000D02*
X83808Y149297D01*
X82900Y148600D01*
X82203Y147692D01*
X82124Y147500D01*
X84000D01*
Y149376D01*
D02*
G37*
G36*
X138953Y148000D02*
X137000D01*
Y146047D01*
X138953D01*
Y148000D01*
D02*
G37*
G36*
X133000D02*
X131047D01*
Y146047D01*
X133000D01*
Y148000D01*
D02*
G37*
G36*
X89876Y143500D02*
X88000D01*
Y141624D01*
X88192Y141703D01*
X89100Y142400D01*
X89797Y143308D01*
X89876Y143500D01*
D02*
G37*
G36*
X84000D02*
X82124D01*
X82203Y143308D01*
X82900Y142400D01*
X83808Y141703D01*
X84000Y141624D01*
Y143500D01*
D02*
G37*
G36*
X80046Y149547D02*
X71953D01*
Y141454D01*
X80046D01*
Y149547D01*
D02*
G37*
G36*
X96000Y149581D02*
X94944Y149442D01*
X93959Y149035D01*
X93114Y148386D01*
X92465Y147541D01*
X92058Y146556D01*
X91919Y145500D01*
X92058Y144444D01*
X92465Y143459D01*
X93114Y142614D01*
X93959Y141965D01*
X94944Y141558D01*
X96000Y141419D01*
X97056Y141558D01*
X98041Y141965D01*
X98886Y142614D01*
X99535Y143459D01*
X99942Y144444D01*
X100081Y145500D01*
X99942Y146556D01*
X99535Y147541D01*
X98886Y148386D01*
X98041Y149035D01*
X97056Y149442D01*
X96000Y149581D01*
D02*
G37*
G36*
X82063Y139325D02*
X81556Y139225D01*
X81126Y138937D01*
X71223Y129034D01*
X70581Y129300D01*
X69563Y129434D01*
X68545Y129300D01*
X67596Y128907D01*
X66782Y128281D01*
X66156Y127467D01*
X65763Y126518D01*
X65629Y125500D01*
X65763Y124482D01*
X66156Y123533D01*
X66782Y122719D01*
X67596Y122093D01*
X68545Y121700D01*
X69563Y121566D01*
X70581Y121700D01*
X71530Y122093D01*
X72344Y122719D01*
X72970Y123533D01*
X73067Y123768D01*
X73608D01*
X73768Y123382D01*
X74441Y122504D01*
X75319Y121831D01*
X75437Y121782D01*
Y125500D01*
X77437D01*
Y127500D01*
X81155D01*
X81106Y127618D01*
X80432Y128496D01*
X79555Y129169D01*
X78533Y129592D01*
X77437Y129736D01*
X76341Y129592D01*
X76163Y129518D01*
X75880Y129942D01*
X83000Y137063D01*
X83288Y137493D01*
X83389Y138000D01*
X83288Y138507D01*
X83000Y138937D01*
X82570Y139225D01*
X82063Y139325D01*
D02*
G37*
G36*
X95500Y129218D02*
Y127500D01*
X97218D01*
X97169Y127618D01*
X96495Y128496D01*
X95618Y129169D01*
X95500Y129218D01*
D02*
G37*
G36*
X91500D02*
X91382Y129169D01*
X90504Y128496D01*
X89831Y127618D01*
X89782Y127500D01*
X91500D01*
Y129218D01*
D02*
G37*
G36*
X231110Y131690D02*
X229896Y131530D01*
X228765Y131062D01*
X227794Y130316D01*
X227048Y129345D01*
X226580Y128214D01*
X226420Y127000D01*
X226580Y125786D01*
X227048Y124655D01*
X227794Y123684D01*
X228765Y122938D01*
X229896Y122470D01*
X231110Y122310D01*
X232324Y122470D01*
X233455Y122938D01*
X234427Y123684D01*
X235172Y124655D01*
X235641Y125786D01*
X235800Y127000D01*
X235641Y128214D01*
X235172Y129345D01*
X234427Y130316D01*
X233455Y131062D01*
X232324Y131530D01*
X231110Y131690D01*
D02*
G37*
G36*
X213000D02*
X211786Y131530D01*
X210655Y131062D01*
X209684Y130316D01*
X208938Y129345D01*
X208470Y128214D01*
X208310Y127000D01*
X208470Y125786D01*
X208938Y124655D01*
X209684Y123684D01*
X210655Y122938D01*
X211786Y122470D01*
X213000Y122310D01*
X214214Y122470D01*
X215345Y122938D01*
X216316Y123684D01*
X217062Y124655D01*
X217530Y125786D01*
X217690Y127000D01*
X217530Y128214D01*
X217062Y129345D01*
X216316Y130316D01*
X215345Y131062D01*
X214214Y131530D01*
X213000Y131690D01*
D02*
G37*
G36*
X97218Y123500D02*
X95500D01*
Y121782D01*
X95618Y121831D01*
X96495Y122504D01*
X97169Y123382D01*
X97218Y123500D01*
D02*
G37*
G36*
X81155D02*
X79437D01*
Y121782D01*
X79555Y121831D01*
X80432Y122504D01*
X81106Y123382D01*
X81155Y123500D01*
D02*
G37*
G36*
X91500D02*
X89782D01*
X89831Y123382D01*
X90504Y122504D01*
X91382Y121831D01*
X91500Y121782D01*
Y123500D01*
D02*
G37*
G36*
X103500Y129434D02*
X102482Y129300D01*
X101533Y128907D01*
X100718Y128281D01*
X100093Y127467D01*
X99700Y126518D01*
X99566Y125500D01*
X99700Y124482D01*
X100093Y123533D01*
X100718Y122719D01*
X101533Y122093D01*
X102482Y121700D01*
X103500Y121566D01*
X104518Y121700D01*
X105467Y122093D01*
X106281Y122719D01*
X106907Y123533D01*
X107300Y124482D01*
X107434Y125500D01*
X107300Y126518D01*
X106907Y127467D01*
X106281Y128281D01*
X105467Y128907D01*
X104518Y129300D01*
X103500Y129434D01*
D02*
G37*
G36*
X169654Y121953D02*
X168095D01*
Y119517D01*
X167595Y119365D01*
X167500Y119507D01*
Y118000D01*
Y116493D01*
X167595Y116635D01*
X168095Y116483D01*
Y114047D01*
X169654D01*
Y118000D01*
Y121953D01*
D02*
G37*
G36*
X162752D02*
X161193D01*
Y118000D01*
Y114047D01*
X162752D01*
Y116777D01*
X163311D01*
X163500Y116493D01*
Y118000D01*
Y119507D01*
X163311Y119223D01*
X162752D01*
Y121953D01*
D02*
G37*
G36*
X233110Y104364D02*
Y101835D01*
X235640D01*
X235434Y102331D01*
X234641Y103365D01*
X233607Y104158D01*
X233110Y104364D01*
D02*
G37*
G36*
X229110D02*
X228614Y104158D01*
X227580Y103365D01*
X226786Y102331D01*
X226581Y101835D01*
X229110D01*
Y104364D01*
D02*
G37*
G36*
X235640Y97835D02*
X233110D01*
Y95305D01*
X233607Y95511D01*
X234641Y96304D01*
X235434Y97338D01*
X235640Y97835D01*
D02*
G37*
G36*
X229110D02*
X226581D01*
X226786Y97338D01*
X227580Y96304D01*
X228614Y95511D01*
X229110Y95305D01*
Y97835D01*
D02*
G37*
G36*
X213000Y104525D02*
X211786Y104365D01*
X210655Y103896D01*
X209684Y103151D01*
X208938Y102180D01*
X208470Y101049D01*
X208310Y99835D01*
X208470Y98621D01*
X208938Y97490D01*
X209684Y96518D01*
X210655Y95773D01*
X211786Y95304D01*
X213000Y95144D01*
X214214Y95304D01*
X215345Y95773D01*
X216316Y96518D01*
X217062Y97490D01*
X217530Y98621D01*
X217690Y99835D01*
X217530Y101049D01*
X217062Y102180D01*
X216316Y103151D01*
X215345Y103896D01*
X214214Y104365D01*
X213000Y104525D01*
D02*
G37*
G36*
X87000Y107626D02*
Y91000D01*
X103626D01*
X103596Y91448D01*
X103118Y93855D01*
X102329Y96178D01*
X101244Y98378D01*
X99881Y100418D01*
X98263Y102263D01*
X96418Y103881D01*
X94378Y105244D01*
X92178Y106329D01*
X89855Y107118D01*
X87448Y107596D01*
X87000Y107626D01*
D02*
G37*
G36*
X83000D02*
X82552Y107596D01*
X80145Y107118D01*
X77822Y106329D01*
X75622Y105244D01*
X73582Y103881D01*
X71737Y102263D01*
X70119Y100418D01*
X68756Y98378D01*
X67671Y96178D01*
X66882Y93855D01*
X66404Y91448D01*
X66374Y91000D01*
X83000D01*
Y107626D01*
D02*
G37*
G36*
X171801Y89525D02*
X171673Y89499D01*
X170501D01*
Y88327D01*
X170475Y88199D01*
X170501Y88071D01*
Y75501D01*
X184499D01*
Y89499D01*
X171929D01*
X171801Y89525D01*
D02*
G37*
G36*
X157500Y89533D02*
X156128Y89398D01*
X154809Y88998D01*
X153593Y88348D01*
X152527Y87473D01*
X151652Y86407D01*
X151002Y85191D01*
X150602Y83872D01*
X150467Y82500D01*
X150602Y81128D01*
X151002Y79809D01*
X151652Y78593D01*
X152527Y77527D01*
X153593Y76652D01*
X154809Y76002D01*
X156128Y75602D01*
X157500Y75467D01*
X158872Y75602D01*
X160191Y76002D01*
X161407Y76652D01*
X162473Y77527D01*
X163348Y78593D01*
X163998Y79809D01*
X164398Y81128D01*
X164533Y82500D01*
X164398Y83872D01*
X163998Y85191D01*
X163348Y86407D01*
X162473Y87473D01*
X161407Y88348D01*
X160191Y88998D01*
X158872Y89398D01*
X157500Y89533D01*
D02*
G37*
G36*
X293843Y80843D02*
X285000D01*
Y72000D01*
X293843D01*
Y80843D01*
D02*
G37*
G36*
X60843D02*
X52000D01*
Y72000D01*
X60843D01*
Y80843D01*
D02*
G37*
G36*
X48000D02*
X39158D01*
Y72000D01*
X48000D01*
Y80843D01*
D02*
G37*
G36*
X281000D02*
X272158D01*
Y72000D01*
X281000D01*
Y80843D01*
D02*
G37*
G36*
X103626Y87000D02*
X87000D01*
Y70374D01*
X87448Y70404D01*
X89855Y70882D01*
X92178Y71671D01*
X94378Y72756D01*
X96418Y74119D01*
X98263Y75737D01*
X99881Y77582D01*
X101244Y79622D01*
X102329Y81822D01*
X103118Y84145D01*
X103596Y86552D01*
X103626Y87000D01*
D02*
G37*
G36*
X83000D02*
X66374D01*
X66404Y86552D01*
X66882Y84145D01*
X67671Y81822D01*
X68756Y79622D01*
X70119Y77582D01*
X71737Y75737D01*
X73582Y74119D01*
X75622Y72756D01*
X77822Y71671D01*
X80145Y70882D01*
X82552Y70404D01*
X83000Y70374D01*
Y87000D01*
D02*
G37*
G36*
X293843Y68000D02*
X285000D01*
Y59158D01*
X293843D01*
Y68000D01*
D02*
G37*
G36*
X281000D02*
X272158D01*
Y59158D01*
X281000D01*
Y68000D01*
D02*
G37*
G36*
X60843D02*
X52000D01*
Y59158D01*
X60843D01*
Y68000D01*
D02*
G37*
G36*
X48000D02*
X39158D01*
Y59158D01*
X48000D01*
Y68000D01*
D02*
G37*
%LPD*%
G36*
X178511Y192396D02*
Y189492D01*
X178611Y188988D01*
X178896Y188562D01*
X179170Y188378D01*
X179171Y188378D01*
X179323Y188277D01*
X179827Y188176D01*
X180330Y188277D01*
X180509Y188396D01*
X180588Y188449D01*
X180949Y188089D01*
X180896Y188009D01*
X180777Y187830D01*
X180676Y187327D01*
X180777Y186823D01*
X180834Y186738D01*
X181034Y186343D01*
X180834Y185947D01*
X180777Y185862D01*
X180676Y185358D01*
X180777Y184855D01*
X180834Y184769D01*
X181034Y184374D01*
X180834Y183979D01*
X180777Y183893D01*
X180676Y183390D01*
X180777Y182886D01*
X181062Y182459D01*
Y182352D01*
X180777Y181925D01*
X180676Y181421D01*
X180777Y180918D01*
X180834Y180832D01*
X181034Y180437D01*
X180834Y180042D01*
X180777Y179956D01*
X180676Y179453D01*
X180777Y178949D01*
X181062Y178522D01*
Y178415D01*
X180777Y177988D01*
X180676Y177484D01*
X180777Y176981D01*
X180834Y176895D01*
X181034Y176500D01*
X180834Y176105D01*
X180777Y176019D01*
X180676Y175516D01*
X180777Y175012D01*
X180834Y174927D01*
X181034Y174531D01*
X180834Y174136D01*
X180777Y174051D01*
X180676Y173547D01*
X180777Y173044D01*
X181062Y172617D01*
Y172509D01*
X180777Y172082D01*
X180676Y171579D01*
X180777Y171075D01*
X180834Y170990D01*
X181034Y170595D01*
X180834Y170199D01*
X180777Y170114D01*
X180676Y169610D01*
X180777Y169107D01*
X180878Y168954D01*
X180878Y168954D01*
X181062Y168680D01*
X181489Y168394D01*
X181992Y168294D01*
X184945D01*
Y166999D01*
X184897Y166989D01*
X181992D01*
X181489Y166889D01*
X181062Y166604D01*
X180878Y166330D01*
X180878Y166329D01*
X180777Y166177D01*
X180676Y165673D01*
X180777Y165170D01*
X180896Y164991D01*
X180949Y164911D01*
X180588Y164551D01*
X180509Y164604D01*
X180330Y164724D01*
X179827Y164824D01*
X179323Y164724D01*
X179238Y164666D01*
X178842Y164466D01*
X178447Y164666D01*
X178362Y164724D01*
X177858Y164824D01*
X177355Y164724D01*
X177269Y164666D01*
X176874Y164466D01*
X176479Y164666D01*
X176393Y164724D01*
X175890Y164824D01*
X175386Y164724D01*
X175301Y164666D01*
X174906Y164466D01*
X174510Y164666D01*
X174425Y164724D01*
X173921Y164824D01*
X173418Y164724D01*
X172991Y164438D01*
X172883D01*
X172456Y164724D01*
X171953Y164824D01*
X171449Y164724D01*
X171364Y164666D01*
X170968Y164466D01*
X170573Y164666D01*
X170488Y164724D01*
X169984Y164824D01*
X169481Y164724D01*
X169395Y164666D01*
X169000Y164466D01*
X168605Y164666D01*
X168519Y164724D01*
X168016Y164824D01*
X167512Y164724D01*
X167360Y164622D01*
X167359Y164622D01*
X167085Y164438D01*
X166800Y164012D01*
X166700Y163508D01*
Y160667D01*
X166677Y160555D01*
X165404D01*
X165395Y160603D01*
Y163508D01*
X165295Y164012D01*
X165009Y164438D01*
X164735Y164622D01*
X164735Y164622D01*
X164582Y164724D01*
X164079Y164824D01*
X163575Y164724D01*
X163490Y164666D01*
X163094Y164466D01*
X162699Y164666D01*
X162614Y164724D01*
X162110Y164824D01*
X161607Y164724D01*
X161521Y164666D01*
X161126Y164466D01*
X160731Y164666D01*
X160645Y164724D01*
X160142Y164824D01*
X159638Y164724D01*
X159553Y164666D01*
X159158Y164466D01*
X158762Y164666D01*
X158677Y164724D01*
X158173Y164824D01*
X157670Y164724D01*
X157491Y164604D01*
X157412Y164551D01*
X157051Y164911D01*
X157104Y164991D01*
X157223Y165170D01*
X157324Y165673D01*
X157223Y166177D01*
X157166Y166262D01*
X156966Y166657D01*
X157166Y167053D01*
X157223Y167138D01*
X157324Y167642D01*
X157223Y168145D01*
X156938Y168572D01*
Y168680D01*
X157223Y169107D01*
X157324Y169610D01*
X157223Y170114D01*
X157166Y170199D01*
X156966Y170595D01*
X157166Y170990D01*
X157223Y171075D01*
X157324Y171579D01*
X157223Y172082D01*
X156938Y172509D01*
Y172617D01*
X157223Y173044D01*
X157324Y173547D01*
X157223Y174051D01*
X157166Y174136D01*
X156966Y174531D01*
X157166Y174927D01*
X157223Y175012D01*
X157324Y175516D01*
X157223Y176019D01*
X157166Y176105D01*
X156966Y176500D01*
X157166Y176895D01*
X157223Y176981D01*
X157324Y177484D01*
X157223Y177988D01*
X156938Y178415D01*
Y178522D01*
X157223Y178949D01*
X157324Y179453D01*
X157223Y179956D01*
X157166Y180042D01*
X156966Y180437D01*
X157166Y180832D01*
X157223Y180918D01*
X157324Y181421D01*
X157223Y181925D01*
X156938Y182352D01*
Y182459D01*
X157223Y182886D01*
X157324Y183390D01*
X157223Y183893D01*
X157122Y184046D01*
X157122Y184046D01*
X156938Y184320D01*
X156511Y184606D01*
X156008Y184706D01*
X153055D01*
Y186001D01*
X153103Y186011D01*
X156008D01*
X156511Y186111D01*
X156938Y186396D01*
X157122Y186670D01*
X157122Y186671D01*
X157223Y186823D01*
X157324Y187327D01*
X157223Y187830D01*
X157104Y188009D01*
X157051Y188089D01*
X157412Y188449D01*
X157491Y188396D01*
X157670Y188277D01*
X158173Y188176D01*
X158677Y188277D01*
X158762Y188334D01*
X159158Y188534D01*
X159553Y188334D01*
X159638Y188277D01*
X160142Y188176D01*
X160645Y188277D01*
X160731Y188334D01*
X161126Y188534D01*
X161521Y188334D01*
X161607Y188277D01*
X162110Y188176D01*
X162614Y188277D01*
X163041Y188562D01*
X163148D01*
X163575Y188277D01*
X164079Y188176D01*
X164582Y188277D01*
X164668Y188334D01*
X165063Y188534D01*
X165458Y188334D01*
X165544Y188277D01*
X166047Y188176D01*
X166551Y188277D01*
X166636Y188334D01*
X167032Y188534D01*
X167427Y188334D01*
X167512Y188277D01*
X168016Y188176D01*
X168519Y188277D01*
X168605Y188334D01*
X169000Y188534D01*
X169395Y188334D01*
X169481Y188277D01*
X169984Y188176D01*
X170488Y188277D01*
X170573Y188334D01*
X170968Y188534D01*
X171364Y188334D01*
X171449Y188277D01*
X171953Y188176D01*
X172456Y188277D01*
X172542Y188334D01*
X172937Y188534D01*
X173332Y188334D01*
X173418Y188277D01*
X173921Y188176D01*
X174425Y188277D01*
X174852Y188562D01*
X174959D01*
X175386Y188277D01*
X175890Y188176D01*
X176393Y188277D01*
X176546Y188378D01*
X176546Y188378D01*
X176820Y188562D01*
X177106Y188988D01*
X177206Y189492D01*
Y192396D01*
X177215Y192445D01*
X178501D01*
X178511Y192396D01*
D02*
G37*
D13*
X141000Y179000D02*
X144311D01*
X148666Y183355D01*
X153021D01*
X153055Y183390D01*
X143587Y184500D02*
X144039Y184953D01*
X137500Y184500D02*
X143587D01*
X144445Y185358D02*
X153055D01*
X144039Y184953D02*
X144445Y185358D01*
X165000Y146500D02*
X168000D01*
X164059Y147441D02*
X165000Y146500D01*
X163469Y147441D02*
X164059D01*
X162000Y148909D02*
X163469Y147441D01*
X162000Y148909D02*
Y149500D01*
X166047Y154138D02*
Y160555D01*
X162000Y150091D02*
X166047Y154138D01*
X162000Y149500D02*
Y150091D01*
X135000Y150000D02*
X136039Y148961D01*
X165500Y118000D02*
X171653D01*
X159193D02*
X165500D01*
X203000Y166000D02*
Y172600D01*
X203400Y173000D01*
X195000Y166000D02*
X203000D01*
X184945Y167642D02*
X187947D01*
X188120Y167469D01*
X193532D01*
X195000Y166000D01*
X180453Y200870D02*
Y201461D01*
X177858Y198276D02*
X180453Y200870D01*
X177858Y192445D02*
Y198276D01*
X180453Y201461D02*
X180500Y201508D01*
Y208000D01*
X180453Y201461D02*
X180500Y201413D01*
X160000Y224000D02*
X162256Y221744D01*
X157256Y116063D02*
X159193Y118000D01*
X144039Y184953D02*
X145508Y183484D01*
X35000Y253000D02*
X299000D01*
Y57500D02*
Y253000D01*
X35000Y57500D02*
X299000D01*
X35000D02*
Y253000D01*
D15*
X195000Y173000D02*
D03*
X203400D02*
D03*
D19*
X152500Y118000D02*
D03*
X159193D02*
D03*
X178347D02*
D03*
X171653D02*
D03*
D43*
X155354Y192445D02*
X158173D01*
X153799Y194000D02*
X155354Y192445D01*
X152500Y194000D02*
X153799D01*
X148000Y154500D02*
X157745D01*
X164069Y160546D02*
X164079Y160555D01*
X164069Y156888D02*
Y160546D01*
X161301Y154120D02*
X164069Y156888D01*
X160253Y154120D02*
X161301D01*
X158734Y152600D02*
X160253Y154120D01*
X157502Y152600D02*
X158734D01*
X154953Y150051D02*
X157502Y152600D01*
X154953Y149461D02*
Y150051D01*
X157745Y154500D02*
X160132Y156888D01*
Y160546D01*
X154823Y149000D02*
X154953Y148870D01*
X148500Y149000D02*
X154823D01*
X170800Y143800D02*
Y151660D01*
X161500Y134500D02*
X170800Y143800D01*
X147799Y134500D02*
X161500D01*
X168000Y150500D02*
Y160539D01*
X168016Y160555D01*
X169984Y152476D02*
Y160555D01*
Y152476D02*
X170800Y151660D01*
X193409Y159000D02*
X194000D01*
X192041Y160369D02*
X193409Y159000D01*
X192041Y160369D02*
Y161511D01*
X187879Y165673D02*
X192041Y161511D01*
X184945Y165673D02*
X187879D01*
X195039Y158953D02*
X201039D01*
X179827Y192445D02*
Y195379D01*
X179836Y195388D01*
X181979D01*
X187500Y200909D01*
Y201500D01*
X193000D01*
X144000Y192000D02*
X145369Y190631D01*
X146817D01*
X150121Y187327D01*
X153055D01*
X137000Y192000D02*
X144000D01*
X166047Y192445D02*
Y197953D01*
X160000Y204000D02*
X166047Y197953D01*
X200421Y181421D02*
X205000Y186000D01*
X184945Y181421D02*
X200421D01*
X184945Y179453D02*
X213453D01*
X184945Y177484D02*
X206516D01*
X213503Y170497D01*
X213453Y179453D02*
X214000Y180000D01*
X184626Y240000D02*
X243000D01*
X169984Y225358D02*
X184626Y240000D01*
X169984Y192445D02*
Y225358D01*
X243000Y240000D02*
X265050Y217950D01*
Y210950D02*
Y217950D01*
Y210950D02*
X288000Y188000D01*
X171953Y224640D02*
X185313Y238000D01*
X171953Y192445D02*
Y224640D01*
X185313Y238000D02*
X241687D01*
X251443Y228244D01*
Y198557D02*
Y228244D01*
Y198557D02*
X262000Y188000D01*
X213000Y169000D02*
X213503Y169503D01*
Y170497D01*
X173921Y219921D02*
X174000Y220000D01*
X173921Y192445D02*
Y219921D01*
X174000Y220000D02*
Y224000D01*
X186000Y236000D01*
X241000D01*
X245000Y232000D01*
Y196000D02*
Y232000D01*
X237000Y188000D02*
X245000Y196000D01*
X189691Y173557D02*
X190247Y173000D01*
X195000D01*
X138255Y165664D02*
X150112D01*
X135000Y168919D02*
X138255Y165664D01*
X160132Y160546D02*
X160142Y160555D01*
X154953Y148870D02*
Y149461D01*
X158173Y158483D02*
Y160555D01*
X158164Y158474D02*
X158173Y158483D01*
X142758Y158474D02*
X158164D01*
X150112Y165664D02*
X150121Y165673D01*
X141232Y160000D02*
X142758Y158474D01*
X135000Y160000D02*
X141232D01*
X171953Y155212D02*
Y160555D01*
Y155212D02*
X174974Y152190D01*
Y137837D02*
Y152190D01*
X191408Y187327D02*
X205126Y201044D01*
X184945Y187327D02*
X191408D01*
X205126Y201044D02*
X207816D01*
X200149Y215149D02*
X202500Y217500D01*
X222500Y215728D02*
Y217500D01*
X207816Y201044D02*
X222500Y215728D01*
X187500Y225000D02*
X206772D01*
X212500Y219272D01*
Y217500D02*
Y219272D01*
X175890Y213390D02*
X187500Y225000D01*
X175890Y192445D02*
Y213390D01*
X135000Y168919D02*
Y170000D01*
X150121Y165673D02*
X153055D01*
X200145Y214753D02*
X202500Y217108D01*
Y217500D01*
X69563Y125500D02*
X82063Y138000D01*
X184954Y173557D02*
X189691D01*
X160000Y203803D02*
Y204000D01*
X171801Y88199D02*
X177500Y82500D01*
X181684Y134500D02*
X185201D01*
X178311D02*
X181684D01*
X174974Y137837D02*
X178311Y134500D01*
X184945Y173547D02*
X184954Y173557D01*
X178347Y118000D02*
Y131163D01*
X181684Y134500D01*
X147799D02*
X151136Y131163D01*
Y119364D02*
Y131163D01*
Y119364D02*
X152500Y118000D01*
D45*
X96000Y145500D02*
D03*
X86000D02*
D03*
X76000Y173000D02*
D03*
X86000D02*
D03*
D46*
X76000Y145500D02*
D03*
X96000Y173000D02*
D03*
D47*
X232500Y217500D02*
D03*
D48*
X222500D02*
D03*
X212500D02*
D03*
X202500D02*
D03*
D49*
X135000Y150000D02*
D03*
X237000Y198000D02*
D03*
X160000Y224000D02*
D03*
X262000Y198000D02*
D03*
X288000D02*
D03*
D50*
X135000Y160000D02*
D03*
Y170000D02*
D03*
X237000Y168000D02*
D03*
Y178000D02*
D03*
X237000Y188000D02*
D03*
X160000Y214000D02*
D03*
Y204000D02*
D03*
X262000Y168000D02*
D03*
Y178000D02*
D03*
Y188000D02*
D03*
X288000Y168000D02*
D03*
Y178000D02*
D03*
Y188000D02*
D03*
D51*
X85000Y89000D02*
D03*
Y229000D02*
D03*
D52*
X103500Y125500D02*
D03*
X93500D02*
D03*
X106374Y193000D02*
D03*
X98500D02*
D03*
X69563Y125500D02*
D03*
X77437D02*
D03*
D53*
X86000Y193000D02*
D03*
X66000D02*
D03*
X213000Y127000D02*
D03*
X231110D02*
D03*
Y99835D02*
D03*
X213000D02*
D03*
D54*
X157500Y82500D02*
D03*
D55*
X177500D02*
D03*
D56*
X49000Y241000D02*
D03*
X50000Y70000D02*
D03*
X285000Y239000D02*
D03*
D57*
X283000Y70000D02*
D03*
D58*
X152500Y194000D02*
D03*
X141000Y179000D02*
D03*
X278000Y145500D02*
D03*
X252000Y145000D02*
D03*
X227000Y145500D02*
D03*
X137500Y184500D02*
D03*
X148500Y149000D02*
D03*
X168000Y146500D02*
D03*
Y150500D02*
D03*
X148000Y154500D02*
D03*
X203000Y149000D02*
D03*
X165500Y118000D02*
D03*
X203000Y166000D02*
D03*
X180500Y208000D02*
D03*
X201039Y158953D02*
D03*
X193000Y201500D02*
D03*
X137000Y192000D02*
D03*
X205000Y186000D02*
D03*
X214000Y180000D02*
D03*
X213000Y169000D02*
D03*
D59*
X184945Y165673D02*
D03*
Y167642D02*
D03*
Y169610D02*
D03*
Y171579D02*
D03*
Y173547D02*
D03*
Y175516D02*
D03*
Y177484D02*
D03*
Y179453D02*
D03*
Y181421D02*
D03*
Y183390D02*
D03*
Y185358D02*
D03*
Y187327D02*
D03*
X153055D02*
D03*
Y185358D02*
D03*
Y183390D02*
D03*
Y181421D02*
D03*
Y179453D02*
D03*
Y177484D02*
D03*
Y175516D02*
D03*
Y173547D02*
D03*
Y171579D02*
D03*
Y169610D02*
D03*
Y167642D02*
D03*
Y165673D02*
D03*
D60*
X179827Y192445D02*
D03*
X177858D02*
D03*
X175890D02*
D03*
X173921D02*
D03*
X171953D02*
D03*
X169984D02*
D03*
X168016D02*
D03*
X166047D02*
D03*
X164079D02*
D03*
X162110D02*
D03*
X160142D02*
D03*
X158173D02*
D03*
Y160555D02*
D03*
X160142D02*
D03*
X162110D02*
D03*
X164079D02*
D03*
X166047D02*
D03*
X168016D02*
D03*
X169984D02*
D03*
X171953D02*
D03*
X173921D02*
D03*
X175890D02*
D03*
X177858D02*
D03*
X179827D02*
D03*
D61*
X185201Y134500D02*
D03*
X147799D02*
D03*
D62*
X144039Y184953D02*
D03*
X144000Y192000D02*
D03*
X195000Y166000D02*
D03*
X195039Y158953D02*
D03*
D63*
X162000Y149500D02*
D03*
X154953Y149461D02*
D03*
X180453Y201461D02*
D03*
X187500Y201500D02*
D03*
M02*
