G04*
G04 #@! TF.GenerationSoftware,Altium Limited,Altium Designer,19.1.5 (86)*
G04*
G04 Layer_Color=8388736*
%FSLAX25Y25*%
%MOIN*%
G70*
G01*
G75*
%ADD13C,0.01000*%
%ADD21R,0.06400X0.06400*%
%ADD22R,0.05400X0.05400*%
%ADD23R,0.07487X0.05518*%
%ADD24R,0.03943X0.03943*%
%ADD25R,0.06306X0.05518*%
%ADD26R,0.05518X0.06306*%
%ADD27R,0.05400X0.05400*%
%ADD28C,0.07093*%
%ADD29R,0.07093X0.07093*%
%ADD30R,0.06699X0.10243*%
%ADD31O,0.06699X0.10243*%
%ADD32R,0.06306X0.06306*%
%ADD33C,0.06306*%
%ADD34C,0.35833*%
%ADD35R,0.06800X0.06800*%
%ADD36C,0.06800*%
%ADD37C,0.08300*%
%ADD38C,0.12998*%
%ADD39R,0.12998X0.12998*%
%ADD40R,0.20085X0.20085*%
%ADD41R,0.20085X0.20085*%
%ADD42C,0.03400*%
D13*
X35000Y253000D02*
X299000D01*
Y57500D02*
Y253000D01*
X35000Y57500D02*
X299000D01*
X35000D02*
Y253000D01*
D21*
X146500Y214000D02*
D03*
Y201000D02*
D03*
X130500Y216000D02*
D03*
Y203000D02*
D03*
D22*
X142500Y85000D02*
D03*
X134100D02*
D03*
D23*
X203000Y118709D02*
D03*
Y107291D02*
D03*
D24*
X146500Y232120D02*
D03*
Y224000D02*
D03*
X130500Y234120D02*
D03*
Y226000D02*
D03*
D25*
X203000Y135653D02*
D03*
Y142347D02*
D03*
D26*
X223346Y232500D02*
D03*
X216653D02*
D03*
D27*
X252000Y178000D02*
D03*
Y169600D02*
D03*
X278000Y177400D02*
D03*
Y169000D02*
D03*
X227000Y177400D02*
D03*
Y169000D02*
D03*
X252000Y159000D02*
D03*
Y150600D02*
D03*
X278000Y159400D02*
D03*
Y151000D02*
D03*
X227000Y159400D02*
D03*
Y151000D02*
D03*
D28*
X96000Y145500D02*
D03*
X86000D02*
D03*
X76000Y173000D02*
D03*
X86000D02*
D03*
D29*
X76000Y145500D02*
D03*
X96000Y173000D02*
D03*
D30*
X232500Y217500D02*
D03*
D31*
X222500D02*
D03*
X212500D02*
D03*
X202500D02*
D03*
D32*
X135000Y150000D02*
D03*
X237000Y198000D02*
D03*
X160000Y224000D02*
D03*
X262000Y198000D02*
D03*
X288000D02*
D03*
D33*
X135000Y160000D02*
D03*
Y170000D02*
D03*
X237000Y168000D02*
D03*
Y178000D02*
D03*
X237000Y188000D02*
D03*
X160000Y214000D02*
D03*
Y204000D02*
D03*
X262000Y168000D02*
D03*
Y178000D02*
D03*
Y188000D02*
D03*
X288000Y168000D02*
D03*
Y178000D02*
D03*
Y188000D02*
D03*
D34*
X85000Y89000D02*
D03*
Y229000D02*
D03*
D35*
X103500Y125500D02*
D03*
X106374Y193000D02*
D03*
X69563Y125500D02*
D03*
D36*
X93500D02*
D03*
X98500Y193000D02*
D03*
X77437Y125500D02*
D03*
D37*
X86000Y193000D02*
D03*
X66000D02*
D03*
X213000Y127000D02*
D03*
X231110D02*
D03*
Y99835D02*
D03*
X213000D02*
D03*
D38*
X157500Y82500D02*
D03*
D39*
X177500D02*
D03*
D40*
X49000Y241000D02*
D03*
X50000Y70000D02*
D03*
X285000Y239000D02*
D03*
D41*
X283000Y70000D02*
D03*
D42*
X152500Y194000D02*
D03*
X141000Y179000D02*
D03*
X278000Y145500D02*
D03*
X252000Y145000D02*
D03*
X227000Y145500D02*
D03*
X137500Y184500D02*
D03*
X148500Y149000D02*
D03*
X168000Y146500D02*
D03*
Y150500D02*
D03*
X148000Y154500D02*
D03*
X203000Y149000D02*
D03*
X165500Y118000D02*
D03*
X203000Y166000D02*
D03*
X180500Y208000D02*
D03*
X201039Y158953D02*
D03*
X193000Y201500D02*
D03*
X137000Y192000D02*
D03*
X205000Y186000D02*
D03*
X214000Y180000D02*
D03*
X213000Y169000D02*
D03*
M02*
