G04*
G04 #@! TF.GenerationSoftware,Altium Limited,Altium Designer,19.1.5 (86)*
G04*
G04 Layer_Physical_Order=1*
G04 Layer_Color=255*
%FSLAX25Y25*%
%MOIN*%
G70*
G01*
G75*
%ADD13C,0.01000*%
%ADD14R,0.06000X0.06000*%
%ADD15R,0.05000X0.05000*%
%ADD16R,0.07087X0.05118*%
%ADD17R,0.03543X0.03543*%
%ADD18R,0.05906X0.05118*%
%ADD19R,0.05118X0.05906*%
%ADD20R,0.05000X0.05000*%
%ADD21R,0.06400X0.06400*%
%ADD43C,0.01200*%
%ADD44C,0.02000*%
%ADD45C,0.06693*%
%ADD46R,0.06693X0.06693*%
%ADD47R,0.06299X0.09843*%
%ADD48O,0.06299X0.09843*%
%ADD49R,0.05906X0.05906*%
%ADD50C,0.05906*%
%ADD51C,0.35433*%
%ADD52C,0.06400*%
%ADD53C,0.07900*%
%ADD54C,0.12598*%
%ADD55R,0.12598X0.12598*%
%ADD56R,0.19685X0.19685*%
%ADD57R,0.19685X0.19685*%
%ADD58C,0.03000*%
G36*
X299000Y57500D02*
X35000D01*
Y253000D01*
X299000D01*
Y57500D01*
D02*
G37*
%LPC*%
G36*
X59842Y251842D02*
X51000D01*
Y243000D01*
X59842D01*
Y251842D01*
D02*
G37*
G36*
X47000D02*
X38157D01*
Y243000D01*
X47000D01*
Y251842D01*
D02*
G37*
G36*
X295843Y249843D02*
X287000D01*
Y241000D01*
X295843D01*
Y249843D01*
D02*
G37*
G36*
X283000D02*
X274158D01*
Y241000D01*
X283000D01*
Y249843D01*
D02*
G37*
G36*
X128500Y236892D02*
X127728D01*
Y236120D01*
X128500D01*
Y236892D01*
D02*
G37*
G36*
X226905Y236453D02*
X225346D01*
Y234500D01*
X226905D01*
Y236453D01*
D02*
G37*
G36*
X128500Y232120D02*
X127728D01*
Y231348D01*
X128500D01*
Y232120D01*
D02*
G37*
G36*
X59842Y239000D02*
X51000D01*
Y230157D01*
X59842D01*
Y239000D01*
D02*
G37*
G36*
X47000D02*
X38157D01*
Y230157D01*
X47000D01*
Y239000D01*
D02*
G37*
G36*
X133272Y236892D02*
X132500D01*
Y234120D01*
Y231348D01*
X133272D01*
Y232168D01*
X143728D01*
Y229348D01*
X144500D01*
Y232120D01*
Y234892D01*
X143728D01*
Y234615D01*
X133272D01*
Y236892D01*
D02*
G37*
G36*
X221346Y236453D02*
X219787D01*
Y236153D01*
X213394D01*
Y230722D01*
X204931Y222258D01*
X204441Y222634D01*
X203505Y223022D01*
X202500Y223154D01*
X201495Y223022D01*
X200559Y222634D01*
X199754Y222017D01*
X199137Y221213D01*
X198749Y220277D01*
X198617Y219272D01*
Y215728D01*
X198749Y214723D01*
X199137Y213787D01*
X199754Y212983D01*
X200559Y212366D01*
X201495Y211978D01*
X202500Y211845D01*
X203505Y211978D01*
X204441Y212366D01*
X205246Y212983D01*
X205863Y213787D01*
X206251Y214723D01*
X206383Y215728D01*
Y219272D01*
X206303Y219881D01*
X215269Y228847D01*
X219787D01*
Y228547D01*
X221346D01*
Y232500D01*
Y236453D01*
D02*
G37*
G36*
X295843Y237000D02*
X287000D01*
Y228157D01*
X295843D01*
Y237000D01*
D02*
G37*
G36*
X283000D02*
X274158D01*
Y228157D01*
X283000D01*
Y237000D01*
D02*
G37*
G36*
X163953Y227953D02*
X162000D01*
Y226000D01*
X163953D01*
Y227953D01*
D02*
G37*
G36*
X149272Y234892D02*
X148500D01*
Y232120D01*
Y229348D01*
X149272D01*
Y230897D01*
X151373D01*
X156047Y226222D01*
Y226000D01*
X158000D01*
Y227953D01*
X157778D01*
X152745Y232985D01*
X152348Y233250D01*
X151880Y233344D01*
X149272D01*
Y234892D01*
D02*
G37*
G36*
X163953Y222000D02*
X162000D01*
Y220047D01*
X163953D01*
Y222000D01*
D02*
G37*
G36*
X158000D02*
X156047D01*
Y220047D01*
X158000D01*
Y222000D01*
D02*
G37*
G36*
X227404Y230500D02*
X225346D01*
Y227655D01*
X228617Y224384D01*
Y223421D01*
X228350D01*
Y219500D01*
X232500D01*
X236650D01*
Y223421D01*
X232084D01*
Y225102D01*
X231952Y225766D01*
X231576Y226328D01*
X227404Y230500D01*
D02*
G37*
G36*
X132972Y228472D02*
X128028D01*
Y223528D01*
X129174D01*
Y219700D01*
X126800D01*
Y212300D01*
X134200D01*
Y219700D01*
X131825D01*
Y223528D01*
X132972D01*
Y228472D01*
D02*
G37*
G36*
X222500Y223154D02*
X221495Y223022D01*
X220559Y222634D01*
X219754Y222017D01*
X219137Y221213D01*
X218749Y220277D01*
X218617Y219272D01*
Y215728D01*
X218749Y214723D01*
X219137Y213787D01*
X219754Y212983D01*
X220559Y212366D01*
X221495Y211978D01*
X222500Y211845D01*
X223505Y211978D01*
X224441Y212366D01*
X225246Y212983D01*
X225863Y213787D01*
X226251Y214723D01*
X226383Y215728D01*
Y219272D01*
X226251Y220277D01*
X225863Y221213D01*
X225246Y222017D01*
X224441Y222634D01*
X223505Y223022D01*
X222500Y223154D01*
D02*
G37*
G36*
X212500D02*
X211495Y223022D01*
X210559Y222634D01*
X209754Y222017D01*
X209137Y221213D01*
X208750Y220277D01*
X208617Y219272D01*
Y215728D01*
X208750Y214723D01*
X209137Y213787D01*
X209754Y212983D01*
X210559Y212366D01*
X211495Y211978D01*
X212500Y211845D01*
X213505Y211978D01*
X214441Y212366D01*
X215246Y212983D01*
X215863Y213787D01*
X216250Y214723D01*
X216383Y215728D01*
Y219272D01*
X216250Y220277D01*
X215863Y221213D01*
X215246Y222017D01*
X214441Y222634D01*
X213505Y223022D01*
X212500Y223154D01*
D02*
G37*
G36*
X236650Y215500D02*
X234500D01*
Y211579D01*
X236650D01*
Y215500D01*
D02*
G37*
G36*
X230500D02*
X228350D01*
Y211579D01*
X230500D01*
Y215500D01*
D02*
G37*
G36*
X160000Y217684D02*
X159046Y217559D01*
X158158Y217191D01*
X157395Y216605D01*
X156809Y215842D01*
X156441Y214954D01*
X156316Y214000D01*
X156441Y213046D01*
X156809Y212158D01*
X157395Y211395D01*
X158158Y210809D01*
X159046Y210441D01*
X160000Y210316D01*
X160954Y210441D01*
X161842Y210809D01*
X162605Y211395D01*
X163191Y212158D01*
X163559Y213046D01*
X163684Y214000D01*
X163559Y214954D01*
X163191Y215842D01*
X162605Y216605D01*
X161842Y217191D01*
X160954Y217559D01*
X160000Y217684D01*
D02*
G37*
G36*
X148972Y226472D02*
X144028D01*
Y221528D01*
X145175D01*
Y217700D01*
X142800D01*
Y210300D01*
X150200D01*
Y217700D01*
X147826D01*
Y221528D01*
X148972D01*
Y226472D01*
D02*
G37*
G36*
X160000Y207684D02*
X159046Y207559D01*
X158158Y207191D01*
X157395Y206605D01*
X156809Y205842D01*
X156441Y204954D01*
X156316Y204000D01*
X156441Y203046D01*
X156809Y202158D01*
X157395Y201395D01*
X158158Y200809D01*
X159046Y200441D01*
X160000Y200316D01*
X160954Y200441D01*
X161842Y200809D01*
X162605Y201395D01*
X163191Y202158D01*
X163559Y203046D01*
X163684Y204000D01*
X163559Y204954D01*
X163191Y205842D01*
X162605Y206605D01*
X161842Y207191D01*
X160954Y207559D01*
X160000Y207684D01*
D02*
G37*
G36*
X193000Y203743D02*
X192142Y203572D01*
X191414Y203086D01*
X190928Y202358D01*
X190757Y201500D01*
X190928Y200642D01*
X191414Y199914D01*
X192142Y199428D01*
X193000Y199257D01*
X193858Y199428D01*
X194586Y199914D01*
X195072Y200642D01*
X195243Y201500D01*
X195072Y202358D01*
X194586Y203086D01*
X193858Y203572D01*
X193000Y203743D01*
D02*
G37*
G36*
X85000Y247456D02*
X82591Y247298D01*
X80223Y246827D01*
X77937Y246051D01*
X75772Y244983D01*
X73765Y243642D01*
X71950Y242050D01*
X70358Y240235D01*
X69017Y238228D01*
X67949Y236063D01*
X67173Y233777D01*
X66702Y231409D01*
X66544Y229000D01*
X66702Y226591D01*
X67173Y224223D01*
X67949Y221937D01*
X69017Y219772D01*
X70358Y217765D01*
X71950Y215950D01*
X73765Y214358D01*
X75772Y213017D01*
X77937Y211949D01*
X80223Y211173D01*
X82591Y210702D01*
X85000Y210544D01*
X87409Y210702D01*
X89777Y211173D01*
X92063Y211949D01*
X94228Y213017D01*
X96235Y214358D01*
X97128Y215141D01*
X105150Y207119D01*
Y196900D01*
X102474D01*
Y195542D01*
X101974Y195372D01*
X101496Y195995D01*
X100618Y196669D01*
X100500Y196718D01*
Y193000D01*
X98500D01*
Y191000D01*
X94782D01*
X94831Y190882D01*
X95504Y190005D01*
X96382Y189331D01*
X97404Y188908D01*
X98500Y188764D01*
X99596Y188908D01*
X99774Y188982D01*
X100057Y188558D01*
X95063Y183563D01*
X94775Y183133D01*
X94674Y182626D01*
Y177047D01*
X91953D01*
Y168954D01*
X100047D01*
Y177047D01*
X97325D01*
Y182077D01*
X104349Y189100D01*
X110274D01*
Y196900D01*
X107597D01*
Y207626D01*
X107504Y208094D01*
X107239Y208491D01*
X98859Y216872D01*
X99642Y217765D01*
X100983Y219772D01*
X102051Y221937D01*
X102827Y224223D01*
X103298Y226591D01*
X103456Y229000D01*
X103298Y231409D01*
X102827Y233777D01*
X102051Y236063D01*
X100983Y238228D01*
X99642Y240235D01*
X98050Y242050D01*
X96235Y243642D01*
X94228Y244983D01*
X92063Y246051D01*
X89777Y246827D01*
X87409Y247298D01*
X85000Y247456D01*
D02*
G37*
G36*
X88000Y197529D02*
Y195000D01*
X90529D01*
X90324Y195496D01*
X89530Y196530D01*
X88496Y197324D01*
X88000Y197529D01*
D02*
G37*
G36*
X96500Y196718D02*
X96382Y196669D01*
X95504Y195995D01*
X94831Y195118D01*
X94782Y195000D01*
X96500D01*
Y196718D01*
D02*
G37*
G36*
X84000Y197529D02*
X83504Y197324D01*
X82470Y196530D01*
X81676Y195496D01*
X81471Y195000D01*
X84000D01*
Y197529D01*
D02*
G37*
G36*
X291653Y201653D02*
X284347D01*
Y194347D01*
X291653D01*
Y201653D01*
D02*
G37*
G36*
X265653D02*
X258347D01*
Y194347D01*
X265653D01*
Y201653D01*
D02*
G37*
G36*
X150200Y204700D02*
X142800D01*
Y197300D01*
X147634D01*
X147675Y197093D01*
X147963Y196663D01*
X150318Y194307D01*
X150257Y194000D01*
X150428Y193142D01*
X150914Y192414D01*
X151642Y191928D01*
X152500Y191757D01*
X153358Y191928D01*
X154086Y192414D01*
X154572Y193142D01*
X154743Y194000D01*
X154572Y194858D01*
X154086Y195586D01*
X153358Y196072D01*
X152500Y196243D01*
X152193Y196182D01*
X150225Y198149D01*
Y198600D01*
X150200Y198728D01*
Y204700D01*
D02*
G37*
G36*
X137000Y194243D02*
X136142Y194072D01*
X135414Y193586D01*
X134928Y192858D01*
X134757Y192000D01*
X134928Y191142D01*
X135414Y190414D01*
X136142Y189928D01*
X137000Y189757D01*
X137858Y189928D01*
X138586Y190414D01*
X139072Y191142D01*
X139243Y192000D01*
X139072Y192858D01*
X138586Y193586D01*
X137858Y194072D01*
X137000Y194243D01*
D02*
G37*
G36*
X90529Y191000D02*
X88000D01*
Y188471D01*
X88496Y188676D01*
X89530Y189470D01*
X90324Y190504D01*
X90529Y191000D01*
D02*
G37*
G36*
X84000D02*
X81471D01*
X81676Y190504D01*
X82470Y189470D01*
X83504Y188676D01*
X84000Y188471D01*
Y191000D01*
D02*
G37*
G36*
X288000Y191684D02*
X287046Y191559D01*
X286158Y191191D01*
X285395Y190605D01*
X284809Y189842D01*
X284441Y188954D01*
X284316Y188000D01*
X284441Y187046D01*
X284809Y186158D01*
X285395Y185395D01*
X286158Y184809D01*
X287046Y184441D01*
X288000Y184316D01*
X288954Y184441D01*
X289842Y184809D01*
X290605Y185395D01*
X291191Y186158D01*
X291559Y187046D01*
X291684Y188000D01*
X291559Y188954D01*
X291191Y189842D01*
X290605Y190605D01*
X289842Y191191D01*
X288954Y191559D01*
X288000Y191684D01*
D02*
G37*
G36*
X240653Y201653D02*
X233347D01*
X233347Y194347D01*
X232856Y194325D01*
X219000D01*
X218493Y194225D01*
X218063Y193937D01*
X211451Y187326D01*
X206760D01*
X206586Y187586D01*
X205858Y188072D01*
X205000Y188243D01*
X204142Y188072D01*
X203414Y187586D01*
X202928Y186858D01*
X202757Y186000D01*
X202928Y185142D01*
X203414Y184414D01*
X204142Y183928D01*
X205000Y183757D01*
X205858Y183928D01*
X206586Y184414D01*
X206760Y184675D01*
X212000D01*
X212507Y184775D01*
X212937Y185063D01*
X219549Y191674D01*
X234973D01*
X235141Y191225D01*
X235137Y191174D01*
X234395Y190605D01*
X233809Y189842D01*
X233441Y188953D01*
X233316Y188000D01*
X233441Y187046D01*
X233809Y186158D01*
X234395Y185395D01*
X235086Y184865D01*
X235057Y184594D01*
X234949Y184365D01*
X217039D01*
X216532Y184264D01*
X216102Y183976D01*
X214307Y182182D01*
X214000Y182243D01*
X213142Y182072D01*
X212414Y181586D01*
X211928Y180858D01*
X211757Y180000D01*
X211928Y179142D01*
X212414Y178414D01*
X213142Y177928D01*
X214000Y177757D01*
X214858Y177928D01*
X215586Y178414D01*
X216072Y179142D01*
X216243Y180000D01*
X216182Y180307D01*
X217588Y181714D01*
X235114D01*
X235214Y181214D01*
X235158Y181191D01*
X234395Y180605D01*
X233809Y179842D01*
X233595Y179325D01*
X230200D01*
Y180600D01*
X223800D01*
Y174200D01*
X230200D01*
Y176674D01*
X233595D01*
X233809Y176158D01*
X234395Y175395D01*
X235158Y174809D01*
X236046Y174441D01*
X237000Y174316D01*
X237954Y174441D01*
X238842Y174809D01*
X239605Y175395D01*
X240191Y176158D01*
X240559Y177046D01*
X240684Y178000D01*
X240634Y178385D01*
X241107Y178618D01*
X248800Y170925D01*
Y166400D01*
X250675D01*
Y162200D01*
X248800D01*
Y155800D01*
X255200D01*
Y162200D01*
X253326D01*
Y166400D01*
X255200D01*
Y172800D01*
X250675D01*
X249174Y174300D01*
X249382Y174800D01*
X255200D01*
Y176674D01*
X258595D01*
X258809Y176158D01*
X259395Y175395D01*
X260158Y174809D01*
X261046Y174441D01*
X262000Y174316D01*
X262954Y174441D01*
X263842Y174809D01*
X264605Y175395D01*
X265191Y176158D01*
X265559Y177046D01*
X265684Y178000D01*
X265573Y178845D01*
X265857Y179051D01*
X266021Y179105D01*
X274800Y170326D01*
Y165800D01*
X276675D01*
Y162600D01*
X274800D01*
Y156200D01*
X281200D01*
Y162600D01*
X279326D01*
Y165800D01*
X281200D01*
Y172200D01*
X276675D01*
X275174Y173700D01*
X275382Y174200D01*
X281200D01*
Y176674D01*
X284595D01*
X284809Y176158D01*
X285395Y175395D01*
X286158Y174809D01*
X287046Y174441D01*
X288000Y174316D01*
X288954Y174441D01*
X289842Y174809D01*
X290605Y175395D01*
X291191Y176158D01*
X291559Y177046D01*
X291684Y178000D01*
X291559Y178954D01*
X291191Y179842D01*
X290605Y180605D01*
X289842Y181191D01*
X288954Y181559D01*
X288000Y181684D01*
X287046Y181559D01*
X286158Y181191D01*
X285395Y180605D01*
X284809Y179842D01*
X284595Y179325D01*
X281200D01*
Y180600D01*
X274800D01*
Y174782D01*
X274300Y174574D01*
X264325Y184550D01*
X264282Y185147D01*
X264605Y185395D01*
X265191Y186158D01*
X265559Y187046D01*
X265684Y188000D01*
X265559Y188954D01*
X265191Y189842D01*
X264605Y190605D01*
X263842Y191191D01*
X262954Y191559D01*
X262000Y191684D01*
X261046Y191559D01*
X260158Y191191D01*
X259395Y190605D01*
X258809Y189842D01*
X258441Y188954D01*
X258316Y188000D01*
X258441Y187046D01*
X258809Y186158D01*
X259258Y185573D01*
X259029Y185073D01*
X247816D01*
X239041Y193847D01*
X239131Y194198D01*
X239233Y194347D01*
X240653D01*
Y201653D01*
D02*
G37*
G36*
X134200Y206700D02*
X126800D01*
Y199300D01*
X131776D01*
Y185182D01*
X131870Y184713D01*
X132135Y184317D01*
X137360Y179092D01*
X137757Y178826D01*
X138225Y178733D01*
X138810D01*
X138928Y178142D01*
X139414Y177414D01*
X140142Y176928D01*
X141000Y176757D01*
X141858Y176928D01*
X142586Y177414D01*
X143072Y178142D01*
X143243Y179000D01*
X143072Y179858D01*
X142586Y180586D01*
X141858Y181072D01*
X141000Y181243D01*
X140364Y181116D01*
X140043Y181180D01*
X138732D01*
X138259Y181652D01*
X138405Y182131D01*
X138476Y182145D01*
X139007Y182500D01*
X137500D01*
Y184500D01*
X135500D01*
Y186007D01*
X135145Y185476D01*
X135131Y185405D01*
X134652Y185259D01*
X134223Y185688D01*
Y200500D01*
X134200Y200618D01*
Y206700D01*
D02*
G37*
G36*
X88000Y176876D02*
Y175000D01*
X89876D01*
X89797Y175192D01*
X89100Y176100D01*
X88192Y176797D01*
X88000Y176876D01*
D02*
G37*
G36*
X84000D02*
X83808Y176797D01*
X82900Y176100D01*
X82203Y175192D01*
X82124Y175000D01*
X84000D01*
Y176876D01*
D02*
G37*
G36*
X230200Y172200D02*
X223800D01*
Y170326D01*
X214760D01*
X214586Y170586D01*
X213858Y171072D01*
X213000Y171243D01*
X212142Y171072D01*
X211414Y170586D01*
X210928Y169858D01*
X210757Y169000D01*
X210928Y168142D01*
X211414Y167414D01*
X212142Y166928D01*
X213000Y166757D01*
X213858Y166928D01*
X214586Y167414D01*
X214760Y167675D01*
X223800D01*
Y165800D01*
X225675D01*
Y162600D01*
X223800D01*
Y156200D01*
X230200D01*
Y162600D01*
X228326D01*
Y165800D01*
X230200D01*
Y172200D01*
D02*
G37*
G36*
X290000Y171448D02*
Y170000D01*
X291448D01*
X290819Y170819D01*
X290000Y171448D01*
D02*
G37*
G36*
X264000D02*
Y170000D01*
X265448D01*
X264819Y170819D01*
X264000Y171448D01*
D02*
G37*
G36*
X239000D02*
Y170000D01*
X240448D01*
X239819Y170819D01*
X239000Y171448D01*
D02*
G37*
G36*
X286000D02*
X285181Y170819D01*
X284552Y170000D01*
X286000D01*
Y171448D01*
D02*
G37*
G36*
X260000D02*
X259181Y170819D01*
X258552Y170000D01*
X260000D01*
Y171448D01*
D02*
G37*
G36*
X235000D02*
X234181Y170819D01*
X233552Y170000D01*
X235000D01*
Y171448D01*
D02*
G37*
G36*
X89876Y171000D02*
X88000D01*
Y169124D01*
X88192Y169203D01*
X89100Y169900D01*
X89797Y170808D01*
X89876Y171000D01*
D02*
G37*
G36*
X84000D02*
X82124D01*
X82203Y170808D01*
X82900Y169900D01*
X83808Y169203D01*
X84000Y169124D01*
Y171000D01*
D02*
G37*
G36*
X135000Y173684D02*
X134046Y173559D01*
X133158Y173191D01*
X132395Y172605D01*
X131809Y171842D01*
X131441Y170954D01*
X131316Y170000D01*
X131441Y169046D01*
X131809Y168158D01*
X132395Y167395D01*
X133158Y166809D01*
X134046Y166441D01*
X135000Y166316D01*
X135954Y166441D01*
X136842Y166809D01*
X137605Y167395D01*
X138191Y168158D01*
X138559Y169046D01*
X138684Y170000D01*
X138559Y170954D01*
X138191Y171842D01*
X137605Y172605D01*
X136842Y173191D01*
X135954Y173559D01*
X135000Y173684D01*
D02*
G37*
G36*
X291448Y166000D02*
X290000D01*
Y164552D01*
X290819Y165181D01*
X291448Y166000D01*
D02*
G37*
G36*
X265448D02*
X264000D01*
Y164552D01*
X264819Y165181D01*
X265448Y166000D01*
D02*
G37*
G36*
X240448D02*
X239000D01*
Y164552D01*
X239819Y165181D01*
X240448Y166000D01*
D02*
G37*
G36*
X286000D02*
X284552D01*
X285181Y165181D01*
X286000Y164552D01*
Y166000D01*
D02*
G37*
G36*
X260000D02*
X258552D01*
X259181Y165181D01*
X260000Y164552D01*
Y166000D01*
D02*
G37*
G36*
X235000D02*
X233552D01*
X234181Y165181D01*
X235000Y164552D01*
Y166000D01*
D02*
G37*
G36*
X201039Y161196D02*
X200181Y161025D01*
X199453Y160539D01*
X198967Y159811D01*
X198796Y158953D01*
X198967Y158094D01*
X199453Y157367D01*
X200181Y156880D01*
X201039Y156710D01*
X201898Y156880D01*
X202625Y157367D01*
X203112Y158094D01*
X203282Y158953D01*
X203112Y159811D01*
X202625Y160539D01*
X201898Y161025D01*
X201039Y161196D01*
D02*
G37*
G36*
X135000Y163684D02*
X134046Y163559D01*
X133158Y163191D01*
X132395Y162605D01*
X131809Y161842D01*
X131441Y160954D01*
X131316Y160000D01*
X131441Y159046D01*
X131809Y158158D01*
X132395Y157395D01*
X133158Y156809D01*
X134046Y156441D01*
X135000Y156316D01*
X135954Y156441D01*
X136842Y156809D01*
X137605Y157395D01*
X138191Y158158D01*
X138559Y159046D01*
X138684Y160000D01*
X138559Y160954D01*
X138191Y161842D01*
X137605Y162605D01*
X136842Y163191D01*
X135954Y163559D01*
X135000Y163684D01*
D02*
G37*
G36*
X281500Y154500D02*
X280000D01*
Y153000D01*
X281500D01*
Y154500D01*
D02*
G37*
G36*
X230500D02*
X229000D01*
Y153000D01*
X230500D01*
Y154500D01*
D02*
G37*
G36*
X276000D02*
X274500D01*
Y153000D01*
X276000D01*
Y154500D01*
D02*
G37*
G36*
X225000D02*
X223500D01*
Y153000D01*
X225000D01*
Y154500D01*
D02*
G37*
G36*
X255500Y154100D02*
X254000D01*
Y152600D01*
X255500D01*
Y154100D01*
D02*
G37*
G36*
X250000D02*
X248500D01*
Y152600D01*
X250000D01*
Y154100D01*
D02*
G37*
G36*
X148000Y156743D02*
X147142Y156572D01*
X146414Y156086D01*
X145928Y155358D01*
X145757Y154500D01*
X145818Y154193D01*
X143063Y151437D01*
X142775Y151007D01*
X142675Y150500D01*
Y139549D01*
X141563Y138437D01*
X141275Y138007D01*
X141174Y137500D01*
Y88200D01*
X139300D01*
Y81800D01*
X144272D01*
X144400Y81774D01*
X150538D01*
X150602Y81128D01*
X151002Y79809D01*
X151652Y78593D01*
X152527Y77527D01*
X153593Y76652D01*
X154809Y76002D01*
X156128Y75602D01*
X157500Y75467D01*
X158872Y75602D01*
X160191Y76002D01*
X161407Y76652D01*
X162473Y77527D01*
X163348Y78593D01*
X163998Y79809D01*
X164398Y81128D01*
X164533Y82500D01*
X164398Y83872D01*
X163998Y85191D01*
X163348Y86407D01*
X162473Y87473D01*
X161407Y88348D01*
X160191Y88998D01*
X158872Y89398D01*
X157500Y89533D01*
X156128Y89398D01*
X154809Y88998D01*
X153593Y88348D01*
X152527Y87473D01*
X151652Y86407D01*
X151002Y85191D01*
X150770Y84425D01*
X145700D01*
Y88200D01*
X143825D01*
Y136951D01*
X144937Y138063D01*
X145225Y138493D01*
X145326Y139000D01*
Y149951D01*
X147693Y152318D01*
X148000Y152257D01*
X148858Y152428D01*
X149586Y152914D01*
X150072Y153642D01*
X150243Y154500D01*
X150072Y155358D01*
X149586Y156086D01*
X148858Y156572D01*
X148000Y156743D01*
D02*
G37*
G36*
X138953Y153953D02*
X137000D01*
Y152000D01*
X138953D01*
Y153953D01*
D02*
G37*
G36*
X133000D02*
X131047D01*
Y152000D01*
X133000D01*
Y153953D01*
D02*
G37*
G36*
X281500Y149000D02*
X278000D01*
X274500D01*
Y147500D01*
X281500D01*
Y149000D01*
D02*
G37*
G36*
X230500D02*
X227000D01*
X223500D01*
Y147500D01*
X230500D01*
Y149000D01*
D02*
G37*
G36*
X88000Y149376D02*
Y147500D01*
X89876D01*
X89797Y147692D01*
X89100Y148600D01*
X88192Y149297D01*
X88000Y149376D01*
D02*
G37*
G36*
X84000D02*
X83808Y149297D01*
X82900Y148600D01*
X82203Y147692D01*
X82124Y147500D01*
X84000D01*
Y149376D01*
D02*
G37*
G36*
X255500Y148600D02*
X252000D01*
X248500D01*
Y147100D01*
X249812D01*
X249862Y147000D01*
X254138D01*
X254188Y147100D01*
X255500D01*
Y148600D01*
D02*
G37*
G36*
X148500Y151243D02*
X147642Y151072D01*
X146914Y150586D01*
X146428Y149858D01*
X146257Y149000D01*
X146428Y148142D01*
X146914Y147414D01*
X147642Y146928D01*
X148500Y146757D01*
X149358Y146928D01*
X150086Y147414D01*
X150572Y148142D01*
X150743Y149000D01*
X150572Y149858D01*
X150086Y150586D01*
X149358Y151072D01*
X148500Y151243D01*
D02*
G37*
G36*
X138953Y148000D02*
X137000D01*
Y146047D01*
X138953D01*
Y148000D01*
D02*
G37*
G36*
X133000D02*
X131047D01*
Y146047D01*
X133000D01*
Y148000D01*
D02*
G37*
G36*
X89876Y143500D02*
X88000D01*
Y141624D01*
X88192Y141703D01*
X89100Y142400D01*
X89797Y143308D01*
X89876Y143500D01*
D02*
G37*
G36*
X84000D02*
X82124D01*
X82203Y143308D01*
X82900Y142400D01*
X83808Y141703D01*
X84000Y141624D01*
Y143500D01*
D02*
G37*
G36*
X95500Y129218D02*
Y127500D01*
X97218D01*
X97169Y127618D01*
X96495Y128496D01*
X95618Y129169D01*
X95500Y129218D01*
D02*
G37*
G36*
X79437D02*
Y127500D01*
X81155D01*
X81106Y127618D01*
X80432Y128496D01*
X79555Y129169D01*
X79437Y129218D01*
D02*
G37*
G36*
X91500D02*
X91382Y129169D01*
X90504Y128496D01*
X89831Y127618D01*
X89782Y127500D01*
X91500D01*
Y129218D01*
D02*
G37*
G36*
X231110Y131690D02*
X229896Y131530D01*
X228765Y131062D01*
X227794Y130316D01*
X227048Y129345D01*
X226580Y128214D01*
X226420Y127000D01*
X226580Y125786D01*
X227048Y124655D01*
X227794Y123684D01*
X228765Y122938D01*
X229896Y122470D01*
X231110Y122310D01*
X232324Y122470D01*
X233455Y122938D01*
X234427Y123684D01*
X235172Y124655D01*
X235641Y125786D01*
X235800Y127000D01*
X235641Y128214D01*
X235172Y129345D01*
X234427Y130316D01*
X233455Y131062D01*
X232324Y131530D01*
X231110Y131690D01*
D02*
G37*
G36*
X213000D02*
X211786Y131530D01*
X210655Y131062D01*
X209684Y130316D01*
X208938Y129345D01*
X208470Y128214D01*
X208310Y127000D01*
X208470Y125786D01*
X208938Y124655D01*
X209684Y123684D01*
X210655Y122938D01*
X211786Y122470D01*
X213000Y122310D01*
X214214Y122470D01*
X215345Y122938D01*
X216316Y123684D01*
X217062Y124655D01*
X217530Y125786D01*
X217690Y127000D01*
X217530Y128214D01*
X217062Y129345D01*
X216316Y130316D01*
X215345Y131062D01*
X214214Y131530D01*
X213000Y131690D01*
D02*
G37*
G36*
X97218Y123500D02*
X95500D01*
Y121782D01*
X95618Y121831D01*
X96495Y122504D01*
X97169Y123382D01*
X97218Y123500D01*
D02*
G37*
G36*
X81155D02*
X79437D01*
Y121782D01*
X79555Y121831D01*
X80432Y122504D01*
X81106Y123382D01*
X81155Y123500D01*
D02*
G37*
G36*
X66000Y197690D02*
X64786Y197530D01*
X63655Y197062D01*
X62684Y196316D01*
X61938Y195345D01*
X61470Y194214D01*
X61310Y193000D01*
X61470Y191786D01*
X61938Y190655D01*
X62684Y189684D01*
X63655Y188938D01*
X64786Y188470D01*
X66000Y188310D01*
X67214Y188470D01*
X68234Y188892D01*
X74674Y182451D01*
Y176831D01*
X73959Y176535D01*
X73114Y175886D01*
X72465Y175041D01*
X72058Y174056D01*
X71919Y173000D01*
X72058Y171944D01*
X72465Y170959D01*
X73114Y170114D01*
X73959Y169465D01*
X74674Y169169D01*
Y149547D01*
X71953D01*
Y143328D01*
X68626Y140000D01*
X68338Y139570D01*
X68238Y139063D01*
Y129400D01*
X65663D01*
Y121600D01*
X73463D01*
Y122958D01*
X73963Y123128D01*
X74441Y122504D01*
X75319Y121831D01*
X75437Y121782D01*
Y125500D01*
Y129218D01*
X75319Y129169D01*
X74441Y128496D01*
X73963Y127872D01*
X73463Y128042D01*
Y129400D01*
X70889D01*
Y138514D01*
X73828Y141454D01*
X80046D01*
Y149547D01*
X77325D01*
Y169169D01*
X78041Y169465D01*
X78886Y170114D01*
X79535Y170959D01*
X79942Y171944D01*
X80081Y173000D01*
X79942Y174056D01*
X79535Y175041D01*
X78886Y175886D01*
X78041Y176535D01*
X77325Y176831D01*
Y183000D01*
X77225Y183507D01*
X76937Y183937D01*
X70108Y190767D01*
X70530Y191786D01*
X70690Y193000D01*
X70530Y194214D01*
X70062Y195345D01*
X69316Y196316D01*
X68345Y197062D01*
X67214Y197530D01*
X66000Y197690D01*
D02*
G37*
G36*
X91500Y123500D02*
X89782D01*
X89831Y123382D01*
X90504Y122504D01*
X91382Y121831D01*
X91500Y121782D01*
Y123500D01*
D02*
G37*
G36*
X96000Y149581D02*
X94944Y149442D01*
X93959Y149035D01*
X93114Y148386D01*
X92465Y147541D01*
X92058Y146556D01*
X91919Y145500D01*
X92058Y144444D01*
X92465Y143459D01*
X93114Y142614D01*
X93959Y141965D01*
X94674Y141669D01*
Y133000D01*
X94775Y132493D01*
X95063Y132063D01*
X99600Y127525D01*
Y121600D01*
X107400D01*
Y129400D01*
X101474D01*
X97325Y133549D01*
Y141669D01*
X98041Y141965D01*
X98886Y142614D01*
X99535Y143459D01*
X99942Y144444D01*
X100081Y145500D01*
X99942Y146556D01*
X99535Y147541D01*
X98886Y148386D01*
X98041Y149035D01*
X97056Y149442D01*
X96000Y149581D01*
D02*
G37*
G36*
X233110Y104364D02*
Y101835D01*
X235640D01*
X235434Y102331D01*
X234641Y103365D01*
X233607Y104158D01*
X233110Y104364D01*
D02*
G37*
G36*
X229110D02*
X228614Y104158D01*
X227580Y103365D01*
X226786Y102331D01*
X226581Y101835D01*
X229110D01*
Y104364D01*
D02*
G37*
G36*
X235640Y97835D02*
X233110D01*
Y95305D01*
X233607Y95511D01*
X234641Y96304D01*
X235434Y97338D01*
X235640Y97835D01*
D02*
G37*
G36*
X229110D02*
X226581D01*
X226786Y97338D01*
X227580Y96304D01*
X228614Y95511D01*
X229110Y95305D01*
Y97835D01*
D02*
G37*
G36*
X168000Y152743D02*
X167142Y152572D01*
X166414Y152086D01*
X165928Y151358D01*
X165757Y150500D01*
X165928Y149642D01*
X166352Y149007D01*
X166400Y148500D01*
X167033D01*
X167141Y148427D01*
X168000Y148257D01*
X168859Y148427D01*
X168967Y148500D01*
X169600D01*
X169648Y149007D01*
X169760Y149174D01*
X186947D01*
X199347Y136774D01*
Y132395D01*
X201675D01*
Y121968D01*
X198757D01*
Y115450D01*
X205369D01*
X211674Y109144D01*
Y104319D01*
X210655Y103896D01*
X209684Y103151D01*
X208938Y102180D01*
X208470Y101049D01*
X208310Y99835D01*
X208470Y98621D01*
X208938Y97490D01*
X209684Y96518D01*
X210655Y95773D01*
X211786Y95304D01*
X213000Y95144D01*
X214214Y95304D01*
X215345Y95773D01*
X216316Y96518D01*
X217062Y97490D01*
X217530Y98621D01*
X217690Y99835D01*
X217530Y101049D01*
X217062Y102180D01*
X216316Y103151D01*
X215345Y103896D01*
X214325Y104319D01*
Y109693D01*
X214225Y110200D01*
X213937Y110630D01*
X207243Y117324D01*
Y121968D01*
X204326D01*
Y132395D01*
X206653D01*
Y138787D01*
X206953D01*
Y140347D01*
X203000D01*
Y144346D01*
X206953D01*
Y145905D01*
X204223D01*
Y146811D01*
X204507Y147000D01*
X201493D01*
X201777Y146811D01*
Y145905D01*
X199047D01*
Y141477D01*
X198585Y141285D01*
X188433Y151437D01*
X188003Y151725D01*
X187496Y151825D01*
X169760D01*
X169586Y152086D01*
X168858Y152572D01*
X168000Y152743D01*
D02*
G37*
G36*
X83000Y107626D02*
X82552Y107596D01*
X80145Y107118D01*
X77822Y106329D01*
X75622Y105244D01*
X73582Y103881D01*
X71737Y102263D01*
X70119Y100418D01*
X68756Y98378D01*
X67671Y96178D01*
X66882Y93855D01*
X66404Y91448D01*
X66374Y91000D01*
X83000D01*
Y107626D01*
D02*
G37*
G36*
X137600Y88500D02*
X136100D01*
Y87000D01*
X137600D01*
Y88500D01*
D02*
G37*
G36*
X87000Y107626D02*
Y89000D01*
Y70374D01*
X87448Y70404D01*
X89855Y70882D01*
X92178Y71671D01*
X94378Y72756D01*
X96418Y74119D01*
X98263Y75737D01*
X99881Y77582D01*
X101244Y79622D01*
X102329Y81822D01*
X103118Y84145D01*
X103596Y86552D01*
X103676Y87776D01*
X129593D01*
X130370Y87000D01*
X132100D01*
Y88730D01*
X130965Y89865D01*
X130568Y90130D01*
X130100Y90223D01*
X103676D01*
X103596Y91448D01*
X103118Y93855D01*
X102329Y96178D01*
X101244Y98378D01*
X99881Y100418D01*
X98263Y102263D01*
X96418Y103881D01*
X94378Y105244D01*
X92178Y106329D01*
X89855Y107118D01*
X87448Y107596D01*
X87000Y107626D01*
D02*
G37*
G36*
X137600Y83000D02*
X136100D01*
Y81500D01*
X137600D01*
Y83000D01*
D02*
G37*
G36*
X132100D02*
X130600D01*
Y81500D01*
X132100D01*
Y83000D01*
D02*
G37*
G36*
X207243Y110550D02*
X198757D01*
Y105631D01*
X182625Y89499D01*
X170501D01*
Y75501D01*
X184499D01*
Y87625D01*
X200907Y104032D01*
X207243D01*
Y110550D01*
D02*
G37*
G36*
X293843Y80843D02*
X285000D01*
Y72000D01*
X293843D01*
Y80843D01*
D02*
G37*
G36*
X60843D02*
X52000D01*
Y72000D01*
X60843D01*
Y80843D01*
D02*
G37*
G36*
X48000D02*
X39158D01*
Y72000D01*
X48000D01*
Y80843D01*
D02*
G37*
G36*
X281000D02*
X272158D01*
Y72000D01*
X281000D01*
Y80843D01*
D02*
G37*
G36*
X83000Y87000D02*
X66374D01*
X66404Y86552D01*
X66882Y84145D01*
X67671Y81822D01*
X68756Y79622D01*
X70119Y77582D01*
X71737Y75737D01*
X73582Y74119D01*
X75622Y72756D01*
X77822Y71671D01*
X80145Y70882D01*
X82552Y70404D01*
X83000Y70374D01*
Y87000D01*
D02*
G37*
G36*
X293843Y68000D02*
X285000D01*
Y59158D01*
X293843D01*
Y68000D01*
D02*
G37*
G36*
X281000D02*
X272158D01*
Y59158D01*
X281000D01*
Y68000D01*
D02*
G37*
G36*
X60843D02*
X52000D01*
Y59158D01*
X60843D01*
Y68000D01*
D02*
G37*
G36*
X48000D02*
X39158D01*
Y59158D01*
X48000D01*
Y68000D01*
D02*
G37*
%LPD*%
G36*
X246330Y182810D02*
X246760Y182523D01*
X247267Y182422D01*
X262704D01*
X263105Y182021D01*
X263051Y181857D01*
X262845Y181573D01*
X262000Y181684D01*
X261046Y181559D01*
X260158Y181191D01*
X259395Y180605D01*
X258809Y179842D01*
X258595Y179325D01*
X255200D01*
Y181200D01*
X248800D01*
Y175382D01*
X248300Y175174D01*
X239498Y183976D01*
X239068Y184264D01*
X238908Y184296D01*
X238847Y184774D01*
X238852Y184817D01*
X239605Y185395D01*
X240191Y186158D01*
X240559Y187046D01*
X240655Y187778D01*
X241171Y187969D01*
X246330Y182810D01*
D02*
G37*
D13*
X106374Y193000D02*
Y207626D01*
X85000Y229000D02*
X106374Y207626D01*
X151880Y232120D02*
X160000Y224000D01*
X146500Y232120D02*
X151880D01*
X145228Y233392D02*
X146500Y232120D01*
X131228Y233392D02*
X145228D01*
X130500Y234120D02*
X131228Y233392D01*
X140043Y179957D02*
X141000Y179000D01*
X138225Y179957D02*
X140043D01*
X133000Y185182D02*
X138225Y179957D01*
X133000Y185182D02*
Y200500D01*
X130500Y203000D02*
X133000Y200500D01*
X278000Y145500D02*
Y151000D01*
X252000Y145000D02*
Y150600D01*
X227000Y145500D02*
Y151000D01*
X203000Y142347D02*
Y149000D01*
X130100Y89000D02*
X134100Y85000D01*
X85000Y89000D02*
X130100D01*
X35000Y253000D02*
X299000D01*
Y57500D02*
Y253000D01*
X35000Y57500D02*
X299000D01*
X35000D02*
Y253000D01*
D14*
X146500Y214000D02*
D03*
Y201000D02*
D03*
X130500Y216000D02*
D03*
Y203000D02*
D03*
D15*
X142500Y85000D02*
D03*
X134100D02*
D03*
D16*
X203000Y118709D02*
D03*
Y107291D02*
D03*
D17*
X146500Y232120D02*
D03*
Y224000D02*
D03*
X130500Y234120D02*
D03*
Y226000D02*
D03*
D18*
X203000Y135653D02*
D03*
Y142347D02*
D03*
D19*
X223346Y232500D02*
D03*
X216653D02*
D03*
D20*
X252000Y178000D02*
D03*
Y169600D02*
D03*
X278000Y177400D02*
D03*
Y169000D02*
D03*
X227000Y177400D02*
D03*
Y169000D02*
D03*
X252000Y159000D02*
D03*
Y150600D02*
D03*
X278000Y159400D02*
D03*
Y151000D02*
D03*
X227000Y159400D02*
D03*
Y151000D02*
D03*
D21*
X103500Y125500D02*
D03*
X106374Y193000D02*
D03*
X69563Y125500D02*
D03*
D43*
X148900Y197600D02*
Y198600D01*
X146500Y201000D02*
X148900Y198600D01*
Y197600D02*
X152500Y194000D01*
X96000Y182626D02*
X106374Y193000D01*
X144000Y150500D02*
X148000Y154500D01*
X144000Y139000D02*
Y150500D01*
X142500Y137500D02*
X144000Y139000D01*
X187496Y150500D02*
X200384Y137613D01*
X168000Y150500D02*
X187496D01*
X202016Y107291D02*
X203000D01*
X200057Y105332D02*
X202016Y107291D01*
X200057Y105057D02*
Y105332D01*
X177500Y82500D02*
X200057Y105057D01*
X212000Y186000D02*
X219000Y193000D01*
X205000Y186000D02*
X212000D01*
X219000Y193000D02*
X238014D01*
X247267Y183747D01*
X263253D01*
X278000Y169000D01*
X238561Y183039D02*
X252000Y169600D01*
X217039Y183039D02*
X238561D01*
X214000Y180000D02*
X217039Y183039D01*
X278600Y178000D02*
X288000D01*
X278000Y177400D02*
X278600Y178000D01*
X278000Y159400D02*
Y169000D01*
X252000Y159000D02*
Y169600D01*
Y178000D02*
X262000D01*
X213000Y169000D02*
X227000D01*
Y159400D02*
Y169000D01*
X227600Y178000D02*
X237000D01*
X227000Y177400D02*
X227600Y178000D01*
X200384Y137613D02*
X201041D01*
X203000Y135653D01*
X203000Y118709D02*
X203000Y118709D01*
Y135653D01*
X213000Y99835D02*
Y109693D01*
X203984Y118709D02*
X213000Y109693D01*
X203000Y118709D02*
X203984D01*
X142500Y85000D02*
Y137500D01*
X202500Y217500D02*
Y217953D01*
X216653Y232106D01*
X202500Y215728D02*
Y217500D01*
X156900Y83100D02*
X157500Y82500D01*
X144400Y83100D02*
X156900D01*
X142500Y85000D02*
X144400Y83100D01*
X130500Y216000D02*
Y226000D01*
X146500Y214000D02*
Y224000D01*
X216653Y232106D02*
Y232500D01*
X96000Y133000D02*
X103500Y125500D01*
X96000Y133000D02*
Y145500D01*
X66000Y193000D02*
X76000Y183000D01*
Y173000D02*
Y183000D01*
X96000Y173000D02*
Y182626D01*
X69563Y139063D02*
X76000Y145500D01*
X69563Y125500D02*
Y139063D01*
X76000Y145500D02*
Y173000D01*
D44*
X230350Y219650D02*
X232500Y217500D01*
X230350Y219650D02*
Y225102D01*
X223346Y232106D02*
X230350Y225102D01*
X223346Y232106D02*
Y232500D01*
D45*
X96000Y145500D02*
D03*
X86000D02*
D03*
X76000Y173000D02*
D03*
X86000D02*
D03*
D46*
X76000Y145500D02*
D03*
X96000Y173000D02*
D03*
D47*
X232500Y217500D02*
D03*
D48*
X222500D02*
D03*
X212500D02*
D03*
X202500D02*
D03*
D49*
X135000Y150000D02*
D03*
X237000Y198000D02*
D03*
X160000Y224000D02*
D03*
X262000Y198000D02*
D03*
X288000D02*
D03*
D50*
X135000Y160000D02*
D03*
Y170000D02*
D03*
X237000Y168000D02*
D03*
Y178000D02*
D03*
X237000Y188000D02*
D03*
X160000Y214000D02*
D03*
Y204000D02*
D03*
X262000Y168000D02*
D03*
Y178000D02*
D03*
Y188000D02*
D03*
X288000Y168000D02*
D03*
Y178000D02*
D03*
Y188000D02*
D03*
D51*
X85000Y89000D02*
D03*
Y229000D02*
D03*
D52*
X93500Y125500D02*
D03*
X98500Y193000D02*
D03*
X77437Y125500D02*
D03*
D53*
X86000Y193000D02*
D03*
X66000D02*
D03*
X213000Y127000D02*
D03*
X231110D02*
D03*
Y99835D02*
D03*
X213000D02*
D03*
D54*
X157500Y82500D02*
D03*
D55*
X177500D02*
D03*
D56*
X49000Y241000D02*
D03*
X50000Y70000D02*
D03*
X285000Y239000D02*
D03*
D57*
X283000Y70000D02*
D03*
D58*
X152500Y194000D02*
D03*
X141000Y179000D02*
D03*
X278000Y145500D02*
D03*
X252000Y145000D02*
D03*
X227000Y145500D02*
D03*
X137500Y184500D02*
D03*
X148500Y149000D02*
D03*
X168000Y146500D02*
D03*
Y150500D02*
D03*
X148000Y154500D02*
D03*
X203000Y149000D02*
D03*
X165500Y118000D02*
D03*
X203000Y166000D02*
D03*
X180500Y208000D02*
D03*
X201039Y158953D02*
D03*
X193000Y201500D02*
D03*
X137000Y192000D02*
D03*
X205000Y186000D02*
D03*
X214000Y180000D02*
D03*
X213000Y169000D02*
D03*
M02*
