<svg xmlns="http://www.w3.org/2000/svg" xmlns:xlink="http://www.w3.org/1999/xlink" width="500" zoomAndPan="magnify" viewBox="0 0 375 374.999991" height="500" preserveAspectRatio="xMidYMid meet" version="1.0"><defs><g/><clipPath id="ddaca872e9"><path d="M 68.734375 62.128906 L 307.089844 62.128906 L 307.089844 300.488281 L 68.734375 300.488281 Z M 68.734375 62.128906 " clip-rule="nonzero"/></clipPath><clipPath id="4929f0827f"><path d="M 83.582031 62.128906 L 292.238281 62.128906 C 296.179688 62.128906 299.957031 63.695312 302.738281 66.480469 C 305.523438 69.265625 307.089844 73.042969 307.089844 76.980469 L 307.089844 285.636719 C 307.089844 293.839844 300.441406 300.488281 292.238281 300.488281 L 83.582031 300.488281 C 79.644531 300.488281 75.867188 298.921875 73.082031 296.136719 C 70.296875 293.351562 68.734375 289.578125 68.734375 285.636719 L 68.734375 76.980469 C 68.734375 68.777344 75.382812 62.128906 83.582031 62.128906 Z M 83.582031 62.128906 " clip-rule="nonzero"/></clipPath><clipPath id="02a6e0b364"><path d="M 80 278 L 192 278 L 192 300.574219 L 80 300.574219 Z M 80 278 " clip-rule="nonzero"/></clipPath><clipPath id="c0e20dfe92"><path d="M 182 179 L 194.96875 179 L 194.96875 186 L 182 186 Z M 182 179 " clip-rule="nonzero"/></clipPath><clipPath id="f327f03fcc"><path d="M 66.71875 199 L 93 199 L 93 225 L 66.71875 225 Z M 66.71875 199 " clip-rule="nonzero"/></clipPath><clipPath id="9ac887be9d"><path d="M 221 218.042969 L 240 218.042969 L 240 237 L 221 237 Z M 221 218.042969 " clip-rule="nonzero"/></clipPath></defs><g clip-path="url(#ddaca872e9)"><g clip-path="url(#4929f0827f)"><path fill="#ffca05" d="M 68.734375 62.128906 L 307.089844 62.128906 L 307.089844 300.488281 L 68.734375 300.488281 Z M 68.734375 62.128906 " fill-opacity="1" fill-rule="nonzero"/></g></g><g clip-path="url(#02a6e0b364)"><path fill="#ffffff" d="M 188.144531 300.480469 L 83.3125 300.480469 C 81.558594 300.480469 80.136719 299.058594 80.136719 297.304688 C 80.136719 286.796875 88.6875 278.246094 99.199219 278.246094 L 172.261719 278.246094 C 182.769531 278.246094 191.320312 286.796875 191.320312 297.304688 C 191.320312 299.058594 189.898438 300.480469 188.144531 300.480469 Z M 86.894531 294.128906 L 184.566406 294.128906 C 183.152344 288.652344 178.171875 284.597656 172.261719 284.597656 L 99.199219 284.597656 C 93.289062 284.597656 88.308594 288.652344 86.894531 294.128906 Z M 86.894531 294.128906 " fill-opacity="1" fill-rule="nonzero"/></g><path fill="#ffffff" d="M 183.253906 201.929688 L 178.761719 197.433594 C 177.519531 196.195312 177.519531 194.183594 178.761719 192.941406 C 180.003906 191.703125 182.015625 191.703125 183.253906 192.941406 L 187.746094 197.433594 C 188.988281 198.675781 188.988281 200.6875 187.746094 201.929688 C 186.503906 203.167969 184.496094 203.167969 183.253906 201.929688 Z M 183.253906 201.929688 " fill-opacity="1" fill-rule="nonzero"/><g clip-path="url(#c0e20dfe92)"><path fill="#ffffff" d="M 191.882812 185.4375 L 185.527344 185.4375 C 183.773438 185.4375 182.351562 184.015625 182.351562 182.257812 C 182.351562 180.503906 183.773438 179.082031 185.527344 179.082031 L 191.882812 179.082031 C 193.636719 179.082031 195.058594 180.503906 195.058594 182.257812 C 195.058594 184.011719 193.636719 185.4375 191.882812 185.4375 Z M 191.882812 185.4375 " fill-opacity="1" fill-rule="nonzero"/></g><path fill="#ffffff" d="M 169.105469 210.265625 C 167.351562 210.265625 165.929688 208.84375 165.929688 207.089844 L 165.929688 200.738281 C 165.929688 198.984375 167.351562 197.5625 169.105469 197.5625 C 170.859375 197.5625 172.28125 198.984375 172.28125 200.738281 L 172.28125 207.089844 C 172.28125 208.84375 170.859375 210.265625 169.105469 210.265625 Z M 169.105469 210.265625 " fill-opacity="1" fill-rule="nonzero"/><path fill="#ffffff" d="M 142.078125 268.714844 L 123.78125 268.714844 C 122.9375 268.714844 122.128906 268.378906 121.535156 267.785156 L 77.691406 223.878906 C 76.800781 222.988281 76.523438 221.660156 76.976562 220.484375 C 77.433594 219.3125 78.539062 218.519531 79.792969 218.460938 C 83.050781 218.3125 85.648438 215.75 85.839844 212.496094 C 85.910156 211.25 86.710938 210.160156 87.878906 209.714844 C 89.046875 209.265625 90.367188 209.546875 91.253906 210.429688 L 144.320312 263.289062 C 145.230469 264.195312 145.503906 265.5625 145.015625 266.75 C 144.523438 267.941406 143.363281 268.714844 142.078125 268.714844 Z M 125.097656 262.363281 L 134.386719 262.363281 L 90.445312 218.59375 C 89.339844 220.460938 87.773438 222.015625 85.898438 223.105469 Z M 125.097656 262.363281 " fill-opacity="1" fill-rule="nonzero"/><path fill="#ffffff" d="M 172.261719 284.597656 L 99.199219 284.597656 C 97.441406 284.597656 96.019531 283.175781 96.019531 281.421875 L 96.019531 275.070312 C 96.019531 268.0625 101.722656 262.363281 108.726562 262.363281 L 162.730469 262.363281 C 169.738281 262.363281 175.4375 268.0625 175.4375 275.070312 L 175.4375 281.421875 C 175.4375 283.175781 174.015625 284.597656 172.261719 284.597656 Z M 102.375 278.246094 L 169.082031 278.246094 L 169.082031 275.070312 C 169.082031 271.566406 166.234375 268.714844 162.730469 268.714844 L 108.726562 268.714844 C 105.222656 268.714844 102.375 271.566406 102.375 275.070312 Z M 102.375 278.246094 " fill-opacity="1" fill-rule="nonzero"/><path fill="#ffffff" d="M 156.375 268.714844 C 154.621094 268.714844 153.199219 267.292969 153.199219 265.539062 L 153.199219 259.183594 C 153.199219 257.429688 154.621094 256.007812 156.375 256.007812 C 158.132812 256.007812 159.554688 257.429688 159.554688 259.183594 L 159.554688 265.539062 C 159.554688 267.292969 158.132812 268.714844 156.375 268.714844 Z M 156.375 268.714844 " fill-opacity="1" fill-rule="nonzero"/><g clip-path="url(#f327f03fcc)"><path fill="#ffffff" d="M 79.5 224.824219 C 72.492188 224.824219 66.792969 219.121094 66.792969 212.117188 C 66.792969 205.109375 72.492188 199.410156 79.5 199.410156 C 86.503906 199.410156 92.207031 205.109375 92.207031 212.117188 C 92.207031 219.121094 86.503906 224.824219 79.5 224.824219 Z M 79.5 205.761719 C 75.996094 205.761719 73.144531 208.613281 73.144531 212.117188 C 73.144531 215.621094 75.996094 218.46875 79.5 218.46875 C 83 218.46875 85.851562 215.621094 85.851562 212.117188 C 85.851562 208.613281 83.003906 205.761719 79.5 205.761719 Z M 79.5 205.761719 " fill-opacity="1" fill-rule="nonzero"/></g><path fill="#ffffff" d="M 89.011719 214.75 C 87.328125 214.75 85.9375 213.433594 85.839844 211.75 C 85.660156 208.519531 83.085938 205.949219 79.855469 205.773438 C 78.605469 205.707031 77.511719 204.910156 77.0625 203.742188 C 76.613281 202.570312 76.894531 201.25 77.777344 200.363281 L 125.890625 152.003906 C 126.75 151.140625 128.023438 150.84375 129.175781 151.242188 C 130.328125 151.636719 131.152344 152.652344 131.296875 153.863281 C 131.535156 155.796875 132.445312 157.574219 134.015625 158.96875 C 134.769531 159.660156 136.117188 160.585938 137.582031 161.289062 C 139.550781 162.230469 140.003906 164.84375 138.460938 166.394531 L 91.265625 213.816406 C 90.65625 214.425781 89.84375 214.75 89.011719 214.75 Z M 85.945312 201.160156 C 87.796875 202.246094 89.34375 203.792969 90.4375 205.636719 L 131.105469 164.777344 C 129.320312 163.457031 127.921875 162 126.8125 160.085938 Z M 85.945312 201.160156 " fill-opacity="1" fill-rule="nonzero"/><path fill="#ffffff" d="M 151.484375 189.03125 C 150.136719 187.816406 150.078125 185.714844 151.367188 184.425781 L 170.246094 165.546875 C 171.515625 164.277344 173.621094 164.300781 174.851562 165.664062 C 180.757812 172.210938 180.5 182.21875 174.269531 188.449219 C 168.058594 194.660156 158.050781 194.957031 151.484375 189.03125 Z M 158.644531 186.136719 C 162.351562 187.648438 166.832031 186.902344 169.777344 183.957031 C 172.722656 181.011719 173.46875 176.535156 171.953125 172.824219 Z M 158.644531 186.136719 " fill-opacity="1" fill-rule="nonzero"/><path fill="#ffffff" d="M 139.3125 168.539062 C 135.820312 167.882812 131.714844 165.683594 129.101562 163.070312 C 123.472656 157.4375 123.46875 148.324219 129.101562 142.691406 C 134.734375 137.0625 143.84375 137.0625 149.476562 142.691406 C 151.671875 144.886719 154.378906 149.078125 155.144531 153.101562 C 155.414062 154.53125 154.679688 155.964844 153.359375 156.578125 C 148.882812 158.652344 145.089844 162.195312 142.734375 166.851562 C 142.089844 168.125 140.683594 168.796875 139.3125 168.539062 Z M 133.59375 147.1875 C 130.445312 150.332031 130.445312 155.429688 133.59375 158.578125 C 134.796875 159.777344 136.628906 160.929688 138.386719 161.648438 C 140.84375 157.734375 144.214844 154.457031 148.207031 152.109375 C 147.398438 150.210938 146.105469 148.304688 144.984375 147.1875 C 141.835938 144.039062 136.742188 144.039062 133.59375 147.1875 Z M 133.59375 147.1875 " fill-opacity="1" fill-rule="nonzero"/><path fill="#ffffff" d="M 142.414062 197.875 C 131.070312 186.53125 131.070312 167.933594 142.414062 156.59375 C 153.757812 145.25 172.351562 145.253906 183.691406 156.59375 C 184.933594 157.835938 184.933594 159.84375 183.691406 161.085938 L 146.90625 197.875 C 145.664062 199.113281 143.652344 199.113281 142.414062 197.875 Z M 146.90625 161.085938 C 138.652344 169.339844 138.253906 182.261719 144.816406 190.980469 L 176.800781 158.996094 C 167.84375 152.238281 155.035156 152.957031 146.90625 161.085938 Z M 146.90625 161.085938 " fill-opacity="1" fill-rule="nonzero"/><g clip-path="url(#9ac887be9d)"><path fill="#ffffff" d="M 239.621094 227.335938 C 239.621094 227.945312 239.5625 228.546875 239.445312 229.144531 C 239.324219 229.742188 239.148438 230.320312 238.914062 230.886719 C 238.683594 231.449219 238.398438 231.984375 238.058594 232.488281 C 237.71875 232.996094 237.335938 233.464844 236.90625 233.894531 C 236.472656 234.324219 236.003906 234.710938 235.5 235.046875 C 234.992188 235.386719 234.457031 235.671875 233.894531 235.90625 C 233.332031 236.140625 232.75 236.316406 232.152344 236.433594 C 231.558594 236.554688 230.953125 236.613281 230.34375 236.613281 C 229.734375 236.613281 229.132812 236.554688 228.535156 236.433594 C 227.9375 236.316406 227.355469 236.140625 226.792969 235.90625 C 226.230469 235.671875 225.695312 235.386719 225.191406 235.046875 C 224.683594 234.710938 224.214844 234.324219 223.785156 233.894531 C 223.351562 233.464844 222.96875 232.996094 222.628906 232.488281 C 222.292969 231.984375 222.003906 231.449219 221.773438 230.886719 C 221.539062 230.320312 221.363281 229.742188 221.246094 229.144531 C 221.125 228.546875 221.066406 227.945312 221.066406 227.335938 C 221.066406 226.726562 221.125 226.121094 221.246094 225.523438 C 221.363281 224.925781 221.539062 224.347656 221.773438 223.785156 C 222.003906 223.222656 222.292969 222.6875 222.628906 222.179688 C 222.96875 221.671875 223.351562 221.203125 223.785156 220.773438 C 224.214844 220.34375 224.683594 219.957031 225.191406 219.621094 C 225.695312 219.28125 226.230469 218.996094 226.792969 218.761719 C 227.355469 218.53125 227.9375 218.355469 228.535156 218.234375 C 229.132812 218.117188 229.734375 218.058594 230.34375 218.058594 C 230.953125 218.058594 231.558594 218.117188 232.152344 218.234375 C 232.75 218.355469 233.332031 218.53125 233.894531 218.761719 C 234.457031 218.996094 234.992188 219.28125 235.5 219.621094 C 236.003906 219.957031 236.472656 220.34375 236.90625 220.773438 C 237.335938 221.203125 237.71875 221.671875 238.058594 222.179688 C 238.398438 222.6875 238.683594 223.222656 238.914062 223.785156 C 239.148438 224.347656 239.324219 224.925781 239.445312 225.523438 C 239.5625 226.121094 239.621094 226.726562 239.621094 227.335938 Z M 239.621094 227.335938 " fill-opacity="1" fill-rule="nonzero"/></g><path fill="#ffffff" d="M 224.46875 275.355469 L 221.511719 292.113281 C 221.390625 292.789062 221.101562 293.425781 220.671875 293.957031 L 210.671875 306.277344 C 208.792969 308.59375 208.9375 312.058594 211.195312 314.007812 C 213.53125 316.023438 217.054688 315.695312 218.984375 313.316406 L 230.953125 298.433594 C 231.378906 297.902344 231.664062 297.273438 231.78125 296.605469 L 232.492188 292.574219 Z M 224.46875 275.355469 " fill-opacity="1" fill-rule="nonzero"/><path fill="#ffffff" d="M 253.25 264.523438 L 240.671875 259.945312 L 240.671875 267.269531 C 240.671875 267.542969 240.65625 267.8125 240.628906 268.082031 L 250.785156 271.78125 C 252.890625 272.550781 255.230469 271.355469 255.808594 269.132812 C 256.3125 267.195312 255.132812 265.210938 253.25 264.523438 Z M 253.25 264.523438 " fill-opacity="1" fill-rule="nonzero"/><path fill="#ffffff" d="M 247.992188 308.921875 L 244.816406 291.0625 C 244.757812 290.71875 244.648438 290.378906 244.5 290.0625 L 236.742188 273.441406 C 238.503906 271.960938 239.621094 269.746094 239.621094 267.269531 L 239.621094 247.09375 C 239.621094 242.640625 236.007812 239.03125 231.554688 239.03125 L 229.132812 239.03125 C 224.671875 239.03125 221.066406 242.640625 221.066406 247.09375 L 221.066406 248.476562 L 224.234375 243.105469 C 225.109375 241.625 226.722656 240.703125 228.441406 240.703125 C 229.3125 240.703125 230.167969 240.9375 230.921875 241.382812 C 233.238281 242.75 234.011719 245.75 232.644531 248.066406 L 226.125 259.101562 C 225.941406 259.414062 225.816406 259.75 225.753906 260.101562 L 223.480469 273.015625 C 223.96875 273.492188 224.515625 273.914062 225.113281 274.257812 L 234.0625 293.457031 C 234.210938 293.777344 234.320312 294.113281 234.378906 294.460938 L 237.265625 310.816406 C 237.789062 313.777344 240.617188 315.753906 243.578125 315.230469 C 246.539062 314.707031 248.515625 311.882812 247.992188 308.921875 Z M 247.992188 308.921875 " fill-opacity="1" fill-rule="nonzero"/><path fill="#ffffff" d="M 230.386719 242.285156 C 228.566406 241.210938 226.214844 241.816406 225.136719 243.636719 L 217.878906 255.953125 C 217.632812 256.371094 217.464844 256.828125 217.378906 257.304688 L 214.324219 274.753906 C 213.9375 276.957031 215.519531 279.058594 217.808594 279.238281 C 219.800781 279.398438 221.554688 277.890625 221.902344 275.921875 L 224.722656 259.921875 C 224.804688 259.445312 224.976562 258.988281 225.222656 258.570312 L 231.742188 247.535156 C 232.816406 245.710938 232.210938 243.363281 230.386719 242.285156 Z M 230.386719 242.285156 " fill-opacity="1" fill-rule="nonzero"/><g fill="#ffffff" fill-opacity="1"><g transform="translate(105.513847, 114.779798)"><g><path d="M 18.234375 -1.484375 C 18.828125 -1.484375 19.125 -1.253906 19.125 -0.796875 C 19.125 -0.585938 18.992188 -0.398438 18.734375 -0.234375 C 18.484375 -0.078125 18.046875 0 17.421875 0 L 2.765625 0 L 2.765625 -24.484375 C 7.316406 -24.484375 11.863281 -24.484375 16.40625 -24.484375 L 17.828125 -24.53125 C 18.691406 -24.53125 19.125 -24.28125 19.125 -23.78125 C 19.125 -23.582031 19.050781 -23.398438 18.90625 -23.234375 C 18.757812 -23.066406 18.59375 -22.984375 18.40625 -22.984375 C 18.113281 -22.984375 17.796875 -23.015625 17.453125 -23.078125 C 16.960938 -23.179688 16.285156 -23.234375 15.421875 -23.234375 L 11.59375 -23.234375 L 11.59375 -17.96875 L 14.75 -17.96875 C 14.75 -17.96875 15.457031 -17.992188 16.875 -18.046875 C 17.125 -18.046875 17.335938 -17.984375 17.515625 -17.859375 C 17.691406 -17.742188 17.78125 -17.578125 17.78125 -17.359375 C 17.78125 -16.867188 17.457031 -16.625 16.8125 -16.625 L 16.078125 -16.640625 C 15.691406 -16.679688 15.375 -16.703125 15.125 -16.703125 L 11.59375 -16.703125 L 11.59375 -1.265625 L 15.421875 -1.265625 C 16.273438 -1.265625 16.878906 -1.296875 17.234375 -1.359375 C 17.660156 -1.441406 17.992188 -1.484375 18.234375 -1.484375 Z M 18.234375 -1.484375 "/></g></g><g transform="translate(126.211677, 114.779798)"><g><path d="M 3.0625 -1.25 C 2.65625 -1.476562 2.304688 -1.71875 2.015625 -1.96875 C 1.722656 -2.226562 1.578125 -2.5 1.578125 -2.78125 C 1.578125 -3.332031 1.8125 -3.609375 2.28125 -3.609375 C 2.59375 -3.609375 2.9375 -3.4375 3.3125 -3.09375 C 3.695312 -2.75 4.125 -2.445312 4.59375 -2.1875 C 5.070312 -1.925781 5.585938 -1.703125 6.140625 -1.515625 C 7.285156 -1.140625 8.34375 -0.953125 9.3125 -0.953125 C 10.28125 -0.953125 11.023438 -1.015625 11.546875 -1.140625 C 12.078125 -1.265625 12.519531 -1.4375 12.875 -1.65625 C 13.632812 -2.132812 14.015625 -2.742188 14.015625 -3.484375 C 14.015625 -4.160156 13.6875 -4.84375 13.03125 -5.53125 C 12.476562 -6.125 11.691406 -6.828125 10.671875 -7.640625 L 7.71875 -9.96875 C 4.75 -12.25 3 -14.335938 2.46875 -16.234375 C 2.289062 -16.890625 2.203125 -17.617188 2.203125 -18.421875 C 2.203125 -19.234375 2.378906 -20.03125 2.734375 -20.8125 C 3.097656 -21.601562 3.640625 -22.289062 4.359375 -22.875 C 5.890625 -24.15625 7.976562 -24.796875 10.625 -24.796875 C 11.976562 -24.796875 13.191406 -24.597656 14.265625 -24.203125 C 15.335938 -23.804688 16.066406 -23.453125 16.453125 -23.140625 C 16.847656 -22.828125 17.046875 -22.539062 17.046875 -22.28125 C 17.046875 -21.75 16.828125 -21.484375 16.390625 -21.484375 C 16.128906 -21.484375 15.851562 -21.609375 15.5625 -21.859375 C 15.28125 -22.117188 14.960938 -22.34375 14.609375 -22.53125 C 14.253906 -22.726562 13.851562 -22.898438 13.40625 -23.046875 C 12.4375 -23.367188 11.488281 -23.53125 10.5625 -23.53125 C 8.84375 -23.53125 7.984375 -22.96875 7.984375 -21.84375 C 7.984375 -21.363281 8.132812 -20.921875 8.4375 -20.515625 C 9 -19.816406 10.082031 -18.8125 11.6875 -17.5 C 13.300781 -16.1875 14.59375 -15.039062 15.5625 -14.0625 C 16.539062 -13.082031 17.28125 -12.203125 17.78125 -11.421875 C 18.59375 -10.179688 19 -8.894531 19 -7.5625 C 19 -6.238281 18.765625 -5.109375 18.296875 -4.171875 C 17.828125 -3.242188 17.171875 -2.445312 16.328125 -1.78125 C 14.554688 -0.375 12.351562 0.328125 9.71875 0.328125 C 7.09375 0.328125 4.875 -0.195312 3.0625 -1.25 Z M 3.0625 -1.25 "/></g></g><g transform="translate(146.805671, 114.779798)"><g><path d="M 18.234375 -1.484375 C 18.828125 -1.484375 19.125 -1.253906 19.125 -0.796875 C 19.125 -0.585938 18.992188 -0.398438 18.734375 -0.234375 C 18.484375 -0.078125 18.046875 0 17.421875 0 L 2.765625 0 L 2.765625 -24.484375 C 7.316406 -24.484375 11.863281 -24.484375 16.40625 -24.484375 L 17.828125 -24.53125 C 18.691406 -24.53125 19.125 -24.28125 19.125 -23.78125 C 19.125 -23.582031 19.050781 -23.398438 18.90625 -23.234375 C 18.757812 -23.066406 18.59375 -22.984375 18.40625 -22.984375 C 18.113281 -22.984375 17.796875 -23.015625 17.453125 -23.078125 C 16.960938 -23.179688 16.285156 -23.234375 15.421875 -23.234375 L 11.59375 -23.234375 L 11.59375 -17.96875 L 14.75 -17.96875 C 14.75 -17.96875 15.457031 -17.992188 16.875 -18.046875 C 17.125 -18.046875 17.335938 -17.984375 17.515625 -17.859375 C 17.691406 -17.742188 17.78125 -17.578125 17.78125 -17.359375 C 17.78125 -16.867188 17.457031 -16.625 16.8125 -16.625 L 16.078125 -16.640625 C 15.691406 -16.679688 15.375 -16.703125 15.125 -16.703125 L 11.59375 -16.703125 L 11.59375 -1.265625 L 15.421875 -1.265625 C 16.273438 -1.265625 16.878906 -1.296875 17.234375 -1.359375 C 17.660156 -1.441406 17.992188 -1.484375 18.234375 -1.484375 Z M 18.234375 -1.484375 "/></g></g><g transform="translate(167.503501, 114.779798)"><g><path d="M 5.625 -3.125 C 4.476562 -4.238281 3.566406 -5.585938 2.890625 -7.171875 C 2.222656 -8.753906 1.890625 -10.484375 1.890625 -12.359375 C 1.890625 -14.234375 2.207031 -15.914062 2.84375 -17.40625 C 3.488281 -18.90625 4.375 -20.203125 5.5 -21.296875 C 7.925781 -23.628906 10.96875 -24.796875 14.625 -24.796875 C 18.257812 -24.796875 21.234375 -23.648438 23.546875 -21.359375 C 25.898438 -19.023438 27.078125 -16 27.078125 -12.28125 C 27.078125 -8.582031 25.875 -5.539062 23.46875 -3.15625 C 21.957031 -1.675781 20.097656 -0.65625 17.890625 -0.09375 C 16.796875 0.1875 15.523438 0.328125 14.078125 0.328125 C 12.628906 0.328125 11.144531 0.03125 9.625 -0.5625 C 8.101562 -1.15625 6.769531 -2.007812 5.625 -3.125 Z M 14.609375 -23.53125 C 13.972656 -23.53125 13.378906 -23.484375 12.828125 -23.390625 L 12.828125 -1.078125 C 13.359375 -0.984375 13.953125 -0.9375 14.609375 -0.9375 C 17.679688 -0.9375 20.273438 -1.960938 22.390625 -4.015625 C 24.597656 -6.148438 25.703125 -8.90625 25.703125 -12.28125 C 25.703125 -15.5 24.664062 -18.175781 22.59375 -20.3125 C 20.507812 -22.457031 17.847656 -23.53125 14.609375 -23.53125 Z M 14.609375 -23.53125 "/></g></g><g transform="translate(196.456235, 114.779798)"><g/></g><g transform="translate(204.347715, 114.779798)"><g><path d="M 17.890625 -1.578125 C 18.503906 -1.578125 18.8125 -1.316406 18.8125 -0.796875 C 18.8125 -0.585938 18.6875 -0.398438 18.4375 -0.234375 C 18.1875 -0.078125 17.742188 0 17.109375 0 L 3.0625 0 L 3.0625 -24.484375 L 11.890625 -24.484375 L 11.890625 -1.140625 L 15.125 -1.140625 C 15.851562 -1.140625 16.476562 -1.210938 17 -1.359375 C 17.519531 -1.503906 17.816406 -1.578125 17.890625 -1.578125 Z M 17.890625 -1.578125 "/></g></g><g transform="translate(223.401487, 114.779798)"><g><path d="M 18.234375 -1.484375 C 18.828125 -1.484375 19.125 -1.253906 19.125 -0.796875 C 19.125 -0.585938 18.992188 -0.398438 18.734375 -0.234375 C 18.484375 -0.078125 18.046875 0 17.421875 0 L 2.765625 0 L 2.765625 -24.484375 C 7.316406 -24.484375 11.863281 -24.484375 16.40625 -24.484375 L 17.828125 -24.53125 C 18.691406 -24.53125 19.125 -24.28125 19.125 -23.78125 C 19.125 -23.582031 19.050781 -23.398438 18.90625 -23.234375 C 18.757812 -23.066406 18.59375 -22.984375 18.40625 -22.984375 C 18.113281 -22.984375 17.796875 -23.015625 17.453125 -23.078125 C 16.960938 -23.179688 16.285156 -23.234375 15.421875 -23.234375 L 11.59375 -23.234375 L 11.59375 -17.96875 L 14.75 -17.96875 C 14.75 -17.96875 15.457031 -17.992188 16.875 -18.046875 C 17.125 -18.046875 17.335938 -17.984375 17.515625 -17.859375 C 17.691406 -17.742188 17.78125 -17.578125 17.78125 -17.359375 C 17.78125 -16.867188 17.457031 -16.625 16.8125 -16.625 L 16.078125 -16.640625 C 15.691406 -16.679688 15.375 -16.703125 15.125 -16.703125 L 11.59375 -16.703125 L 11.59375 -1.265625 L 15.421875 -1.265625 C 16.273438 -1.265625 16.878906 -1.296875 17.234375 -1.359375 C 17.660156 -1.441406 17.992188 -1.484375 18.234375 -1.484375 Z M 18.234375 -1.484375 "/></g></g><g transform="translate(244.099317, 114.779798)"><g><path d="M 3.0625 -24.484375 L 10.265625 -24.484375 C 13.617188 -24.484375 16.082031 -24.25 17.65625 -23.78125 C 19.4375 -23.21875 20.8125 -22.503906 21.78125 -21.640625 C 22.757812 -20.773438 23.53125 -19.882812 24.09375 -18.96875 C 25.21875 -17.082031 25.78125 -14.945312 25.78125 -12.5625 C 25.78125 -8.800781 24.429688 -5.753906 21.734375 -3.421875 C 19.816406 -1.753906 17.5625 -0.722656 14.96875 -0.328125 C 13.519531 -0.109375 11.5 0 8.90625 0 L 3.0625 0 Z M 11.890625 -1.4375 C 12.078125 -1.425781 12.242188 -1.421875 12.390625 -1.421875 L 12.78125 -1.421875 C 15.90625 -1.421875 18.578125 -2.394531 20.796875 -4.34375 C 23.140625 -6.394531 24.3125 -9.125 24.3125 -12.53125 C 24.3125 -14.675781 23.796875 -16.609375 22.765625 -18.328125 C 21.285156 -20.828125 18.9375 -22.34375 15.71875 -22.875 C 14.664062 -23.050781 13.390625 -23.148438 11.890625 -23.171875 Z M 11.890625 -1.4375 "/></g></g></g></svg>