G04*
G04 #@! TF.GenerationSoftware,Altium Limited,Altium Designer,19.1.5 (86)*
G04*
G04 Layer_Color=128*
%FSLAX25Y25*%
%MOIN*%
G70*
G01*
G75*
%ADD14C,0.02000*%
%ADD75C,0.00200*%
D14*
X0Y276000D02*
X354500D01*
X-0Y57500D02*
X0Y276000D01*
X-0Y57500D02*
X354500D01*
X354500Y276000D01*
D75*
X92835Y122500D02*
X97165D01*
X95000Y120335D02*
Y124665D01*
X82835Y122500D02*
X87165D01*
X85000Y120335D02*
Y124665D01*
X72835Y122500D02*
X77165D01*
X75000Y120335D02*
Y124665D01*
X200532Y217500D02*
X204468D01*
X202500Y215531D02*
Y219468D01*
X210531Y217500D02*
X214469D01*
X212500Y215531D02*
Y219468D01*
X220532Y217500D02*
X224468D01*
X222500Y215531D02*
Y219468D01*
X230532Y217500D02*
X234469D01*
X232500Y215531D02*
Y219468D01*
X133228Y170000D02*
X136772D01*
X135000Y168228D02*
Y171772D01*
X133228Y160000D02*
X136772D01*
X135000Y158228D02*
Y161772D01*
X133228Y150000D02*
X136772D01*
X135000Y148228D02*
Y151772D01*
X23189Y110000D02*
X46811D01*
X35000Y98189D02*
Y121811D01*
X100900Y102500D02*
X104100D01*
X102500Y100900D02*
Y104100D01*
X90900Y102500D02*
X94100D01*
X92500Y100900D02*
Y104100D01*
X103774Y170000D02*
X106974D01*
X105374Y168400D02*
Y171600D01*
X95900Y170000D02*
X99100D01*
X97500Y168400D02*
Y171600D01*
X83000Y170000D02*
X87000D01*
X85000Y168000D02*
Y172000D01*
X63000Y170000D02*
X67000D01*
X65000Y168000D02*
Y172000D01*
X229260Y130787D02*
X233260D01*
X231260Y128787D02*
Y132787D01*
X229260Y148898D02*
X233260D01*
X231260Y146898D02*
Y150898D01*
X256425Y148898D02*
X260425D01*
X258425Y146898D02*
Y150898D01*
X256425Y130787D02*
X260425D01*
X258425Y128787D02*
Y132787D01*
X154547Y82500D02*
X160453D01*
X157500Y79547D02*
Y85453D01*
X174547Y82500D02*
X180453D01*
X177500Y79547D02*
Y85453D01*
X298228Y247321D02*
X301772D01*
X300000Y245549D02*
Y249092D01*
X303228Y238660D02*
X306772D01*
X305000Y236889D02*
Y240432D01*
X308228Y230000D02*
X311772D01*
X310000Y228228D02*
Y231772D01*
X313228Y221340D02*
X316772D01*
X315000Y219568D02*
Y223111D01*
X163228Y107500D02*
X166772D01*
X165000Y105728D02*
Y109272D01*
X173228Y107500D02*
X176772D01*
X175000Y105728D02*
Y109272D01*
X153228Y107500D02*
X156772D01*
X155000Y105728D02*
Y109272D01*
X72835Y150000D02*
X77165D01*
X75000Y147835D02*
Y152165D01*
X82835Y150000D02*
X87165D01*
X85000Y147835D02*
Y152165D01*
X92835Y150000D02*
X97165D01*
X95000Y147835D02*
Y152165D01*
X23189Y155000D02*
X46811D01*
X35000Y143189D02*
Y166811D01*
X66963Y102500D02*
X70163D01*
X68563Y100900D02*
Y104100D01*
X74837Y102500D02*
X78037D01*
X76437Y100900D02*
Y104100D01*
X229260Y163287D02*
X233260D01*
X231260Y161287D02*
Y165287D01*
X229260Y181398D02*
X233260D01*
X231260Y179398D02*
Y183398D01*
X256425Y181398D02*
X260425D01*
X258425Y179398D02*
Y183398D01*
X256425Y163287D02*
X260425D01*
X258425Y161287D02*
Y165287D01*
X43228Y248660D02*
X46772D01*
X45000Y246889D02*
Y250432D01*
X38228Y240000D02*
X41772D01*
X40000Y238228D02*
Y241772D01*
X33228Y231340D02*
X36772D01*
X35000Y229568D02*
Y233111D01*
X28228Y222679D02*
X31772D01*
X30000Y220908D02*
Y224451D01*
X153228Y265000D02*
X156772D01*
X155000Y263228D02*
Y266772D01*
X163228Y265000D02*
X166772D01*
X165000Y263228D02*
Y266772D01*
X173228Y265000D02*
X176772D01*
X175000Y263228D02*
Y266772D01*
X183228Y265000D02*
X186772D01*
X185000Y263228D02*
Y266772D01*
X5906Y263779D02*
X17717D01*
X11811Y257874D02*
Y269685D01*
X6594Y70000D02*
X18406D01*
X12500Y64095D02*
Y75906D01*
X336595Y70000D02*
X348406D01*
X342500Y64095D02*
Y75906D01*
X336614Y263779D02*
X348425D01*
X342520Y257874D02*
Y269685D01*
X204250Y173000D02*
X205750D01*
X205000Y172250D02*
Y173750D01*
X176250Y174000D02*
X177750D01*
X177000Y173250D02*
Y174750D01*
X194250Y157500D02*
X195750D01*
X195000Y156750D02*
Y158250D01*
X202289Y164539D02*
X203789D01*
X203039Y163789D02*
Y165289D01*
X191250Y194000D02*
X192750D01*
X192000Y193250D02*
Y194750D01*
X134250Y195000D02*
X135750D01*
X135000Y194250D02*
Y195750D01*
X144250Y165871D02*
X145750D01*
X145000Y165121D02*
Y166621D01*
X142149Y169601D02*
X143649D01*
X142899Y168851D02*
Y170351D01*
X164250Y150000D02*
X165750D01*
X165000Y149250D02*
Y150750D01*
X141750Y180000D02*
X143250D01*
X142500Y179250D02*
Y180750D01*
X74250Y225000D02*
X75750D01*
X75000Y224250D02*
Y225750D01*
X129250Y200000D02*
X130750D01*
X130000Y199250D02*
Y200750D01*
X144250Y205000D02*
X145750D01*
X145000Y204250D02*
Y205750D01*
M02*
