G04*
G04 #@! TF.GenerationSoftware,Altium Limited,Altium Designer,19.1.5 (86)*
G04*
G04 Layer_Physical_Order=2*
G04 Layer_Color=16711680*
%FSLAX25Y25*%
%MOIN*%
G70*
G01*
G75*
%ADD13C,0.01000*%
%ADD14C,0.02000*%
%ADD16R,0.05000X0.05000*%
%ADD20R,0.05118X0.05906*%
%ADD47C,0.01200*%
%ADD48C,0.06693*%
%ADD49R,0.06693X0.06693*%
%ADD50O,0.06299X0.09843*%
%ADD51R,0.06299X0.09843*%
%ADD52C,0.05906*%
%ADD53R,0.05906X0.05906*%
%ADD54C,0.35433*%
%ADD55C,0.06400*%
%ADD56C,0.07900*%
%ADD57C,0.12598*%
%ADD58R,0.12598X0.12598*%
%ADD59P,0.08352X4X165.0*%
%ADD60R,0.05906X0.05906*%
%ADD61P,0.08352X4X105.0*%
%ADD62R,0.19685X0.19685*%
%ADD63R,0.19685X0.19685*%
%ADD64C,0.03000*%
%ADD65O,0.07087X0.01181*%
%ADD66O,0.01181X0.07087*%
%ADD67R,0.21654X0.07874*%
%ADD68R,0.05118X0.03937*%
%ADD69R,0.03937X0.05118*%
G36*
X354500Y276000D02*
Y57500D01*
X0D01*
X0Y57500D01*
Y276000D01*
X354500D01*
X354500Y276000D01*
D02*
G37*
%LPC*%
G36*
X353362Y274622D02*
X344520D01*
Y265779D01*
X353362D01*
Y274622D01*
D02*
G37*
G36*
X340520D02*
X331677D01*
Y265779D01*
X340520D01*
Y274622D01*
D02*
G37*
G36*
X22354Y274322D02*
X1268D01*
Y253237D01*
X22354D01*
Y274322D01*
D02*
G37*
G36*
X353362Y261779D02*
X344520D01*
Y252937D01*
X353362D01*
Y261779D01*
D02*
G37*
G36*
X340520D02*
X331677D01*
Y252937D01*
X340520D01*
Y261779D01*
D02*
G37*
G36*
X236650Y223421D02*
X234500D01*
Y219500D01*
X236650D01*
Y223421D01*
D02*
G37*
G36*
X230500D02*
X228350D01*
Y219500D01*
X230500D01*
Y223421D01*
D02*
G37*
G36*
X182500Y273826D02*
X55000D01*
X54493Y273725D01*
X54063Y273437D01*
X29063Y248437D01*
X28775Y248007D01*
X28675Y247500D01*
Y227676D01*
X28663Y227669D01*
X28663D01*
X25010Y221342D01*
X31337Y217690D01*
X34990Y224016D01*
X31326Y226132D01*
Y229312D01*
X31775Y229481D01*
X31826Y229477D01*
X32395Y228735D01*
X33158Y228149D01*
X34046Y227781D01*
X35000Y227656D01*
X35954Y227781D01*
X36842Y228149D01*
X37605Y228735D01*
X38191Y229498D01*
X38405Y230014D01*
X56340D01*
X56847Y230115D01*
X57277Y230402D01*
X85549Y258675D01*
X170039D01*
X170547Y258775D01*
X170977Y259063D01*
X173558Y261644D01*
X174046Y261441D01*
X175000Y261316D01*
X175954Y261441D01*
X176470Y261655D01*
X184063Y254063D01*
X184493Y253775D01*
X185000Y253675D01*
X224451D01*
X249063Y229063D01*
X249493Y228775D01*
X250000Y228675D01*
X306595D01*
X306809Y228158D01*
X307395Y227395D01*
X308158Y226809D01*
X309046Y226441D01*
X310000Y226316D01*
X310954Y226441D01*
X311842Y226809D01*
X312605Y227395D01*
X313175Y228137D01*
X313225Y228141D01*
X313674Y227973D01*
Y224792D01*
X310010Y222677D01*
X313663Y216350D01*
X319990Y220003D01*
X316337Y226329D01*
X316337D01*
X316325Y226336D01*
Y250000D01*
X316225Y250507D01*
X315937Y250937D01*
X300937Y265937D01*
X300507Y266225D01*
X300000Y266325D01*
X188653D01*
Y268653D01*
X186326D01*
Y270000D01*
X186225Y270507D01*
X185937Y270937D01*
X183437Y273437D01*
X183007Y273725D01*
X182500Y273826D01*
D02*
G37*
G36*
X75000Y227243D02*
X74142Y227072D01*
X73414Y226586D01*
X72928Y225858D01*
X72757Y225000D01*
X72928Y224142D01*
X73414Y223414D01*
X74142Y222928D01*
X75000Y222757D01*
X75307Y222818D01*
X118273Y179852D01*
X118703Y179565D01*
X119211Y179464D01*
X135121D01*
X142393Y172193D01*
X142247Y171714D01*
X142041Y171673D01*
X141313Y171187D01*
X140827Y170459D01*
X140656Y169601D01*
X140827Y168742D01*
X141313Y168015D01*
X142041Y167528D01*
X142764Y167385D01*
X142983Y167031D01*
X143023Y166873D01*
X142928Y166730D01*
X142757Y165871D01*
X142928Y165013D01*
X143387Y164325D01*
X143271Y163826D01*
X141968D01*
X137950Y167844D01*
X138191Y168158D01*
X138559Y169046D01*
X138684Y170000D01*
X138559Y170954D01*
X138191Y171842D01*
X137605Y172605D01*
X136842Y173191D01*
X135954Y173559D01*
X135000Y173684D01*
X134046Y173559D01*
X133158Y173191D01*
X132395Y172605D01*
X131809Y171842D01*
X131441Y170954D01*
X131316Y170000D01*
X131441Y169046D01*
X131809Y168158D01*
X132395Y167395D01*
X133158Y166809D01*
X134046Y166441D01*
X135000Y166316D01*
X135644Y166401D01*
X140219Y161826D01*
X140012Y161326D01*
X138405D01*
X138191Y161842D01*
X137605Y162605D01*
X136842Y163191D01*
X135954Y163559D01*
X135000Y163684D01*
X134046Y163559D01*
X133158Y163191D01*
X132395Y162605D01*
X131809Y161842D01*
X131441Y160954D01*
X131316Y160000D01*
X131441Y159046D01*
X131809Y158158D01*
X132395Y157395D01*
X133137Y156825D01*
X133141Y156775D01*
X132973Y156325D01*
X118203D01*
X117696Y156225D01*
X117266Y155937D01*
X94063Y132734D01*
X93775Y132304D01*
X93674Y131797D01*
Y126331D01*
X92959Y126035D01*
X92114Y125386D01*
X91465Y124541D01*
X91058Y123556D01*
X90919Y122500D01*
X91058Y121444D01*
X91465Y120459D01*
X92114Y119614D01*
X92959Y118965D01*
X93944Y118558D01*
X95000Y118419D01*
X96056Y118558D01*
X97041Y118965D01*
X97886Y119614D01*
X98535Y120459D01*
X98942Y121444D01*
X99081Y122500D01*
X98942Y123556D01*
X98535Y124541D01*
X97886Y125386D01*
X97041Y126035D01*
X96325Y126331D01*
Y131248D01*
X118752Y153674D01*
X131047D01*
Y152000D01*
X135000D01*
X138953D01*
Y153674D01*
X146579D01*
X147031Y153559D01*
Y152000D01*
X150000D01*
X152969D01*
Y152181D01*
X153430Y152372D01*
X154379Y151424D01*
Y146780D01*
X159716D01*
Y151424D01*
X161375Y153083D01*
X161590D01*
X162098Y153184D01*
X162528Y153472D01*
X165006Y155950D01*
X165207Y156251D01*
X165427Y156104D01*
X166047Y155981D01*
X166190Y156009D01*
X166690Y155599D01*
Y153565D01*
X165307Y152182D01*
X165000Y152243D01*
X164142Y152072D01*
X163414Y151586D01*
X162928Y150858D01*
X162757Y150000D01*
X162928Y149142D01*
X163414Y148414D01*
X164142Y147928D01*
X165000Y147757D01*
X165858Y147928D01*
X166586Y148414D01*
X167072Y149142D01*
X167243Y150000D01*
X167182Y150307D01*
X168197Y151322D01*
X168659Y151131D01*
Y148033D01*
X166951Y146326D01*
X165189D01*
X164682Y146225D01*
X164252Y145937D01*
X157451Y139137D01*
X136272D01*
Y129863D01*
X149811D01*
Y121653D01*
X149241D01*
Y114347D01*
X155634D01*
Y114047D01*
X157193D01*
Y118000D01*
Y121953D01*
X155634D01*
Y121653D01*
X152462D01*
Y129863D01*
X159326D01*
Y137262D01*
X165738Y143675D01*
X167500D01*
X168007Y143775D01*
X168437Y144063D01*
X170922Y146547D01*
X171209Y146977D01*
X171310Y147484D01*
Y153327D01*
X171772Y153518D01*
X173649Y151641D01*
Y137837D01*
X173674Y137709D01*
Y129863D01*
X177021D01*
Y121653D01*
X175213D01*
Y121953D01*
X173654D01*
Y118000D01*
Y114047D01*
X175213D01*
Y114347D01*
X179516D01*
X179708Y113885D01*
X176609Y110787D01*
X175954Y111059D01*
X175000Y111184D01*
X174046Y111059D01*
X173158Y110691D01*
X172395Y110105D01*
X171809Y109342D01*
X171441Y108454D01*
X171316Y107500D01*
X171441Y106546D01*
X171809Y105658D01*
X172395Y104895D01*
X173158Y104309D01*
X174046Y103941D01*
X175000Y103816D01*
X175954Y103941D01*
X176842Y104309D01*
X177605Y104895D01*
X178191Y105658D01*
X178559Y106546D01*
X178684Y107500D01*
X178559Y108454D01*
X178402Y108831D01*
X207237Y137666D01*
X207525Y138096D01*
X207626Y138603D01*
Y165619D01*
X207525Y166126D01*
X207237Y166556D01*
X203625Y170169D01*
X203195Y170456D01*
X202687Y170557D01*
X199559D01*
Y171776D01*
X202811D01*
X203000Y171493D01*
Y173000D01*
Y174507D01*
X202811Y174223D01*
X199559D01*
Y175969D01*
X195096D01*
X194905Y176430D01*
X195274Y176800D01*
X199800D01*
Y183200D01*
X193400D01*
Y178674D01*
X191859Y177133D01*
X191455Y177053D01*
X191025Y176766D01*
X189699Y175440D01*
X189534Y175466D01*
X189189Y175637D01*
X189113Y176019D01*
X188828Y176446D01*
Y176554D01*
X189113Y176981D01*
X189214Y177484D01*
X189113Y177988D01*
X188828Y178415D01*
Y178522D01*
X189113Y178949D01*
X189214Y179453D01*
X189113Y179956D01*
X189056Y180042D01*
X188855Y180437D01*
X189056Y180832D01*
X189113Y180918D01*
X189214Y181421D01*
X189113Y181925D01*
X188828Y182352D01*
Y182459D01*
X189113Y182886D01*
X189214Y183390D01*
X189185Y183533D01*
X189576Y184033D01*
X210012D01*
X210519Y184134D01*
X210949Y184421D01*
X211850Y185322D01*
X227958D01*
X228119Y184849D01*
X227943Y184714D01*
X227198Y183743D01*
X226729Y182612D01*
X226570Y181398D01*
X226729Y180184D01*
X227198Y179053D01*
X227943Y178081D01*
X228915Y177336D01*
X230046Y176867D01*
X231260Y176707D01*
X232474Y176867D01*
X233605Y177336D01*
X234576Y178081D01*
X235322Y179053D01*
X235790Y180184D01*
X235950Y181398D01*
X235790Y182612D01*
X235322Y183743D01*
X234576Y184714D01*
X234401Y184849D01*
X234561Y185322D01*
X252626D01*
X254317Y183631D01*
X253895Y182612D01*
X253735Y181398D01*
X253895Y180184D01*
X254363Y179053D01*
X255109Y178081D01*
X256080Y177336D01*
X257211Y176867D01*
X258425Y176707D01*
X259639Y176867D01*
X260770Y177336D01*
X261742Y178081D01*
X262487Y179053D01*
X262955Y180184D01*
X263115Y181398D01*
X262955Y182612D01*
X262487Y183743D01*
X261742Y184714D01*
X260770Y185459D01*
X259639Y185928D01*
X258425Y186088D01*
X257211Y185928D01*
X256192Y185506D01*
X254112Y187585D01*
X253682Y187872D01*
X253175Y187973D01*
X211301D01*
X210794Y187872D01*
X210364Y187585D01*
X209463Y186684D01*
X193293D01*
X193101Y187146D01*
X205675Y199719D01*
X207816D01*
X208323Y199820D01*
X208753Y200107D01*
X220879Y212233D01*
X221495Y211978D01*
X222500Y211845D01*
X223505Y211978D01*
X224441Y212366D01*
X225246Y212983D01*
X225863Y213787D01*
X226251Y214723D01*
X226383Y215728D01*
Y219272D01*
X226251Y220277D01*
X225863Y221213D01*
X225246Y222017D01*
X224441Y222634D01*
X223505Y223022D01*
X222500Y223154D01*
X221495Y223022D01*
X220559Y222634D01*
X219754Y222017D01*
X219137Y221213D01*
X218749Y220277D01*
X218617Y219272D01*
Y215728D01*
X218749Y214723D01*
X219005Y214107D01*
X207267Y202370D01*
X205126D01*
X204618Y202269D01*
X204188Y201982D01*
X190859Y188652D01*
X184945D01*
X184896Y188643D01*
X181992D01*
X181489Y188542D01*
X181310Y188423D01*
X181230Y188370D01*
X180870Y188730D01*
X180923Y188810D01*
X181042Y188989D01*
X181143Y189492D01*
Y192396D01*
X181152Y192445D01*
Y193560D01*
X182236D01*
X182744Y193660D01*
X183174Y193948D01*
X186390Y197164D01*
X186677Y197594D01*
X186755Y197986D01*
X187225Y198223D01*
X190193Y195255D01*
X189928Y194858D01*
X189757Y194000D01*
X189928Y193142D01*
X190414Y192414D01*
X191142Y191928D01*
X192000Y191757D01*
X192858Y191928D01*
X193586Y192414D01*
X194072Y193142D01*
X194243Y194000D01*
X194072Y194858D01*
X193586Y195586D01*
X192907Y196040D01*
X192880Y196175D01*
X192593Y196605D01*
X190718Y198479D01*
X190910Y198941D01*
X195468D01*
Y200500D01*
X192500D01*
Y204500D01*
X195468D01*
Y206059D01*
X190988D01*
X190797Y206521D01*
X198099Y213823D01*
X198810D01*
X198815Y213815D01*
X199245Y213528D01*
X199352Y213507D01*
X199754Y212983D01*
X200559Y212366D01*
X201495Y211978D01*
X202500Y211845D01*
X203505Y211978D01*
X204441Y212366D01*
X205246Y212983D01*
X205863Y213787D01*
X206251Y214723D01*
X206383Y215728D01*
Y219272D01*
X206251Y220277D01*
X205863Y221213D01*
X205246Y222017D01*
X204441Y222634D01*
X203505Y223022D01*
X202500Y223154D01*
X201495Y223022D01*
X200559Y222634D01*
X199754Y222017D01*
X199137Y221213D01*
X198749Y220277D01*
X198617Y219272D01*
Y216474D01*
X197550D01*
X197043Y216373D01*
X196613Y216086D01*
X186247Y205720D01*
X182784D01*
Y199202D01*
X184127D01*
Y198651D01*
X181687Y196211D01*
X180836D01*
X180757Y196328D01*
X180330Y196613D01*
X179827Y196713D01*
X179323Y196613D01*
X179171Y196511D01*
X179005Y196544D01*
X178479Y196896D01*
X177858Y197019D01*
X177715Y196991D01*
X177215Y197401D01*
Y212841D01*
X188049Y223675D01*
X206223D01*
X209005Y220893D01*
X208750Y220277D01*
X208617Y219272D01*
Y215728D01*
X208750Y214723D01*
X209137Y213787D01*
X209754Y212983D01*
X210559Y212366D01*
X211495Y211978D01*
X212500Y211845D01*
X213505Y211978D01*
X214441Y212366D01*
X215246Y212983D01*
X215863Y213787D01*
X216250Y214723D01*
X216383Y215728D01*
Y219272D01*
X216250Y220277D01*
X215863Y221213D01*
X215246Y222017D01*
X214441Y222634D01*
X213505Y223022D01*
X212500Y223154D01*
X211495Y223022D01*
X210879Y222767D01*
X207709Y225937D01*
X207279Y226225D01*
X206772Y226325D01*
X187500D01*
X186993Y226225D01*
X186563Y225937D01*
X174952Y214327D01*
X174665Y213897D01*
X174564Y213390D01*
Y197076D01*
X174064Y196685D01*
X173921Y196713D01*
X173418Y196613D01*
X173332Y196556D01*
X172937Y196355D01*
X172542Y196556D01*
X172456Y196613D01*
X171953Y196713D01*
X171449Y196613D01*
X171364Y196556D01*
X170968Y196355D01*
X170573Y196556D01*
X170488Y196613D01*
X169984Y196713D01*
X169481Y196613D01*
X169395Y196556D01*
X169000Y196355D01*
X168605Y196556D01*
X168519Y196613D01*
X168016Y196713D01*
X167512Y196613D01*
X167085Y196328D01*
X166978D01*
X166551Y196613D01*
X166047Y196713D01*
X165544Y196613D01*
X165458Y196556D01*
X165063Y196355D01*
X164668Y196556D01*
X164582Y196613D01*
X164079Y196713D01*
X163575Y196613D01*
X163490Y196556D01*
X163094Y196355D01*
X162699Y196556D01*
X162614Y196613D01*
X162110Y196713D01*
X161607Y196613D01*
X161159Y196915D01*
X161070Y197049D01*
X152182Y205937D01*
X151752Y206225D01*
X151244Y206326D01*
X146760D01*
X146586Y206586D01*
X145858Y207072D01*
X145000Y207243D01*
X144142Y207072D01*
X143414Y206586D01*
X142928Y205858D01*
X142757Y205000D01*
X142928Y204142D01*
X143414Y203414D01*
X144142Y202928D01*
X145000Y202757D01*
X145858Y202928D01*
X146586Y203414D01*
X146760Y203675D01*
X150696D01*
X152561Y201809D01*
X152554Y201751D01*
X152337Y201325D01*
X131760D01*
X131586Y201586D01*
X130858Y202072D01*
X130000Y202243D01*
X129142Y202072D01*
X128414Y201586D01*
X127928Y200858D01*
X127757Y200000D01*
X127928Y199142D01*
X128414Y198414D01*
X129142Y197928D01*
X130000Y197757D01*
X130858Y197928D01*
X131586Y198414D01*
X131760Y198674D01*
X151951D01*
X156563Y194063D01*
X156848Y193872D01*
Y192445D01*
X156857Y192396D01*
Y189492D01*
X156958Y188989D01*
X157077Y188810D01*
X157130Y188730D01*
X156770Y188370D01*
X156690Y188423D01*
X156511Y188542D01*
X156008Y188643D01*
X153104D01*
X153055Y188652D01*
X151225D01*
X151049Y188916D01*
X145759Y194206D01*
Y197669D01*
X139241D01*
Y196326D01*
X136760D01*
X136586Y196586D01*
X135858Y197072D01*
X135000Y197243D01*
X134142Y197072D01*
X133414Y196586D01*
X132928Y195858D01*
X132757Y195000D01*
X132928Y194142D01*
X133414Y193414D01*
X134142Y192928D01*
X135000Y192757D01*
X135858Y192928D01*
X136586Y193414D01*
X136760Y193675D01*
X139241D01*
Y192332D01*
X143885D01*
X144833Y191383D01*
X144641Y190921D01*
X144539D01*
Y187953D01*
Y184984D01*
X146098D01*
Y184984D01*
X146579Y184938D01*
X147024Y184493D01*
X147421Y184228D01*
X147889Y184135D01*
X148493D01*
X148835Y183635D01*
X148786Y183390D01*
X148887Y182886D01*
X149172Y182459D01*
Y182352D01*
X148887Y181925D01*
X148786Y181421D01*
X148887Y180918D01*
X148944Y180832D01*
X149145Y180437D01*
X148944Y180042D01*
X148887Y179956D01*
X148786Y179453D01*
X148887Y178949D01*
X149172Y178522D01*
Y178415D01*
X148887Y177988D01*
X148786Y177484D01*
X148887Y176981D01*
X148944Y176895D01*
X149109Y176570D01*
X148894Y176107D01*
X148406Y175969D01*
X144682Y179693D01*
X144743Y180000D01*
X144572Y180858D01*
X144086Y181586D01*
X143358Y182072D01*
X142500Y182243D01*
X141642Y182072D01*
X140914Y181586D01*
X140428Y180858D01*
X140257Y180000D01*
X140428Y179142D01*
X140914Y178414D01*
X141642Y177928D01*
X142500Y177757D01*
X142807Y177818D01*
X147259Y173366D01*
X147068Y172904D01*
X145430D01*
X136608Y181727D01*
X136178Y182014D01*
X135670Y182115D01*
X119760D01*
X77182Y224693D01*
X77243Y225000D01*
X77072Y225858D01*
X76586Y226586D01*
X75858Y227072D01*
X75000Y227243D01*
D02*
G37*
G36*
X236650Y215500D02*
X234500D01*
Y211579D01*
X236650D01*
Y215500D01*
D02*
G37*
G36*
X230500D02*
X228350D01*
Y211579D01*
X230500D01*
Y215500D01*
D02*
G37*
G36*
X140539Y190921D02*
X138980D01*
Y189953D01*
X140539D01*
Y190921D01*
D02*
G37*
G36*
Y185953D02*
X138980D01*
Y184984D01*
X140539D01*
Y185953D01*
D02*
G37*
G36*
X208500Y183500D02*
X207000D01*
Y182000D01*
X208500D01*
Y183500D01*
D02*
G37*
G36*
X203000D02*
X201500D01*
Y182000D01*
X203000D01*
Y183500D01*
D02*
G37*
G36*
X208500Y178000D02*
X207000D01*
Y176500D01*
X208500D01*
Y178000D01*
D02*
G37*
G36*
X203000D02*
X201500D01*
Y176500D01*
X203000D01*
Y178000D01*
D02*
G37*
G36*
X87000Y174529D02*
Y172000D01*
X89529D01*
X89324Y172496D01*
X88530Y173530D01*
X87496Y174324D01*
X87000Y174529D01*
D02*
G37*
G36*
X95500Y173718D02*
X95382Y173669D01*
X94504Y172995D01*
X93831Y172118D01*
X93782Y172000D01*
X95500D01*
Y173718D01*
D02*
G37*
G36*
X83000Y174529D02*
X82504Y174324D01*
X81470Y173530D01*
X80676Y172496D01*
X80471Y172000D01*
X83000D01*
Y174529D01*
D02*
G37*
G36*
X105374Y173934D02*
X104356Y173800D01*
X103407Y173407D01*
X102593Y172782D01*
X101967Y171967D01*
X101870Y171732D01*
X101329D01*
X101169Y172118D01*
X100496Y172995D01*
X99618Y173669D01*
X99500Y173718D01*
Y170000D01*
Y166282D01*
X99618Y166331D01*
X100496Y167005D01*
X101169Y167882D01*
X101329Y168268D01*
X101870D01*
X101967Y168033D01*
X102593Y167218D01*
X103407Y166593D01*
X104356Y166200D01*
X105374Y166066D01*
X106392Y166200D01*
X107341Y166593D01*
X108156Y167218D01*
X108781Y168033D01*
X109174Y168982D01*
X109308Y170000D01*
X109174Y171018D01*
X108781Y171967D01*
X108156Y172782D01*
X107341Y173407D01*
X106392Y173800D01*
X105374Y173934D01*
D02*
G37*
G36*
X95500Y168000D02*
X93782D01*
X93831Y167882D01*
X94504Y167005D01*
X95382Y166331D01*
X95500Y166282D01*
Y168000D01*
D02*
G37*
G36*
X89529D02*
X87000D01*
Y165471D01*
X87496Y165676D01*
X88530Y166470D01*
X89324Y167504D01*
X89529Y168000D01*
D02*
G37*
G36*
X83000D02*
X80471D01*
X80676Y167504D01*
X81470Y166470D01*
X82504Y165676D01*
X83000Y165471D01*
Y168000D01*
D02*
G37*
G36*
X65000Y174690D02*
X63786Y174530D01*
X62655Y174062D01*
X61684Y173316D01*
X60938Y172345D01*
X60470Y171214D01*
X60310Y170000D01*
X60470Y168786D01*
X60938Y167655D01*
X61684Y166684D01*
X62655Y165938D01*
X63786Y165470D01*
X65000Y165310D01*
X66214Y165470D01*
X67345Y165938D01*
X68316Y166684D01*
X69062Y167655D01*
X69530Y168786D01*
X69690Y170000D01*
X69530Y171214D01*
X69062Y172345D01*
X68316Y173316D01*
X67345Y174062D01*
X66214Y174530D01*
X65000Y174690D01*
D02*
G37*
G36*
X260425Y167817D02*
Y165287D01*
X262955D01*
X262749Y165784D01*
X261956Y166818D01*
X260922Y167611D01*
X260425Y167817D01*
D02*
G37*
G36*
X256425Y167817D02*
X255929Y167611D01*
X254895Y166818D01*
X254101Y165784D01*
X253896Y165287D01*
X256425D01*
Y167817D01*
D02*
G37*
G36*
Y161287D02*
X253896D01*
X254101Y160791D01*
X254895Y159757D01*
X255929Y158964D01*
X256425Y158758D01*
Y161287D01*
D02*
G37*
G36*
X262955D02*
X260425D01*
Y158758D01*
X260922Y158964D01*
X261956Y159757D01*
X262749Y160791D01*
X262955Y161287D01*
D02*
G37*
G36*
X231260Y167977D02*
X230046Y167818D01*
X228915Y167349D01*
X227943Y166604D01*
X227198Y165632D01*
X226729Y164501D01*
X226570Y163287D01*
X226729Y162074D01*
X227198Y160942D01*
X227943Y159971D01*
X228915Y159226D01*
X230046Y158757D01*
X231260Y158597D01*
X232474Y158757D01*
X233605Y159226D01*
X234576Y159971D01*
X235322Y160942D01*
X235790Y162074D01*
X235950Y163287D01*
X235790Y164501D01*
X235322Y165632D01*
X234576Y166604D01*
X233605Y167349D01*
X232474Y167818D01*
X231260Y167977D01*
D02*
G37*
G36*
X260425Y153427D02*
Y150898D01*
X262955D01*
X262749Y151394D01*
X261956Y152428D01*
X260922Y153221D01*
X260425Y153427D01*
D02*
G37*
G36*
X256425Y153427D02*
X255929Y153221D01*
X254895Y152428D01*
X254101Y151394D01*
X253896Y150898D01*
X256425D01*
Y153427D01*
D02*
G37*
G36*
X152969Y148000D02*
X152000D01*
Y146441D01*
X152969D01*
Y148000D01*
D02*
G37*
G36*
X148000D02*
X147031D01*
Y146441D01*
X148000D01*
Y148000D01*
D02*
G37*
G36*
X88876D02*
X87000D01*
Y146124D01*
X87192Y146203D01*
X88100Y146900D01*
X88797Y147808D01*
X88876Y148000D01*
D02*
G37*
G36*
X83000D02*
X81124D01*
X81203Y147808D01*
X81900Y146900D01*
X82808Y146203D01*
X83000Y146124D01*
Y148000D01*
D02*
G37*
G36*
X138953D02*
X137000D01*
Y146047D01*
X138953D01*
Y148000D01*
D02*
G37*
G36*
X133000D02*
X131047D01*
Y146047D01*
X133000D01*
Y148000D01*
D02*
G37*
G36*
X35000Y173456D02*
X32591Y173298D01*
X30223Y172827D01*
X27937Y172051D01*
X25772Y170983D01*
X23765Y169642D01*
X21950Y168050D01*
X20358Y166235D01*
X19017Y164228D01*
X17949Y162063D01*
X17173Y159777D01*
X16702Y157409D01*
X16544Y155000D01*
X16702Y152591D01*
X17173Y150223D01*
X17949Y147937D01*
X19017Y145772D01*
X20358Y143765D01*
X21950Y141950D01*
X23765Y140358D01*
X25772Y139017D01*
X27937Y137949D01*
X30223Y137173D01*
X32591Y136702D01*
X35000Y136544D01*
X37409Y136702D01*
X39777Y137173D01*
X42063Y137949D01*
X44228Y139017D01*
X46235Y140358D01*
X48050Y141950D01*
X49642Y143765D01*
X50983Y145772D01*
X52051Y147937D01*
X52827Y150223D01*
X53298Y152591D01*
X53369Y153674D01*
X72320D01*
X72490Y153174D01*
X72114Y152886D01*
X71465Y152041D01*
X71058Y151056D01*
X70919Y150000D01*
X71058Y148944D01*
X71465Y147959D01*
X72114Y147114D01*
X72959Y146465D01*
X73944Y146058D01*
X75000Y145919D01*
X76056Y146058D01*
X77041Y146465D01*
X77886Y147114D01*
X78535Y147959D01*
X78942Y148944D01*
X79081Y150000D01*
X78942Y151056D01*
X78535Y152041D01*
X77886Y152886D01*
X77510Y153174D01*
X77680Y153674D01*
X81871D01*
X82032Y153201D01*
X81900Y153100D01*
X81203Y152192D01*
X81124Y152000D01*
X85000D01*
X88876D01*
X88797Y152192D01*
X88100Y153100D01*
X87968Y153201D01*
X88129Y153674D01*
X89451D01*
X90953Y152172D01*
Y145954D01*
X99046D01*
Y154046D01*
X92828D01*
X90937Y155937D01*
X90507Y156225D01*
X90000Y156325D01*
X53369D01*
X53298Y157409D01*
X52827Y159777D01*
X52051Y162063D01*
X50983Y164228D01*
X49642Y166235D01*
X48050Y168050D01*
X46235Y169642D01*
X44228Y170983D01*
X42063Y172051D01*
X39777Y172827D01*
X37409Y173298D01*
X35000Y173456D01*
D02*
G37*
G36*
X256425Y146898D02*
X253896D01*
X254101Y146401D01*
X254895Y145367D01*
X255929Y144574D01*
X256425Y144368D01*
Y146898D01*
D02*
G37*
G36*
X262955D02*
X260425D01*
Y144368D01*
X260922Y144574D01*
X261956Y145367D01*
X262749Y146401D01*
X262955Y146898D01*
D02*
G37*
G36*
X231260Y153588D02*
X230046Y153428D01*
X228915Y152959D01*
X227943Y152214D01*
X227198Y151243D01*
X226729Y150111D01*
X226570Y148898D01*
X226729Y147684D01*
X227198Y146553D01*
X227943Y145581D01*
X228915Y144836D01*
X230046Y144367D01*
X231260Y144208D01*
X232474Y144367D01*
X233605Y144836D01*
X234576Y145581D01*
X235322Y146553D01*
X235790Y147684D01*
X235950Y148898D01*
X235790Y150111D01*
X235322Y151243D01*
X234576Y152214D01*
X233605Y152959D01*
X232474Y153428D01*
X231260Y153588D01*
D02*
G37*
G36*
X258425Y135477D02*
X257211Y135318D01*
X256080Y134849D01*
X255109Y134104D01*
X254363Y133133D01*
X253895Y132001D01*
X253735Y130787D01*
X253895Y129574D01*
X254363Y128442D01*
X255109Y127471D01*
X256080Y126726D01*
X257211Y126257D01*
X258425Y126097D01*
X259639Y126257D01*
X260770Y126726D01*
X261742Y127471D01*
X262487Y128442D01*
X262955Y129574D01*
X263115Y130787D01*
X262955Y132001D01*
X262487Y133133D01*
X261742Y134104D01*
X260770Y134849D01*
X259639Y135318D01*
X258425Y135477D01*
D02*
G37*
G36*
X231260D02*
X230046Y135318D01*
X228915Y134849D01*
X227943Y134104D01*
X227198Y133133D01*
X226729Y132001D01*
X226570Y130787D01*
X226729Y129574D01*
X227198Y128442D01*
X227943Y127471D01*
X228915Y126726D01*
X230046Y126257D01*
X231260Y126097D01*
X232474Y126257D01*
X233605Y126726D01*
X234576Y127471D01*
X235322Y128442D01*
X235790Y129574D01*
X235950Y130787D01*
X235790Y132001D01*
X235322Y133133D01*
X234576Y134104D01*
X233605Y134849D01*
X232474Y135318D01*
X231260Y135477D01*
D02*
G37*
G36*
X87000Y126376D02*
Y124500D01*
X88876D01*
X88797Y124692D01*
X88100Y125600D01*
X87192Y126297D01*
X87000Y126376D01*
D02*
G37*
G36*
X83000D02*
X82808Y126297D01*
X81900Y125600D01*
X81203Y124692D01*
X81124Y124500D01*
X83000D01*
Y126376D01*
D02*
G37*
G36*
X169654Y121953D02*
X168095D01*
Y120000D01*
X169654D01*
Y121953D01*
D02*
G37*
G36*
X162752D02*
X161193D01*
Y120000D01*
X162752D01*
Y121953D01*
D02*
G37*
G36*
X88876Y120500D02*
X87000D01*
Y118624D01*
X87192Y118703D01*
X88100Y119400D01*
X88797Y120308D01*
X88876Y120500D01*
D02*
G37*
G36*
X83000D02*
X81124D01*
X81203Y120308D01*
X81900Y119400D01*
X82808Y118703D01*
X83000Y118624D01*
Y120500D01*
D02*
G37*
G36*
X79046Y126547D02*
X70954D01*
Y118454D01*
X79046D01*
Y126547D01*
D02*
G37*
G36*
X169654Y116000D02*
X168095D01*
Y114047D01*
X169654D01*
Y116000D01*
D02*
G37*
G36*
X162752Y116000D02*
X161193D01*
Y114047D01*
X162752D01*
Y116000D01*
D02*
G37*
G36*
X37000Y128626D02*
Y112000D01*
X53626D01*
X53596Y112448D01*
X53118Y114855D01*
X52329Y117178D01*
X51244Y119378D01*
X49881Y121418D01*
X48263Y123263D01*
X46418Y124881D01*
X44378Y126244D01*
X42178Y127329D01*
X39855Y128118D01*
X37448Y128596D01*
X37000Y128626D01*
D02*
G37*
G36*
X33000D02*
X32552Y128596D01*
X30145Y128118D01*
X27822Y127329D01*
X25622Y126244D01*
X23582Y124881D01*
X21737Y123263D01*
X20119Y121418D01*
X18756Y119378D01*
X17671Y117178D01*
X16882Y114855D01*
X16404Y112448D01*
X16374Y112000D01*
X33000D01*
Y128626D01*
D02*
G37*
G36*
X158953Y111453D02*
X157000D01*
Y109500D01*
X158953D01*
Y111453D01*
D02*
G37*
G36*
X153000D02*
X151047D01*
Y109500D01*
X153000D01*
Y111453D01*
D02*
G37*
G36*
X94500Y106218D02*
Y104500D01*
X96218D01*
X96169Y104618D01*
X95495Y105496D01*
X94618Y106169D01*
X94500Y106218D01*
D02*
G37*
G36*
X90500D02*
X90382Y106169D01*
X89504Y105496D01*
X88831Y104618D01*
X88782Y104500D01*
X90500D01*
Y106218D01*
D02*
G37*
G36*
X112500Y116325D02*
X81063D01*
X80556Y116225D01*
X80126Y115937D01*
X70223Y106034D01*
X69581Y106300D01*
X68563Y106434D01*
X67545Y106300D01*
X66596Y105907D01*
X65781Y105281D01*
X65156Y104467D01*
X64763Y103518D01*
X64629Y102500D01*
X64763Y101482D01*
X65156Y100533D01*
X65781Y99718D01*
X66596Y99093D01*
X67545Y98700D01*
X68563Y98566D01*
X69581Y98700D01*
X70530Y99093D01*
X71345Y99718D01*
X71970Y100533D01*
X72067Y100768D01*
X72608D01*
X72768Y100382D01*
X73441Y99505D01*
X74319Y98831D01*
X74437Y98782D01*
Y102500D01*
X76437D01*
Y104500D01*
X80155D01*
X80106Y104618D01*
X79432Y105496D01*
X78555Y106169D01*
X77533Y106592D01*
X76437Y106736D01*
X75341Y106592D01*
X75163Y106518D01*
X74880Y106942D01*
X81612Y113674D01*
X111951D01*
X123316Y102310D01*
X123746Y102023D01*
X124253Y101922D01*
X160747D01*
X161255Y102023D01*
X161685Y102310D01*
X163530Y104155D01*
X164046Y103941D01*
X165000Y103816D01*
X165954Y103941D01*
X166842Y104309D01*
X167605Y104895D01*
X168191Y105658D01*
X168559Y106546D01*
X168684Y107500D01*
X168559Y108454D01*
X168191Y109342D01*
X167605Y110105D01*
X166842Y110691D01*
X165954Y111059D01*
X165000Y111184D01*
X164046Y111059D01*
X163158Y110691D01*
X162395Y110105D01*
X161809Y109342D01*
X161441Y108454D01*
X161316Y107500D01*
X161441Y106546D01*
X161655Y106030D01*
X160198Y104573D01*
X158953D01*
Y105500D01*
X151047D01*
Y104573D01*
X124802D01*
X113437Y115937D01*
X113007Y116225D01*
X112500Y116325D01*
D02*
G37*
G36*
X96218Y100500D02*
X94500D01*
Y98782D01*
X94618Y98831D01*
X95495Y99505D01*
X96169Y100382D01*
X96218Y100500D01*
D02*
G37*
G36*
X80155D02*
X78437D01*
Y98782D01*
X78555Y98831D01*
X79432Y99505D01*
X80106Y100382D01*
X80155Y100500D01*
D02*
G37*
G36*
X90500D02*
X88782D01*
X88831Y100382D01*
X89504Y99505D01*
X90382Y98831D01*
X90500Y98782D01*
Y100500D01*
D02*
G37*
G36*
X53626Y108000D02*
X37000D01*
Y91374D01*
X37448Y91404D01*
X39855Y91882D01*
X42178Y92671D01*
X44378Y93756D01*
X46418Y95119D01*
X48263Y96737D01*
X49881Y98582D01*
X51244Y100622D01*
X52329Y102822D01*
X53118Y105145D01*
X53596Y107552D01*
X53626Y108000D01*
D02*
G37*
G36*
X33000D02*
X16374D01*
X16404Y107552D01*
X16882Y105145D01*
X17671Y102822D01*
X18756Y100622D01*
X20119Y98582D01*
X21737Y96737D01*
X23582Y95119D01*
X25622Y93756D01*
X27822Y92671D01*
X30145Y91882D01*
X32552Y91404D01*
X33000Y91374D01*
Y108000D01*
D02*
G37*
G36*
X102500Y106434D02*
X101482Y106300D01*
X100533Y105907D01*
X99718Y105281D01*
X99093Y104467D01*
X98700Y103518D01*
X98566Y102500D01*
X98700Y101482D01*
X99093Y100533D01*
X99718Y99718D01*
X100533Y99093D01*
X101482Y98700D01*
X102500Y98566D01*
X103518Y98700D01*
X104159Y98966D01*
X111263Y91863D01*
X111693Y91575D01*
X112200Y91474D01*
X157398D01*
X159041Y89832D01*
X158756Y89409D01*
X157500Y89533D01*
X156128Y89398D01*
X154809Y88998D01*
X153593Y88348D01*
X152527Y87473D01*
X151652Y86407D01*
X151002Y85191D01*
X150602Y83872D01*
X150467Y82500D01*
X150602Y81128D01*
X151002Y79809D01*
X151652Y78593D01*
X152527Y77527D01*
X153593Y76652D01*
X154809Y76002D01*
X156128Y75602D01*
X157500Y75467D01*
X158872Y75602D01*
X160191Y76002D01*
X161407Y76652D01*
X162473Y77527D01*
X163348Y78593D01*
X163998Y79809D01*
X164398Y81128D01*
X164533Y82500D01*
X164398Y83872D01*
X163998Y85191D01*
X163366Y86374D01*
X163444Y86651D01*
X163550Y86874D01*
X170501D01*
Y75501D01*
X184499D01*
Y89499D01*
X171929D01*
X171801Y89525D01*
X163097D01*
X158884Y93737D01*
X158454Y94025D01*
X157947Y94125D01*
X112749D01*
X106034Y100840D01*
X106300Y101482D01*
X106434Y102500D01*
X106300Y103518D01*
X105907Y104467D01*
X105281Y105281D01*
X104467Y105907D01*
X103518Y106300D01*
X102500Y106434D01*
D02*
G37*
G36*
X353343Y80843D02*
X344500D01*
Y72000D01*
X353343D01*
Y80843D01*
D02*
G37*
G36*
X340500D02*
X331658D01*
Y72000D01*
X340500D01*
Y80843D01*
D02*
G37*
G36*
X23043Y80542D02*
X1957D01*
Y59457D01*
X23043D01*
Y80542D01*
D02*
G37*
G36*
X353343Y68000D02*
X344500D01*
Y59158D01*
X353343D01*
Y68000D01*
D02*
G37*
G36*
X340500D02*
X331658D01*
Y59158D01*
X340500D01*
Y68000D01*
D02*
G37*
%LPD*%
G36*
X183675Y269451D02*
Y268653D01*
X181347D01*
Y261347D01*
X188653D01*
Y263674D01*
X299451D01*
X313674Y249451D01*
Y232027D01*
X313225Y231859D01*
X313175Y231863D01*
X312605Y232605D01*
X311842Y233191D01*
X310954Y233559D01*
X310000Y233684D01*
X309046Y233559D01*
X308158Y233191D01*
X307395Y232605D01*
X306809Y231842D01*
X306595Y231326D01*
X250549D01*
X225937Y255937D01*
X225507Y256225D01*
X225000Y256326D01*
X185549D01*
X178345Y263530D01*
X178559Y264046D01*
X178684Y265000D01*
X178559Y265954D01*
X178191Y266842D01*
X177605Y267605D01*
X176842Y268191D01*
X175954Y268559D01*
X175000Y268684D01*
X174046Y268559D01*
X173158Y268191D01*
X172395Y267605D01*
X171809Y266842D01*
X171441Y265954D01*
X171316Y265000D01*
X171441Y264046D01*
X171667Y263502D01*
X169490Y261326D01*
X167027D01*
X166859Y261775D01*
X166863Y261825D01*
X167605Y262395D01*
X168191Y263158D01*
X168559Y264046D01*
X168684Y265000D01*
X168559Y265954D01*
X168191Y266842D01*
X167605Y267605D01*
X166842Y268191D01*
X165954Y268559D01*
X165000Y268684D01*
X164046Y268559D01*
X163158Y268191D01*
X162395Y267605D01*
X161809Y266842D01*
X161441Y265954D01*
X161316Y265000D01*
X161441Y264046D01*
X161809Y263158D01*
X162395Y262395D01*
X163137Y261825D01*
X163141Y261775D01*
X162973Y261326D01*
X157526D01*
X157356Y261825D01*
X157819Y262181D01*
X158448Y263000D01*
X155000D01*
X151552D01*
X152181Y262181D01*
X152644Y261825D01*
X152474Y261326D01*
X85000D01*
X84493Y261225D01*
X84063Y260937D01*
X55791Y232665D01*
X38405D01*
X38191Y233182D01*
X37605Y233945D01*
X36842Y234530D01*
X35954Y234898D01*
X35000Y235024D01*
X34046Y234898D01*
X33158Y234530D01*
X32395Y233945D01*
X31826Y233203D01*
X31775Y233199D01*
X31326Y233367D01*
Y246951D01*
X55549Y271175D01*
X181951D01*
X183675Y269451D01*
D02*
G37*
%LPC*%
G36*
X157000Y268448D02*
Y267000D01*
X158448D01*
X157819Y267819D01*
X157000Y268448D01*
D02*
G37*
G36*
X153000D02*
X152181Y267819D01*
X151552Y267000D01*
X153000D01*
Y268448D01*
D02*
G37*
G36*
X44992Y252646D02*
X43968Y252511D01*
X43014Y252116D01*
X44268Y251392D01*
X44992Y252646D01*
D02*
G37*
G36*
X300008Y251306D02*
X300732Y250052D01*
X301986Y250776D01*
X301032Y251171D01*
X300008Y251306D01*
D02*
G37*
G36*
X48456Y250646D02*
X47732Y249392D01*
X48986Y248668D01*
X48851Y249692D01*
X48456Y250646D01*
D02*
G37*
G36*
X296544Y249306D02*
X296149Y248352D01*
X296014Y247329D01*
X297268Y248053D01*
X296544Y249306D01*
D02*
G37*
G36*
X41014Y248652D02*
X41149Y247628D01*
X41544Y246674D01*
X42268Y247928D01*
X41014Y248652D01*
D02*
G37*
G36*
X303986Y247312D02*
X302732Y246588D01*
X303456Y245335D01*
X303851Y246289D01*
X303986Y247312D01*
D02*
G37*
G36*
X45732Y245928D02*
X45008Y244674D01*
X46032Y244809D01*
X46986Y245204D01*
X45732Y245928D01*
D02*
G37*
G36*
X299268Y244588D02*
X298014Y243865D01*
X298968Y243470D01*
X299992Y243335D01*
X299268Y244588D01*
D02*
G37*
G36*
X40000Y243684D02*
X39046Y243559D01*
X38158Y243191D01*
X37395Y242605D01*
X36809Y241842D01*
X36441Y240954D01*
X36316Y240000D01*
X36441Y239046D01*
X36809Y238158D01*
X37395Y237395D01*
X38158Y236809D01*
X39046Y236441D01*
X40000Y236316D01*
X40954Y236441D01*
X41842Y236809D01*
X42605Y237395D01*
X43191Y238158D01*
X43559Y239046D01*
X43684Y240000D01*
X43559Y240954D01*
X43191Y241842D01*
X42605Y242605D01*
X41842Y243191D01*
X40954Y243559D01*
X40000Y243684D01*
D02*
G37*
G36*
X305000Y242344D02*
X304046Y242219D01*
X303158Y241851D01*
X302395Y241265D01*
X301809Y240502D01*
X301441Y239614D01*
X301316Y238660D01*
X301441Y237707D01*
X301809Y236818D01*
X302395Y236055D01*
X303158Y235470D01*
X304046Y235102D01*
X305000Y234976D01*
X305954Y235102D01*
X306842Y235470D01*
X307605Y236055D01*
X308191Y236818D01*
X308559Y237707D01*
X308684Y238660D01*
X308559Y239614D01*
X308191Y240502D01*
X307605Y241265D01*
X306842Y241851D01*
X305954Y242219D01*
X305000Y242344D01*
D02*
G37*
%LPD*%
G36*
X178511Y192396D02*
Y189492D01*
X178611Y188988D01*
X178896Y188562D01*
X179170Y188378D01*
X179171Y188378D01*
X179323Y188277D01*
X179827Y188176D01*
X180330Y188277D01*
X180509Y188396D01*
X180588Y188449D01*
X180949Y188089D01*
X180896Y188009D01*
X180777Y187830D01*
X180676Y187327D01*
X180777Y186823D01*
X180834Y186738D01*
X181034Y186343D01*
X180834Y185947D01*
X180777Y185862D01*
X180676Y185358D01*
X180777Y184855D01*
X180834Y184769D01*
X181034Y184374D01*
X180834Y183979D01*
X180777Y183893D01*
X180676Y183390D01*
X180777Y182886D01*
X181062Y182459D01*
Y182352D01*
X180777Y181925D01*
X180676Y181421D01*
X180777Y180918D01*
X180834Y180832D01*
X181034Y180437D01*
X180834Y180042D01*
X180777Y179956D01*
X180676Y179453D01*
X180777Y178949D01*
X181062Y178522D01*
Y178415D01*
X180777Y177988D01*
X180676Y177484D01*
X180777Y176981D01*
X181062Y176554D01*
Y176446D01*
X180777Y176019D01*
X180676Y175516D01*
X180777Y175012D01*
X180834Y174927D01*
X181034Y174531D01*
X180834Y174136D01*
X180777Y174051D01*
X180676Y173547D01*
X180777Y173044D01*
X181062Y172617D01*
Y172509D01*
X180777Y172082D01*
X180676Y171579D01*
X180777Y171075D01*
X180848Y170969D01*
X180744Y170749D01*
X180146Y170654D01*
X179180Y171620D01*
Y172000D01*
X175493D01*
X176024Y171645D01*
X176733Y171504D01*
Y171113D01*
X176826Y170645D01*
X177092Y170248D01*
X180529Y166811D01*
X180719Y166684D01*
X180845Y166495D01*
X180878Y166329D01*
X180777Y166177D01*
X180676Y165673D01*
X180777Y165170D01*
X180949Y164911D01*
X180588Y164551D01*
X180330Y164724D01*
X179827Y164824D01*
X179323Y164724D01*
X179238Y164666D01*
X178842Y164466D01*
X178447Y164666D01*
X178362Y164724D01*
X177858Y164824D01*
X177355Y164724D01*
X176928Y164438D01*
X176820D01*
X176393Y164724D01*
X175890Y164824D01*
X175386Y164724D01*
X175301Y164666D01*
X174906Y164466D01*
X174510Y164666D01*
X174425Y164724D01*
X173921Y164824D01*
X173418Y164724D01*
X173332Y164666D01*
X172937Y164466D01*
X172542Y164666D01*
X172456Y164724D01*
X171953Y164824D01*
X171449Y164724D01*
X171364Y164666D01*
X170968Y164466D01*
X170573Y164666D01*
X170488Y164724D01*
X169984Y164824D01*
X169481Y164724D01*
X169395Y164666D01*
X169000Y164466D01*
X168605Y164666D01*
X168519Y164724D01*
X168016Y164824D01*
X167512Y164724D01*
X167360Y164622D01*
X167359Y164622D01*
X167085Y164438D01*
X166800Y164012D01*
X166700Y163508D01*
Y160603D01*
X166690Y160555D01*
X165404D01*
X165395Y160603D01*
Y163508D01*
X165295Y164012D01*
X165009Y164438D01*
X164735Y164622D01*
X164735Y164622D01*
X164582Y164724D01*
X164079Y164824D01*
X163575Y164724D01*
X163490Y164666D01*
X163094Y164466D01*
X162699Y164666D01*
X162614Y164724D01*
X162110Y164824D01*
X161607Y164724D01*
X161180Y164438D01*
X161072D01*
X160645Y164724D01*
X160142Y164824D01*
X159638Y164724D01*
X159553Y164666D01*
X159158Y164466D01*
X158762Y164666D01*
X158677Y164724D01*
X158173Y164824D01*
X157670Y164724D01*
X157412Y164551D01*
X157051Y164911D01*
X157223Y165170D01*
X157324Y165673D01*
X157223Y166177D01*
X156938Y166604D01*
Y166711D01*
X157223Y167138D01*
X157324Y167642D01*
X157223Y168145D01*
X156938Y168572D01*
Y168680D01*
X157223Y169107D01*
X157324Y169610D01*
X157223Y170114D01*
X157166Y170199D01*
X156966Y170595D01*
X157166Y170990D01*
X157223Y171075D01*
X157324Y171579D01*
X157223Y172082D01*
X156938Y172509D01*
Y172617D01*
X157223Y173044D01*
X157324Y173547D01*
X157223Y174051D01*
X157166Y174136D01*
X156966Y174531D01*
X157166Y174927D01*
X157223Y175012D01*
X157324Y175516D01*
X157223Y176019D01*
X157166Y176105D01*
X156966Y176500D01*
X157166Y176895D01*
X157223Y176981D01*
X157324Y177484D01*
X157223Y177988D01*
X156938Y178415D01*
Y178522D01*
X157223Y178949D01*
X157324Y179453D01*
X157223Y179956D01*
X157166Y180042D01*
X156966Y180437D01*
X157166Y180832D01*
X157223Y180918D01*
X157324Y181421D01*
X157223Y181925D01*
X156938Y182352D01*
Y182459D01*
X157223Y182886D01*
X157324Y183390D01*
X157223Y183893D01*
X157122Y184046D01*
X157122Y184046D01*
X156938Y184320D01*
X156511Y184606D01*
X156008Y184706D01*
X153055D01*
Y186001D01*
X153103Y186011D01*
X156008D01*
X156511Y186111D01*
X156938Y186396D01*
X157122Y186670D01*
X157122Y186671D01*
X157223Y186823D01*
X157324Y187327D01*
X157223Y187830D01*
X157104Y188009D01*
X157051Y188089D01*
X157412Y188449D01*
X157491Y188396D01*
X157670Y188277D01*
X158173Y188176D01*
X158677Y188277D01*
X158762Y188334D01*
X159158Y188534D01*
X159553Y188334D01*
X159638Y188277D01*
X160142Y188176D01*
X160645Y188277D01*
X160731Y188334D01*
X161126Y188534D01*
X161521Y188334D01*
X161607Y188277D01*
X162110Y188176D01*
X162614Y188277D01*
X162699Y188334D01*
X163094Y188534D01*
X163490Y188334D01*
X163575Y188277D01*
X164079Y188176D01*
X164582Y188277D01*
X164668Y188334D01*
X165063Y188534D01*
X165458Y188334D01*
X165544Y188277D01*
X166047Y188176D01*
X166551Y188277D01*
X166978Y188562D01*
X167085D01*
X167512Y188277D01*
X168016Y188176D01*
X168519Y188277D01*
X168605Y188334D01*
X169000Y188534D01*
X169395Y188334D01*
X169481Y188277D01*
X169984Y188176D01*
X170488Y188277D01*
X170573Y188334D01*
X170968Y188534D01*
X171364Y188334D01*
X171449Y188277D01*
X171953Y188176D01*
X172456Y188277D01*
X172542Y188334D01*
X172937Y188534D01*
X173332Y188334D01*
X173418Y188277D01*
X173921Y188176D01*
X174425Y188277D01*
X174510Y188334D01*
X174906Y188534D01*
X175301Y188334D01*
X175386Y188277D01*
X175890Y188176D01*
X176393Y188277D01*
X176546Y188378D01*
X176546Y188378D01*
X176820Y188562D01*
X177106Y188988D01*
X177206Y189492D01*
Y192396D01*
X177215Y192445D01*
X178501D01*
X178511Y192396D01*
D02*
G37*
G36*
X157130Y164270D02*
X156958Y164011D01*
X156857Y163508D01*
Y160604D01*
X156848Y160555D01*
Y159799D01*
X143307D01*
X142432Y160675D01*
X142639Y161174D01*
X149233D01*
X149741Y161275D01*
X150171Y161563D01*
X151049Y162441D01*
X151336Y162871D01*
X151437Y163378D01*
Y164348D01*
X153055D01*
X153104Y164357D01*
X156008D01*
X156511Y164458D01*
X156770Y164630D01*
X157130Y164270D01*
D02*
G37*
G36*
X200796Y164539D02*
X200967Y163681D01*
X201453Y162953D01*
X202181Y162467D01*
X203039Y162296D01*
X203898Y162467D01*
X204474Y162852D01*
X204975Y162644D01*
Y139152D01*
X197189Y131367D01*
X196728Y131559D01*
Y139137D01*
X176300D01*
Y152190D01*
X176199Y152698D01*
X175911Y153128D01*
X173526Y155514D01*
X173547Y155914D01*
X173921Y156287D01*
X174425Y156387D01*
X174510Y156444D01*
X174906Y156645D01*
X175301Y156444D01*
X175386Y156387D01*
X175890Y156287D01*
X176393Y156387D01*
X176479Y156444D01*
X176874Y156645D01*
X177269Y156444D01*
X177355Y156387D01*
X177858Y156287D01*
X178362Y156387D01*
X178447Y156444D01*
X178842Y156645D01*
X179238Y156444D01*
X179323Y156387D01*
X179827Y156287D01*
X180330Y156387D01*
X180757Y156672D01*
X181042Y157099D01*
X181143Y157602D01*
Y163508D01*
X181042Y164011D01*
X180870Y164270D01*
X181230Y164630D01*
X181489Y164458D01*
X181992Y164357D01*
X184896D01*
X184945Y164348D01*
X192780D01*
Y163284D01*
X193675D01*
Y159260D01*
X193414Y159086D01*
X192928Y158358D01*
X192757Y157500D01*
X192928Y156642D01*
X193414Y155914D01*
X194142Y155428D01*
X195000Y155257D01*
X195858Y155428D01*
X196586Y155914D01*
X197072Y156642D01*
X197243Y157500D01*
X197072Y158358D01*
X196586Y159086D01*
X196326Y159260D01*
Y163284D01*
X199298D01*
Y164667D01*
X200692D01*
X200796Y164539D01*
D02*
G37*
G36*
X141821Y157537D02*
X142251Y157249D01*
X142758Y157148D01*
X156948D01*
X156958Y157099D01*
X157243Y156672D01*
X157670Y156387D01*
X158173Y156287D01*
X158677Y156387D01*
X158762Y156444D01*
X159158Y156645D01*
X159553Y156444D01*
X159638Y156387D01*
X160142Y156287D01*
X160645Y156387D01*
X160750Y156457D01*
X160855Y156407D01*
X160972Y155799D01*
X160912Y155734D01*
X160826D01*
X160319Y155633D01*
X159889Y155346D01*
X157841Y153298D01*
X156253D01*
X153614Y155937D01*
X153184Y156225D01*
X152677Y156325D01*
X137027D01*
X136859Y156775D01*
X136863Y156825D01*
X137605Y157395D01*
X138191Y158158D01*
X138405Y158675D01*
X140683D01*
X141821Y157537D01*
D02*
G37*
G36*
X195223Y129401D02*
X182068Y116245D01*
X181606Y116437D01*
Y121653D01*
X179672D01*
Y129863D01*
X195032D01*
X195223Y129401D01*
D02*
G37*
D13*
X196000Y173000D02*
X205000D01*
X177000Y174000D02*
X177957Y173043D01*
Y171113D02*
Y173043D01*
Y171113D02*
X181394Y167676D01*
X184910D01*
X184945Y167642D01*
X150000Y149409D02*
Y150000D01*
X155000Y107500D02*
X157256Y109756D01*
Y116063D02*
X159193Y118000D01*
X205000Y180000D02*
X207000Y178000D01*
X147889Y185358D02*
X153055D01*
X146763Y186484D02*
X147889Y185358D01*
X144008Y186484D02*
X146763D01*
X142539Y187953D02*
X144008Y186484D01*
D14*
X0Y276000D02*
X354500D01*
X-0Y57500D02*
X0Y276000D01*
X-0Y57500D02*
X354500D01*
X354500Y276000D01*
D16*
X196600Y180000D02*
D03*
X205000D02*
D03*
D20*
X152500Y118000D02*
D03*
X159193D02*
D03*
X178347D02*
D03*
X171653D02*
D03*
D47*
X202687Y169231D02*
X206300Y165619D01*
Y138603D02*
Y165619D01*
X191902Y169231D02*
X202687D01*
X189565Y171569D02*
X191902Y169231D01*
X195000Y157500D02*
Y164913D01*
X196039Y165953D01*
X175197Y107500D02*
X206300Y138603D01*
X201587Y165992D02*
X203039Y164539D01*
X196079Y165992D02*
X201587D01*
X195000Y165413D02*
X195039Y165453D01*
X160747Y103247D02*
X165000Y107500D01*
X124253Y103247D02*
X160747D01*
X112500Y115000D02*
X124253Y103247D01*
X185453Y198102D02*
Y201870D01*
X191656Y194344D02*
X192000Y194000D01*
X191656Y194344D02*
Y195667D01*
X185453Y201870D02*
X191656Y195667D01*
X185453Y201870D02*
Y202461D01*
X191408Y187327D02*
X205126Y201044D01*
X184945Y187327D02*
X191408D01*
X205126Y201044D02*
X207816D01*
X135000Y195000D02*
X142500D01*
X75000Y225000D02*
X119211Y180789D01*
X135670D02*
X144881Y171579D01*
X119211Y180789D02*
X135670D01*
X162548Y88199D02*
X171801D01*
X157947Y92800D02*
X162548Y88199D01*
X112200Y92800D02*
X157947D01*
X185453Y202461D02*
Y203051D01*
X197550Y215149D01*
X200149D01*
X202500Y217500D01*
X222500Y215728D02*
Y217500D01*
X207816Y201044D02*
X222500Y215728D01*
X187500Y225000D02*
X206772D01*
X212500Y219272D01*
Y217500D02*
Y219272D01*
X175890Y213390D02*
X187500Y225000D01*
X175890Y192445D02*
Y213390D01*
X182236Y194885D02*
X185453Y198102D01*
X179836Y194885D02*
X182236D01*
X179827Y194876D02*
X179836Y194885D01*
X179827Y192445D02*
Y194876D01*
X170039Y260000D02*
X175000Y264961D01*
Y265000D01*
X85000Y260000D02*
X170039D01*
X56340Y231340D02*
X85000Y260000D01*
X35000Y231340D02*
X56340D01*
X175000Y265000D02*
X185000Y255000D01*
X225000D01*
X250000Y230000D01*
X310000D01*
X149233Y162500D02*
X150112Y163378D01*
X141419Y162500D02*
X149233D01*
X135000Y168919D02*
X141419Y162500D01*
X147395Y165871D02*
X149156Y167632D01*
X145000Y165871D02*
X147395D01*
X142899Y169601D02*
X153046D01*
X144881Y171579D02*
X153055D01*
X148943Y173557D02*
X153046D01*
X142500Y180000D02*
X148943Y173557D01*
X153046D02*
X153055Y173547D01*
X149156Y167632D02*
X153046D01*
X153055Y167642D01*
X150112Y165664D02*
X150121Y165673D01*
X150112Y163378D02*
Y165664D01*
X135000Y168919D02*
Y170000D01*
X158173Y158483D02*
Y160555D01*
X158164Y158474D02*
X158173Y158483D01*
X142758Y158474D02*
X158164D01*
X141232Y160000D02*
X142758Y158474D01*
X135000Y160000D02*
X141232D01*
X150121Y165673D02*
X153055D01*
X153046Y169601D02*
X153055Y169610D01*
X253175Y186648D02*
X258425Y181398D01*
X211301Y186648D02*
X253175D01*
X210012Y185358D02*
X211301Y186648D01*
X184945Y185358D02*
X210012D01*
X199753Y214753D02*
X200145D01*
X202500Y217108D01*
Y217500D01*
X194819Y165673D02*
X195039Y165453D01*
X184945Y165673D02*
X194819D01*
X315000Y221340D02*
Y250000D01*
X300000Y265000D02*
X315000Y250000D01*
X185000Y265000D02*
X300000D01*
X81063Y115000D02*
X112500D01*
X68563Y102500D02*
X81063Y115000D01*
X95000Y131797D02*
X118203Y155000D01*
X95000Y122500D02*
Y131797D01*
X118203Y155000D02*
X152677D01*
X157047Y150630D01*
Y150039D02*
Y150630D01*
X184954Y171569D02*
X189565D01*
X184945Y171579D02*
X184954Y171569D01*
Y173557D02*
X189691D01*
X191962Y175828D01*
X175000Y107500D02*
X175197D01*
X165000Y150000D02*
X168016Y153016D01*
Y160555D01*
X164069Y160546D02*
X164079Y160555D01*
X164069Y156888D02*
Y160546D01*
X161590Y154409D02*
X164069Y156888D01*
X160826Y154409D02*
X161590D01*
X157047Y150630D02*
X160826Y154409D01*
X171801Y88199D02*
X177500Y82500D01*
X102500Y102500D02*
X112200Y92800D01*
X181684Y134500D02*
X185201D01*
X178311D02*
X181684D01*
X171953Y155212D02*
X174974Y152190D01*
Y137837D02*
Y152190D01*
Y137837D02*
X178311Y134500D01*
X171953Y155212D02*
Y160555D01*
X167500Y145000D02*
X169984Y147484D01*
Y160555D01*
X165189Y145000D02*
X167500D01*
X154689Y134500D02*
X165189Y145000D01*
X147799Y134500D02*
X154689D01*
X150121Y187327D02*
X153055D01*
X150112Y187336D02*
X150121Y187327D01*
X150112Y187336D02*
Y187979D01*
X143091Y195000D02*
X150112Y187979D01*
X142500Y195000D02*
X143091D01*
X157500D02*
X158164D01*
X158173Y194991D01*
Y192445D02*
Y194991D01*
X152500Y200000D02*
X157500Y195000D01*
X130000Y200000D02*
X152500D01*
X160132Y192454D02*
Y196112D01*
Y192454D02*
X160142Y192445D01*
X151244Y205000D02*
X160132Y196112D01*
X145000Y205000D02*
X151244D01*
X182500Y272500D02*
X185000Y270000D01*
Y265000D02*
Y270000D01*
X55000Y272500D02*
X182500D01*
X30000Y247500D02*
X55000Y272500D01*
X30000Y222679D02*
Y247500D01*
X192428Y175828D02*
X196600Y180000D01*
X191962Y175828D02*
X192428D01*
X184945Y173547D02*
X184954Y173557D01*
X178347Y118000D02*
Y131163D01*
X181684Y134500D01*
X147799D02*
X151136Y131163D01*
Y119364D02*
Y131163D01*
Y119364D02*
X152500Y118000D01*
X90000Y155000D02*
X95000Y150000D01*
X35000Y155000D02*
X90000D01*
D48*
X95000Y122500D02*
D03*
X85000D02*
D03*
X75000Y150000D02*
D03*
X85000D02*
D03*
D49*
X75000Y122500D02*
D03*
X95000Y150000D02*
D03*
D50*
X202500Y217500D02*
D03*
X212500D02*
D03*
X222500D02*
D03*
D51*
X232500D02*
D03*
D52*
X135000Y170000D02*
D03*
Y160000D02*
D03*
X300000Y247321D02*
D03*
X305000Y238660D02*
D03*
X310000Y230000D02*
D03*
X165000Y107500D02*
D03*
X175000D02*
D03*
X45000Y248660D02*
D03*
X40000Y240000D02*
D03*
X35000Y231340D02*
D03*
X155000Y265000D02*
D03*
X165000D02*
D03*
X175000D02*
D03*
D53*
X135000Y150000D02*
D03*
D54*
X35000Y110000D02*
D03*
Y155000D02*
D03*
D55*
X102500Y102500D02*
D03*
X92500D02*
D03*
X105374Y170000D02*
D03*
X97500D02*
D03*
X68563Y102500D02*
D03*
X76437D02*
D03*
D56*
X85000Y170000D02*
D03*
X65000D02*
D03*
X231260Y130787D02*
D03*
Y148898D02*
D03*
X258425D02*
D03*
Y130787D02*
D03*
X231260Y163287D02*
D03*
Y181398D02*
D03*
X258425D02*
D03*
Y163287D02*
D03*
D57*
X157500Y82500D02*
D03*
D58*
X177500D02*
D03*
D59*
X315000Y221340D02*
D03*
D60*
X155000Y107500D02*
D03*
X185000Y265000D02*
D03*
D61*
X30000Y222679D02*
D03*
D62*
X11811Y263779D02*
D03*
X12500Y70000D02*
D03*
X342520Y263779D02*
D03*
D63*
X342500Y70000D02*
D03*
D64*
X205000Y173000D02*
D03*
X177000Y174000D02*
D03*
X195000Y157500D02*
D03*
X203039Y164539D02*
D03*
X192000Y194000D02*
D03*
X135000Y195000D02*
D03*
X145000Y165871D02*
D03*
X142899Y169601D02*
D03*
X165000Y150000D02*
D03*
X142500Y180000D02*
D03*
X75000Y225000D02*
D03*
X130000Y200000D02*
D03*
X145000Y205000D02*
D03*
D65*
X184945Y165673D02*
D03*
Y167642D02*
D03*
Y169610D02*
D03*
Y171579D02*
D03*
Y173547D02*
D03*
Y175516D02*
D03*
Y177484D02*
D03*
Y179453D02*
D03*
Y181421D02*
D03*
Y183390D02*
D03*
Y185358D02*
D03*
Y187327D02*
D03*
X153055D02*
D03*
Y185358D02*
D03*
Y183390D02*
D03*
Y181421D02*
D03*
Y179453D02*
D03*
Y177484D02*
D03*
Y175516D02*
D03*
Y173547D02*
D03*
Y171579D02*
D03*
Y169610D02*
D03*
Y167642D02*
D03*
Y165673D02*
D03*
D66*
X179827Y192445D02*
D03*
X177858D02*
D03*
X175890D02*
D03*
X173921D02*
D03*
X171953D02*
D03*
X169984D02*
D03*
X168016D02*
D03*
X166047D02*
D03*
X164079D02*
D03*
X162110D02*
D03*
X160142D02*
D03*
X158173D02*
D03*
Y160555D02*
D03*
X160142D02*
D03*
X162110D02*
D03*
X164079D02*
D03*
X166047D02*
D03*
X168016D02*
D03*
X169984D02*
D03*
X171953D02*
D03*
X173921D02*
D03*
X175890D02*
D03*
X177858D02*
D03*
X179827D02*
D03*
D67*
X185201Y134500D02*
D03*
X147799D02*
D03*
D68*
X142539Y187953D02*
D03*
X142500Y195000D02*
D03*
X196000Y173000D02*
D03*
X196039Y165953D02*
D03*
D69*
X150000Y150000D02*
D03*
X157047Y150039D02*
D03*
X192500Y202500D02*
D03*
X185453Y202461D02*
D03*
M02*
