G04*
G04 #@! TF.GenerationSoftware,Altium Limited,Altium Designer,19.1.5 (86)*
G04*
G04 Layer_Color=65535*
%FSLAX25Y25*%
%MOIN*%
G70*
G01*
G75*
%ADD10C,0.00787*%
%ADD11C,0.00800*%
%ADD12C,0.00600*%
%ADD13C,0.01000*%
%ADD14C,0.02000*%
D10*
X54259Y110000D02*
G03*
X54259Y110000I-19259J0D01*
G01*
X97500Y92500D02*
G03*
X107500Y102500I0J10000D01*
G01*
X87500D02*
G03*
X97500Y92500I10000J0D01*
G01*
Y112500D02*
G03*
X87500Y102500I0J-10000D01*
G01*
X107500D02*
G03*
X97500Y112500I-10000J0D01*
G01*
X112000Y170000D02*
G03*
X112000Y170000I-10563J0D01*
G01*
X54259Y155000D02*
G03*
X54259Y155000I-19259J0D01*
G01*
X83063Y102500D02*
G03*
X83063Y102500I-10563J0D01*
G01*
X107835Y115532D02*
Y135453D01*
X62047Y115532D02*
Y135453D01*
Y115532D02*
X107835D01*
X62047Y135453D02*
X107835D01*
X62047Y131752D02*
X107835D01*
X274350Y140925D02*
Y144075D01*
X280650Y140925D02*
Y144075D01*
X130138Y227638D02*
X134862D01*
Y240630D01*
X130138D02*
X134862D01*
X130138Y227638D02*
Y240630D01*
X130000Y145000D02*
X140000D01*
X130000D02*
Y175000D01*
X140000D01*
Y145000D02*
Y175000D01*
X87500Y163750D02*
Y165500D01*
X62500Y174500D02*
Y176250D01*
X87500D01*
Y174500D02*
Y176250D01*
X62500Y163750D02*
X87500D01*
X62500D02*
Y165500D01*
X188091Y68209D02*
Y81090D01*
Y88090D02*
Y98839D01*
X174291Y68209D02*
X188091D01*
Y81090D02*
Y88090D01*
X147500Y98839D02*
X188091D01*
X147500Y68209D02*
Y98839D01*
Y68209D02*
X174291D01*
X313820Y213385D02*
X322480Y218385D01*
X292560Y250208D02*
X313820Y213385D01*
X301220Y255208D02*
X322480Y218385D01*
X292560Y250208D02*
X301220Y255208D01*
X150000Y102500D02*
Y112500D01*
X180000D01*
Y102500D02*
Y112500D01*
X150000Y102500D02*
X180000D01*
X62165Y137047D02*
Y156968D01*
X107953Y137047D02*
Y156968D01*
X62165D02*
X107953D01*
X62165Y137047D02*
X107953D01*
X62165Y140748D02*
X107953D01*
X264941Y165413D02*
X270059D01*
X110138Y227638D02*
X114862D01*
Y240630D01*
X110138D02*
X114862D01*
X110138Y227638D02*
Y240630D01*
X264941Y147087D02*
X270059D01*
X227087Y229941D02*
Y235059D01*
X22520Y219724D02*
X31181Y214724D01*
X22520Y219724D02*
X43780Y256547D01*
X31181Y214724D02*
X52440Y251547D01*
X43780Y256547D02*
X52440Y251547D01*
X191299Y260000D02*
Y270000D01*
X148779Y260000D02*
X191299D01*
X148779Y270000D02*
X191299D01*
X148779Y260000D02*
Y270000D01*
X128957Y231968D02*
Y229345D01*
X127645Y228033D01*
X126333Y229345D01*
Y231968D01*
Y230001D01*
X128957D01*
X126333Y236563D02*
X126989Y235907D01*
X128301D01*
X128957Y236563D01*
Y239187D01*
X128301Y239843D01*
X126989D01*
X126333Y239187D01*
X108957Y231968D02*
Y229345D01*
X107645Y228033D01*
X106333Y229345D01*
Y231968D01*
Y230001D01*
X108957D01*
X106333Y236563D02*
X106989Y235907D01*
X108301D01*
X108957Y236563D01*
Y239187D01*
X108301Y239843D01*
X106989D01*
X106333Y239187D01*
D11*
X250590Y140000D02*
G03*
X250590Y140000I-5590J0D01*
G01*
Y172500D02*
G03*
X250590Y172500I-5590J0D01*
G01*
X253307Y130000D02*
Y149685D01*
X236378D02*
X253307D01*
X236378Y130000D02*
Y149685D01*
Y130000D02*
X253307D01*
Y162500D02*
Y182185D01*
X236378D02*
X253307D01*
X236378Y162500D02*
Y182185D01*
Y162500D02*
X253307D01*
X287500Y162000D02*
X283501D01*
Y163999D01*
X284168Y164666D01*
X285501D01*
X286167Y163999D01*
Y162000D01*
Y163333D02*
X287500Y164666D01*
X288833Y165999D02*
X284834D01*
Y167998D01*
X285501Y168665D01*
X286834D01*
X287500Y167998D01*
Y165999D01*
X284834Y169997D02*
X286834D01*
X287500Y170664D01*
Y172663D01*
X284834D01*
X283501Y173996D02*
X287500D01*
Y175996D01*
X286834Y176662D01*
X286167D01*
X285501Y175996D01*
Y173996D01*
Y175996D01*
X284834Y176662D01*
X284168D01*
X283501Y175996D01*
Y173996D01*
X284168Y177995D02*
X283501Y178661D01*
Y179994D01*
X284168Y180661D01*
X286834D01*
X287500Y179994D01*
Y178661D01*
X286834Y177995D01*
X284168D01*
X122500Y75000D02*
Y78999D01*
X124499D01*
X125166Y78332D01*
Y76999D01*
X124499Y76333D01*
X122500D01*
X123833D02*
X125166Y75000D01*
X126499D02*
Y78999D01*
X128498D01*
X129165Y78332D01*
Y76999D01*
X128498Y76333D01*
X126499D01*
X130497Y78999D02*
Y75000D01*
X132497D01*
X133163Y75666D01*
Y78332D01*
X132497Y78999D01*
X130497D01*
X134496D02*
Y75000D01*
X137162D01*
X138495Y78999D02*
Y75000D01*
X140494D01*
X141161Y75666D01*
Y78332D01*
X140494Y78999D01*
X138495D01*
X142494Y75000D02*
Y78999D01*
X144493D01*
X145159Y78332D01*
Y76999D01*
X144493Y76333D01*
X142494D01*
X143826D02*
X145159Y75000D01*
X287500Y137500D02*
X283501D01*
Y139499D01*
X284168Y140166D01*
X285501D01*
X286167Y139499D01*
Y137500D01*
Y138833D02*
X287500Y140166D01*
X284834Y141499D02*
X287500D01*
X286167D01*
X285501Y142165D01*
X284834Y142832D01*
Y143498D01*
X287500Y145497D02*
Y147497D01*
X286834Y148163D01*
X286167Y147497D01*
Y146164D01*
X285501Y145497D01*
X284834Y146164D01*
Y148163D01*
X284168Y150163D02*
X284834D01*
Y149496D01*
Y150829D01*
Y150163D01*
X286834D01*
X287500Y150829D01*
X126300Y247799D02*
Y243800D01*
X128299D01*
X128966Y244466D01*
Y247132D01*
X128299Y247799D01*
X126300D01*
X132965Y243800D02*
X130299D01*
X132965Y246466D01*
Y247132D01*
X132298Y247799D01*
X130965D01*
X130299Y247132D01*
X195000Y232500D02*
Y236499D01*
X196999D01*
X197666Y235832D01*
Y234499D01*
X196999Y233833D01*
X195000D01*
X198999Y235166D02*
Y232500D01*
Y233833D01*
X199665Y234499D01*
X200332Y235166D01*
X200998D01*
X203664Y232500D02*
X204997D01*
X205663Y233166D01*
Y234499D01*
X204997Y235166D01*
X203664D01*
X202997Y234499D01*
Y233166D01*
X203664Y232500D01*
X208329Y231167D02*
X208996D01*
X209662Y231834D01*
Y235166D01*
X207663D01*
X206996Y234499D01*
Y233166D01*
X207663Y232500D01*
X209662D01*
X117500Y183999D02*
Y180666D01*
X118166Y180000D01*
X119499D01*
X120166Y180666D01*
Y183999D01*
X121499Y180000D02*
Y182666D01*
X122832Y183999D01*
X124164Y182666D01*
Y180000D01*
Y181999D01*
X121499D01*
X125497Y180000D02*
Y183999D01*
X127497D01*
X128163Y183332D01*
Y181999D01*
X127497Y181333D01*
X125497D01*
X126830D02*
X128163Y180000D01*
X129496Y183999D02*
X132162D01*
X130829D01*
Y180000D01*
X136161D02*
X133495D01*
X136161Y182666D01*
Y183332D01*
X135494Y183999D01*
X134161D01*
X133495Y183332D01*
X8666Y133999D02*
X7333D01*
X7999D01*
Y130666D01*
X7333Y130000D01*
X6667D01*
X6000Y130666D01*
X9999Y129333D02*
X12664D01*
X16663Y133332D02*
X15997Y133999D01*
X14664D01*
X13997Y133332D01*
Y130666D01*
X14664Y130000D01*
X15997D01*
X16663Y130666D01*
Y131999D01*
X15330D01*
X17996Y130000D02*
Y133999D01*
X20662Y130000D01*
Y133999D01*
X21995D02*
Y130000D01*
X23994D01*
X24661Y130666D01*
Y133332D01*
X23994Y133999D01*
X21995D01*
X112185Y102666D02*
X109519D01*
X110852Y101333D02*
Y103999D01*
X116319Y170166D02*
X113653D01*
X114986Y168833D02*
Y171499D01*
X227900Y159799D02*
Y155800D01*
X229899D01*
X230566Y156466D01*
Y157133D01*
X229899Y157799D01*
X227900D01*
X229899D01*
X230566Y158466D01*
Y159132D01*
X229899Y159799D01*
X227900D01*
X231899Y155800D02*
Y159799D01*
X233898D01*
X234564Y159132D01*
Y157799D01*
X233898Y157133D01*
X231899D01*
X233232D02*
X234564Y155800D01*
X235897D02*
X237897D01*
X238563Y156466D01*
X237897Y157133D01*
X236564D01*
X235897Y157799D01*
X236564Y158466D01*
X238563D01*
X240563Y159132D02*
Y158466D01*
X239896D01*
X241229D01*
X240563D01*
Y156466D01*
X241229Y155800D01*
X140166Y96499D02*
X138833D01*
X139499D01*
Y93166D01*
X138833Y92500D01*
X138166D01*
X137500Y93166D01*
X141499Y92500D02*
X142832D01*
X142165D01*
Y96499D01*
X141499Y95832D01*
X293000Y262399D02*
Y259066D01*
X293666Y258400D01*
X294999D01*
X295666Y259066D01*
Y262399D01*
X299664Y261732D02*
X298998Y262399D01*
X297665D01*
X296999Y261732D01*
Y261066D01*
X297665Y260399D01*
X298998D01*
X299664Y259733D01*
Y259066D01*
X298998Y258400D01*
X297665D01*
X296999Y259066D01*
X300997Y261732D02*
X301664Y262399D01*
X302997D01*
X303663Y261732D01*
Y261066D01*
X302997Y260399D01*
X302330D01*
X302997D01*
X303663Y259733D01*
Y259066D01*
X302997Y258400D01*
X301664D01*
X300997Y259066D01*
X125166Y108332D02*
X124499Y108999D01*
X123167D01*
X122500Y108332D01*
Y107666D01*
X123167Y106999D01*
X124499D01*
X125166Y106333D01*
Y105666D01*
X124499Y105000D01*
X123167D01*
X122500Y105666D01*
X128498Y105000D02*
X127165D01*
X126499Y105666D01*
Y106999D01*
X127165Y107666D01*
X128498D01*
X129165Y106999D01*
Y106333D01*
X126499D01*
X130497Y107666D02*
Y105000D01*
Y106333D01*
X131164Y106999D01*
X131830Y107666D01*
X132497D01*
X134496D02*
X135829Y105000D01*
X137162Y107666D01*
X139161Y105000D02*
X140494D01*
X141161Y105666D01*
Y106999D01*
X140494Y107666D01*
X139161D01*
X138495Y106999D01*
Y105666D01*
X139161Y105000D01*
X142494Y108332D02*
X143160Y108999D01*
X144493D01*
X145159Y108332D01*
Y105666D01*
X144493Y105000D01*
X143160D01*
X142494Y105666D01*
Y108332D01*
X16766Y184199D02*
X15433D01*
X16099D01*
Y180867D01*
X15433Y180200D01*
X14766D01*
X14100Y180867D01*
X18099Y179534D02*
X20764D01*
X22097Y184199D02*
Y181533D01*
X23430Y180200D01*
X24763Y181533D01*
Y184199D01*
X28762Y183532D02*
X28095Y184199D01*
X26763D01*
X26096Y183532D01*
Y180867D01*
X26763Y180200D01*
X28095D01*
X28762Y180867D01*
X32761Y183532D02*
X32094Y184199D01*
X30761D01*
X30095Y183532D01*
Y180867D01*
X30761Y180200D01*
X32094D01*
X32761Y180867D01*
X57618Y102334D02*
X60284D01*
X58951Y103667D02*
Y101001D01*
X227900Y192299D02*
Y188300D01*
X229899D01*
X230566Y188967D01*
Y189633D01*
X229899Y190299D01*
X227900D01*
X229899D01*
X230566Y190966D01*
Y191632D01*
X229899Y192299D01*
X227900D01*
X231899Y191632D02*
X232565Y192299D01*
X233898D01*
X234564Y191632D01*
Y188967D01*
X233898Y188300D01*
X232565D01*
X231899Y188967D01*
Y191632D01*
X266668Y187666D02*
X266001Y186999D01*
Y185667D01*
X266668Y185000D01*
X269334D01*
X270000Y185667D01*
Y186999D01*
X269334Y187666D01*
X266001Y188999D02*
X270000D01*
Y190998D01*
X269334Y191665D01*
X268667D01*
X268001Y190998D01*
Y188999D01*
Y190998D01*
X267334Y191665D01*
X266668D01*
X266001Y190998D01*
Y188999D01*
X266668Y192997D02*
X266001Y193664D01*
Y194997D01*
X266668Y195663D01*
X269334D01*
X270000Y194997D01*
Y193664D01*
X269334Y192997D01*
X266668D01*
X106300Y247799D02*
Y243800D01*
X108299D01*
X108966Y244466D01*
Y247132D01*
X108299Y247799D01*
X106300D01*
X110299Y243800D02*
X111632D01*
X110965D01*
Y247799D01*
X110299Y247132D01*
X105000Y207000D02*
X101001D01*
Y208999D01*
X101668Y209666D01*
X103001D01*
X103667Y208999D01*
Y207000D01*
Y208333D02*
X105000Y209666D01*
X101001Y210999D02*
X105000D01*
Y213665D01*
Y216997D02*
Y215664D01*
X104333Y214997D01*
X103001D01*
X102334Y215664D01*
Y216997D01*
X103001Y217663D01*
X103667D01*
Y214997D01*
X101001Y221662D02*
X105000D01*
Y219663D01*
X104333Y218996D01*
X103001D01*
X102334Y219663D01*
Y221662D01*
X101668Y222995D02*
X101001Y223661D01*
Y224994D01*
X101668Y225661D01*
X104333D01*
X105000Y224994D01*
Y223661D01*
X104333Y222995D01*
X101668D01*
X125000Y207000D02*
X121001D01*
Y208999D01*
X121668Y209666D01*
X123001D01*
X123667Y208999D01*
Y207000D01*
Y208333D02*
X125000Y209666D01*
X121001Y210999D02*
X125000D01*
Y213665D01*
Y216997D02*
Y215664D01*
X124334Y214997D01*
X123001D01*
X122334Y215664D01*
Y216997D01*
X123001Y217663D01*
X123667D01*
Y214997D01*
X121001Y221662D02*
X125000D01*
Y219663D01*
X124334Y218996D01*
X123001D01*
X122334Y219663D01*
Y221662D01*
X125000Y222995D02*
Y224328D01*
Y223661D01*
X121001D01*
X121668Y222995D01*
X266668Y115166D02*
X266001Y114499D01*
Y113166D01*
X266668Y112500D01*
X269334D01*
X270000Y113166D01*
Y114499D01*
X269334Y115166D01*
X266001Y119165D02*
X270000D01*
Y117165D01*
X269334Y116499D01*
X268001D01*
X267334Y117165D01*
Y119165D01*
X270000Y120497D02*
X266001D01*
Y122497D01*
X266668Y123163D01*
X268001D01*
X268667Y122497D01*
Y120497D01*
Y121830D02*
X270000Y123163D01*
Y124496D02*
Y126496D01*
X269334Y127162D01*
X268667Y126496D01*
Y125163D01*
X268001Y124496D01*
X267334Y125163D01*
Y127162D01*
X266668Y129161D02*
X267334D01*
Y128495D01*
Y129828D01*
Y129161D01*
X269334D01*
X270000Y129828D01*
X216366Y242732D02*
X215699Y243399D01*
X214366D01*
X213700Y242732D01*
Y240066D01*
X214366Y239400D01*
X215699D01*
X216366Y240066D01*
X220364Y243399D02*
Y239400D01*
X218365D01*
X217699Y240066D01*
Y241399D01*
X218365Y242066D01*
X220364D01*
X224363Y242732D02*
X223697Y243399D01*
X222364D01*
X221697Y242732D01*
Y242066D01*
X222364Y241399D01*
X223697D01*
X224363Y240733D01*
Y240066D01*
X223697Y239400D01*
X222364D01*
X221697Y240066D01*
X225696Y243399D02*
Y239400D01*
X227029Y240733D01*
X228362Y239400D01*
Y243399D01*
X229695D02*
Y239400D01*
X231694D01*
X232361Y240066D01*
Y242732D01*
X231694Y243399D01*
X229695D01*
X45000Y200000D02*
X41001D01*
Y201999D01*
X41668Y202666D01*
X43001D01*
X43667Y201999D01*
Y200000D01*
Y201333D02*
X45000Y202666D01*
Y205998D02*
Y204665D01*
X44334Y203999D01*
X43001D01*
X42334Y204665D01*
Y205998D01*
X43001Y206664D01*
X43667D01*
Y203999D01*
X42334Y210663D02*
Y208664D01*
X43001Y207997D01*
X44334D01*
X45000Y208664D01*
Y210663D01*
X41001Y211996D02*
X45000D01*
X43001D01*
X42334Y212663D01*
Y213996D01*
X43001Y214662D01*
X45000D01*
Y216661D02*
Y217994D01*
X44334Y218661D01*
X43001D01*
X42334Y217994D01*
Y216661D01*
X43001Y215995D01*
X44334D01*
X45000Y216661D01*
X43001Y219994D02*
Y222659D01*
X41668Y221326D02*
X44334D01*
X45000Y223992D02*
Y225325D01*
Y224659D01*
X41001D01*
X41668Y223992D01*
X155000Y230000D02*
X151001D01*
Y231999D01*
X151668Y232666D01*
X153001D01*
X153667Y231999D01*
Y230000D01*
Y231333D02*
X155000Y232666D01*
Y235998D02*
Y234665D01*
X154333Y233999D01*
X153001D01*
X152334Y234665D01*
Y235998D01*
X153001Y236665D01*
X153667D01*
Y233999D01*
X152334Y240663D02*
Y238664D01*
X153001Y237997D01*
X154333D01*
X155000Y238664D01*
Y240663D01*
X151001Y241996D02*
X155000D01*
X153001D01*
X152334Y242663D01*
Y243995D01*
X153001Y244662D01*
X155000D01*
Y246661D02*
Y247994D01*
X154333Y248661D01*
X153001D01*
X152334Y247994D01*
Y246661D01*
X153001Y245995D01*
X154333D01*
X155000Y246661D01*
X153001Y249994D02*
Y252659D01*
X151668Y251326D02*
X154333D01*
X155000Y256658D02*
Y253992D01*
X152334Y256658D01*
X151668D01*
X151001Y255992D01*
Y254659D01*
X151668Y253992D01*
X300000Y200000D02*
X296001D01*
Y201999D01*
X296668Y202666D01*
X298001D01*
X298667Y201999D01*
Y200000D01*
Y201333D02*
X300000Y202666D01*
Y205998D02*
Y204665D01*
X299334Y203999D01*
X298001D01*
X297334Y204665D01*
Y205998D01*
X298001Y206664D01*
X298667D01*
Y203999D01*
X297334Y210663D02*
Y208664D01*
X298001Y207997D01*
X299334D01*
X300000Y208664D01*
Y210663D01*
X296001Y211996D02*
X300000D01*
X298001D01*
X297334Y212663D01*
Y213996D01*
X298001Y214662D01*
X300000D01*
Y216661D02*
Y217994D01*
X299334Y218661D01*
X298001D01*
X297334Y217994D01*
Y216661D01*
X298001Y215995D01*
X299334D01*
X300000Y216661D01*
X298001Y219994D02*
Y222659D01*
X296668Y221326D02*
X299334D01*
X296668Y223992D02*
X296001Y224659D01*
Y225992D01*
X296668Y226658D01*
X297334D01*
X298001Y225992D01*
Y225325D01*
Y225992D01*
X298667Y226658D01*
X299334D01*
X300000Y225992D01*
Y224659D01*
X299334Y223992D01*
X70000Y200000D02*
X66001D01*
Y201999D01*
X66668Y202666D01*
X68001D01*
X68667Y201999D01*
Y200000D01*
Y201333D02*
X70000Y202666D01*
Y205998D02*
Y204665D01*
X69334Y203999D01*
X68001D01*
X67334Y204665D01*
Y205998D01*
X68001Y206664D01*
X68667D01*
Y203999D01*
X67334Y210663D02*
Y208664D01*
X68001Y207997D01*
X69334D01*
X70000Y208664D01*
Y210663D01*
X66001Y211996D02*
X70000D01*
X68001D01*
X67334Y212663D01*
Y213996D01*
X68001Y214662D01*
X70000D01*
Y216661D02*
Y217994D01*
X69334Y218661D01*
X68001D01*
X67334Y217994D01*
Y216661D01*
X68001Y215995D01*
X69334D01*
X70000Y216661D01*
X68001Y219994D02*
Y222659D01*
X70000Y223992D02*
Y225325D01*
Y224659D01*
X66001D01*
X66668Y223992D01*
X190000Y230000D02*
X186001D01*
Y231999D01*
X186668Y232666D01*
X188001D01*
X188667Y231999D01*
Y230000D01*
Y231333D02*
X190000Y232666D01*
Y235998D02*
Y234665D01*
X189333Y233999D01*
X188001D01*
X187334Y234665D01*
Y235998D01*
X188001Y236665D01*
X188667D01*
Y233999D01*
X187334Y240663D02*
Y238664D01*
X188001Y237997D01*
X189333D01*
X190000Y238664D01*
Y240663D01*
X186001Y241996D02*
X190000D01*
X188001D01*
X187334Y242663D01*
Y243995D01*
X188001Y244662D01*
X190000D01*
Y246661D02*
Y247994D01*
X189333Y248661D01*
X188001D01*
X187334Y247994D01*
Y246661D01*
X188001Y245995D01*
X189333D01*
X190000Y246661D01*
X188001Y249994D02*
Y252659D01*
X190000Y256658D02*
Y253992D01*
X187334Y256658D01*
X186668D01*
X186001Y255992D01*
Y254659D01*
X186668Y253992D01*
X270000Y200000D02*
X266001D01*
Y201999D01*
X266668Y202666D01*
X268001D01*
X268667Y201999D01*
Y200000D01*
Y201333D02*
X270000Y202666D01*
Y205998D02*
Y204665D01*
X269334Y203999D01*
X268001D01*
X267334Y204665D01*
Y205998D01*
X268001Y206664D01*
X268667D01*
Y203999D01*
X267334Y210663D02*
Y208664D01*
X268001Y207997D01*
X269334D01*
X270000Y208664D01*
Y210663D01*
X266001Y211996D02*
X270000D01*
X268001D01*
X267334Y212663D01*
Y213996D01*
X268001Y214662D01*
X270000D01*
Y216661D02*
Y217994D01*
X269334Y218661D01*
X268001D01*
X267334Y217994D01*
Y216661D01*
X268001Y215995D01*
X269334D01*
X270000Y216661D01*
X268001Y219994D02*
Y222659D01*
X266668Y223992D02*
X266001Y224659D01*
Y225992D01*
X266668Y226658D01*
X267334D01*
X268001Y225992D01*
Y225325D01*
Y225992D01*
X268667Y226658D01*
X269334D01*
X270000Y225992D01*
Y224659D01*
X269334Y223992D01*
X22900Y263699D02*
Y260366D01*
X23566Y259700D01*
X24899D01*
X25566Y260366D01*
Y263699D01*
X29564Y263032D02*
X28898Y263699D01*
X27565D01*
X26899Y263032D01*
Y262366D01*
X27565Y261699D01*
X28898D01*
X29564Y261033D01*
Y260366D01*
X28898Y259700D01*
X27565D01*
X26899Y260366D01*
X30897Y259700D02*
X32230D01*
X31564D01*
Y263699D01*
X30897Y263032D01*
X130000Y266499D02*
Y263166D01*
X130666Y262500D01*
X131999D01*
X132666Y263166D01*
Y266499D01*
X136664Y265832D02*
X135998Y266499D01*
X134665D01*
X133999Y265832D01*
Y265166D01*
X134665Y264499D01*
X135998D01*
X136664Y263833D01*
Y263166D01*
X135998Y262500D01*
X134665D01*
X133999Y263166D01*
X140663Y262500D02*
X137997D01*
X140663Y265166D01*
Y265832D01*
X139997Y266499D01*
X138664D01*
X137997Y265832D01*
X205166Y81499D02*
X202500D01*
Y77500D01*
X205166D01*
X202500Y79499D02*
X203833D01*
X209165Y80832D02*
X208498Y81499D01*
X207165D01*
X206499Y80832D01*
Y80166D01*
X207165Y79499D01*
X208498D01*
X209165Y78833D01*
Y78166D01*
X208498Y77500D01*
X207165D01*
X206499Y78166D01*
X213163Y81499D02*
X210497D01*
Y77500D01*
X213163D01*
X210497Y79499D02*
X211830D01*
X215163Y82165D02*
Y80832D01*
X214496Y80166D01*
X219161Y81499D02*
X217828D01*
X217162Y80832D01*
Y78166D01*
X217828Y77500D01*
X219161D01*
X219828Y78166D01*
Y80832D01*
X219161Y81499D01*
X221161D02*
Y77500D01*
X223826D01*
X227825Y81499D02*
X225159D01*
Y77500D01*
X227825D01*
X225159Y79499D02*
X226492D01*
X229158Y81499D02*
Y77500D01*
X231157D01*
X231824Y78166D01*
Y80832D01*
X231157Y81499D01*
X229158D01*
X205166Y91499D02*
X202500D01*
Y87500D01*
X205166D01*
X202500Y89499D02*
X203833D01*
X209165Y90832D02*
X208498Y91499D01*
X207165D01*
X206499Y90832D01*
Y90166D01*
X207165Y89499D01*
X208498D01*
X209165Y88833D01*
Y88166D01*
X208498Y87500D01*
X207165D01*
X206499Y88166D01*
X213163Y91499D02*
X210497D01*
Y87500D01*
X213163D01*
X210497Y89499D02*
X211830D01*
X216495Y91499D02*
X215163D01*
X214496Y90832D01*
Y88166D01*
X215163Y87500D01*
X216495D01*
X217162Y88166D01*
Y90832D01*
X216495Y91499D01*
X222494Y89499D02*
X225159D01*
X233157Y87500D02*
X230491D01*
X233157Y90166D01*
Y90832D01*
X232490Y91499D01*
X231157D01*
X230491Y90832D01*
X234490D02*
X235156Y91499D01*
X236489D01*
X237156Y90832D01*
Y88166D01*
X236489Y87500D01*
X235156D01*
X234490Y88166D01*
Y90832D01*
X241154Y87500D02*
X238488D01*
X241154Y90166D01*
Y90832D01*
X240488Y91499D01*
X239155D01*
X238488Y90832D01*
X244486Y87500D02*
Y91499D01*
X242487Y89499D01*
X245153D01*
X202500Y97500D02*
Y101499D01*
X205166Y97500D01*
Y101499D01*
X208498D02*
X207165D01*
X206499Y100832D01*
Y98166D01*
X207165Y97500D01*
X208498D01*
X209165Y98166D01*
Y100832D01*
X208498Y101499D01*
X210497Y97500D02*
Y101499D01*
X211830Y100166D01*
X213163Y101499D01*
Y97500D01*
X218495Y101499D02*
Y97500D01*
X220494D01*
X221161Y98166D01*
Y100832D01*
X220494Y101499D01*
X218495D01*
X222494D02*
Y98166D01*
X223160Y97500D01*
X224493D01*
X225159Y98166D01*
Y101499D01*
X230491D02*
Y97500D01*
X232490D01*
X233157Y98166D01*
Y98833D01*
X232490Y99499D01*
X230491D01*
X232490D01*
X233157Y100166D01*
Y100832D01*
X232490Y101499D01*
X230491D01*
X234490D02*
X235823D01*
X235156D01*
Y97500D01*
X234490D01*
X235823D01*
X237822D02*
Y101499D01*
X240488Y97500D01*
Y101499D01*
X243820D02*
X242487D01*
X241821Y100832D01*
Y98166D01*
X242487Y97500D01*
X243820D01*
X244486Y98166D01*
Y100832D01*
X243820Y101499D01*
X245819Y97500D02*
Y101499D01*
X247152Y100166D01*
X248485Y101499D01*
Y97500D01*
X252484Y101499D02*
X249818D01*
Y97500D01*
X252484D01*
X249818Y99499D02*
X251151D01*
X253817Y100166D02*
X254483D01*
Y99499D01*
X253817D01*
Y100166D01*
Y98166D02*
X254483D01*
Y97500D01*
X253817D01*
Y98166D01*
X261148Y101499D02*
Y97500D01*
X262481Y98833D01*
X263813Y97500D01*
Y101499D01*
X265813Y100166D02*
X267146D01*
X267812Y99499D01*
Y97500D01*
X265813D01*
X265146Y98166D01*
X265813Y98833D01*
X267812D01*
X269812Y100832D02*
Y100166D01*
X269145D01*
X270478D01*
X269812D01*
Y98166D01*
X270478Y97500D01*
X273144Y100832D02*
Y100166D01*
X272477D01*
X273810D01*
X273144D01*
Y98166D01*
X273810Y97500D01*
X277809D02*
X276476D01*
X275810Y98166D01*
Y99499D01*
X276476Y100166D01*
X277809D01*
X278475Y99499D01*
Y98833D01*
X275810D01*
X279808Y100166D02*
Y98166D01*
X280475Y97500D01*
X282474D01*
Y100166D01*
X283807Y96834D02*
X286473D01*
X287806Y97500D02*
Y101499D01*
X289805D01*
X290472Y100832D01*
Y99499D01*
X289805Y98833D01*
X287806D01*
X289139D02*
X290472Y97500D01*
X292471Y100166D02*
X293804D01*
X294470Y99499D01*
Y97500D01*
X292471D01*
X291805Y98166D01*
X292471Y98833D01*
X294470D01*
X295803Y96167D02*
Y100166D01*
X297803D01*
X298469Y99499D01*
Y98166D01*
X297803Y97500D01*
X295803D01*
X299802Y101499D02*
Y97500D01*
Y99499D01*
X300468Y100166D01*
X301801D01*
X302468Y99499D01*
Y97500D01*
D12*
X273957Y160965D02*
X281043D01*
Y181043D01*
X273957D02*
X281043D01*
X273957Y160965D02*
Y181043D01*
X145911Y81850D02*
Y88150D01*
X130950D02*
X145911D01*
X130950Y81850D02*
Y88150D01*
Y81850D02*
X145911D01*
X108957Y203465D02*
X116043D01*
Y223543D01*
X108957D02*
X116043D01*
X108957Y203465D02*
Y223543D01*
X128957Y203465D02*
X136043D01*
Y223543D01*
X128957D02*
X136043D01*
X128957Y203465D02*
Y223543D01*
X46850Y213189D02*
X53150D01*
Y228150D01*
X46850D02*
X53150D01*
X46850Y213189D02*
Y228150D01*
X161850Y256811D02*
X168150D01*
X161850Y241850D02*
Y256811D01*
Y241850D02*
X168150D01*
Y256811D01*
X286850Y228411D02*
X293150D01*
X286850Y213450D02*
Y228411D01*
Y213450D02*
X293150D01*
Y228411D01*
X56850D02*
X63150D01*
X56850Y213450D02*
Y228411D01*
Y213450D02*
X63150D01*
Y228411D01*
X171850Y241589D02*
X178150D01*
Y256550D01*
X171850D02*
X178150D01*
X171850Y241589D02*
Y256550D01*
X276850Y213189D02*
X283150D01*
Y228150D01*
X276850D02*
X283150D01*
X276850Y213189D02*
Y228150D01*
D13*
X232500Y225020D02*
Y227500D01*
X202500Y225020D02*
X232500D01*
X197500Y209980D02*
X237500D01*
Y207500D02*
Y227500D01*
X197500D02*
X237500D01*
X197500Y207500D02*
Y227500D01*
Y207500D02*
X237500D01*
X202500Y225020D02*
Y227500D01*
D14*
X0Y276000D02*
X354500D01*
X-0Y57500D02*
X0Y276000D01*
X-0Y57500D02*
X354500D01*
X354500Y276000D01*
M02*
