G04*
G04 #@! TF.GenerationSoftware,Altium Limited,Altium Designer,19.1.5 (86)*
G04*
G04 Layer_Color=8421504*
%FSLAX25Y25*%
%MOIN*%
G70*
G01*
G75*
%ADD14C,0.02000*%
%ADD15R,0.06000X0.06000*%
%ADD16R,0.05000X0.05000*%
%ADD17R,0.07087X0.05118*%
%ADD18R,0.03543X0.03543*%
%ADD19R,0.05906X0.05118*%
%ADD20R,0.05118X0.05906*%
%ADD21R,0.05000X0.05000*%
D14*
X0Y276000D02*
X354500D01*
X-0Y57500D02*
X0Y276000D01*
X-0Y57500D02*
X354500D01*
X354500Y276000D01*
D15*
X277500Y177500D02*
D03*
Y164500D02*
D03*
X112500Y220000D02*
D03*
Y207000D02*
D03*
X132500Y220000D02*
D03*
Y207000D02*
D03*
D16*
X142500Y85000D02*
D03*
X134100D02*
D03*
D17*
X277500Y136791D02*
D03*
Y148209D02*
D03*
D18*
X132500Y238120D02*
D03*
Y230000D02*
D03*
X112500Y238120D02*
D03*
Y230000D02*
D03*
D19*
X267500Y175847D02*
D03*
Y169153D02*
D03*
Y136653D02*
D03*
Y143347D02*
D03*
D20*
X223346Y232500D02*
D03*
X216653D02*
D03*
D21*
X50000Y216600D02*
D03*
Y225000D02*
D03*
X165000Y253400D02*
D03*
Y245000D02*
D03*
X290000Y225000D02*
D03*
Y216600D02*
D03*
X60000Y225000D02*
D03*
Y216600D02*
D03*
X175000Y245000D02*
D03*
Y253400D02*
D03*
X280000Y216600D02*
D03*
Y225000D02*
D03*
M02*
