G04*
G04 #@! TF.GenerationSoftware,Altium Limited,Altium Designer,19.1.5 (86)*
G04*
G04 Layer_Color=8388736*
%FSLAX25Y25*%
%MOIN*%
G70*
G01*
G75*
%ADD14C,0.02000*%
%ADD22R,0.06400X0.06400*%
%ADD23R,0.05400X0.05400*%
%ADD24R,0.07487X0.05518*%
%ADD25R,0.03943X0.03943*%
%ADD26R,0.06306X0.05518*%
%ADD27R,0.05518X0.06306*%
%ADD28R,0.05400X0.05400*%
%ADD29C,0.07093*%
%ADD30R,0.07093X0.07093*%
%ADD31O,0.06699X0.10243*%
%ADD32R,0.06699X0.10243*%
%ADD33C,0.06306*%
%ADD34R,0.06306X0.06306*%
%ADD35C,0.35833*%
%ADD36R,0.06800X0.06800*%
%ADD37C,0.06800*%
%ADD38C,0.08300*%
%ADD39C,0.12998*%
%ADD40R,0.12998X0.12998*%
%ADD41P,0.08917X4X165.0*%
%ADD42R,0.06306X0.06306*%
%ADD43P,0.08917X4X105.0*%
%ADD44R,0.20085X0.20085*%
%ADD45R,0.20085X0.20085*%
%ADD46C,0.03400*%
D14*
X0Y276000D02*
X354500D01*
X-0Y57500D02*
X0Y276000D01*
X-0Y57500D02*
X354500D01*
X354500Y276000D01*
D22*
X277500Y177500D02*
D03*
Y164500D02*
D03*
X112500Y220000D02*
D03*
Y207000D02*
D03*
X132500Y220000D02*
D03*
Y207000D02*
D03*
D23*
X142500Y85000D02*
D03*
X134100D02*
D03*
D24*
X277500Y136791D02*
D03*
Y148209D02*
D03*
D25*
X132500Y238120D02*
D03*
Y230000D02*
D03*
X112500Y238120D02*
D03*
Y230000D02*
D03*
D26*
X267500Y175847D02*
D03*
Y169153D02*
D03*
Y136653D02*
D03*
Y143347D02*
D03*
D27*
X223346Y232500D02*
D03*
X216653D02*
D03*
D28*
X50000Y216600D02*
D03*
Y225000D02*
D03*
X165000Y253400D02*
D03*
Y245000D02*
D03*
X290000Y225000D02*
D03*
Y216600D02*
D03*
X60000Y225000D02*
D03*
Y216600D02*
D03*
X175000Y245000D02*
D03*
Y253400D02*
D03*
X280000Y216600D02*
D03*
Y225000D02*
D03*
D29*
X95000Y122500D02*
D03*
X85000D02*
D03*
X75000Y150000D02*
D03*
X85000D02*
D03*
D30*
X75000Y122500D02*
D03*
X95000Y150000D02*
D03*
D31*
X202500Y217500D02*
D03*
X212500D02*
D03*
X222500D02*
D03*
D32*
X232500D02*
D03*
D33*
X135000Y170000D02*
D03*
Y160000D02*
D03*
X300000Y247321D02*
D03*
X305000Y238660D02*
D03*
X310000Y230000D02*
D03*
X165000Y107500D02*
D03*
X175000D02*
D03*
X45000Y248660D02*
D03*
X40000Y240000D02*
D03*
X35000Y231340D02*
D03*
X155000Y265000D02*
D03*
X165000D02*
D03*
X175000D02*
D03*
D34*
X135000Y150000D02*
D03*
D35*
X35000Y110000D02*
D03*
Y155000D02*
D03*
D36*
X102500Y102500D02*
D03*
X105374Y170000D02*
D03*
X68563Y102500D02*
D03*
D37*
X92500D02*
D03*
X97500Y170000D02*
D03*
X76437Y102500D02*
D03*
D38*
X85000Y170000D02*
D03*
X65000D02*
D03*
X231260Y130787D02*
D03*
Y148898D02*
D03*
X258425D02*
D03*
Y130787D02*
D03*
X231260Y163287D02*
D03*
Y181398D02*
D03*
X258425D02*
D03*
Y163287D02*
D03*
D39*
X157500Y82500D02*
D03*
D40*
X177500D02*
D03*
D41*
X315000Y221340D02*
D03*
D42*
X155000Y107500D02*
D03*
X185000Y265000D02*
D03*
D43*
X30000Y222679D02*
D03*
D44*
X11811Y263779D02*
D03*
X12500Y70000D02*
D03*
X342520Y263779D02*
D03*
D45*
X342500Y70000D02*
D03*
D46*
X205000Y173000D02*
D03*
X177000Y174000D02*
D03*
X195000Y157500D02*
D03*
X203039Y164539D02*
D03*
X192000Y194000D02*
D03*
X135000Y195000D02*
D03*
X145000Y165871D02*
D03*
X142899Y169601D02*
D03*
X165000Y150000D02*
D03*
X142500Y180000D02*
D03*
X75000Y225000D02*
D03*
X130000Y200000D02*
D03*
X145000Y205000D02*
D03*
M02*
